SplineFontDB: 3.2
FontName: terriac
FullName: terriac Bold (Italic)
FamilyName: terriac
Weight: Bold
Copyright: Copyright (c) 2025, TerribleAtCreating
Version: 002.000
ItalicAngle: 0
UnderlinePosition: -75
UnderlineWidth: 25
Ascent: 819
Descent: 205
InvalidEm: 0
LayerCount: 2
Layer: 0 0 "Back" 1
Layer: 1 0 "Fore" 0
HasVMetrics: 1
XUID: [1021 308 -610143922 2088]
StyleMap: 0x0021
FSType: 0
OS2Version: 0
OS2_WeightWidthSlopeOnly: 0
OS2_UseTypoMetrics: 1
CreationTime: 1738162636
ModificationTime: 1738171108
PfmFamily: 81
TTFWeight: 700
TTFWidth: 5
LineGap: 92
VLineGap: 0
OS2TypoAscent: 0
OS2TypoAOffset: 1
OS2TypoDescent: 0
OS2TypoDOffset: 1
OS2TypoLinegap: 92
OS2WinAscent: 0
OS2WinAOffset: 1
OS2WinDescent: 0
OS2WinDOffset: 1
HheadAscent: 0
HheadAOffset: 1
HheadDescent: 0
HheadDOffset: 1
OS2Vendor: 'PfEd'
MarkAttachClasses: 1
DEI: 91125

StartChar: exclam
Encoding: 33 33 0
Width: 227
Flags: HW
LayerCount: 2
Fore
SplineSet
118 153 m 0
 107 158 95 174 92 188 c 2
 87 216 l 1
 147 487 l 1
 207 759 l 1
 200 779 l 1
 192 801 l 1
 209 824 l 2
 219 837 237 853 247 859 c 2
 266 870 l 1
 292 860 l 2
 306 855 324 838 333 822 c 2
 348 793 l 1
 283 492 l 1
 217 190 l 1
 196 171 l 2
 177 154 161 147 144 147 c 0
 135 147 127 149 118 153 c 0
66 -73 m 2
 33 -60 l 1
 26 -33 l 1
 19 -5 l 1
 30 19 l 2
 36 32 57 57 75 72 c 2
 110 99 l 1
 143 100 l 1
 176 101 l 1
 192 81 l 1
 208 61 l 1
 203 9 l 1
 198 -42 l 1
 164 -65 l 2
 143 -79 131 -85 115 -85 c 0
 102 -85 87 -81 66 -73 c 2
EndSplineSet
EndChar

StartChar: quotedbl
Encoding: 34 34 1
Width: 354
Flags: HW
LayerCount: 2
Fore
SplineSet
151 451 m 2
 128 475 l 1
 162 623 l 2
 198 777 209 801 248 814 c 0
 258 817 265 819 273 819 c 0
 295 819 312 806 322 780 c 0
 328 763 336 755 337 761 c 0
 341 781 376 805 402 805 c 0
 415 805 435 795 443 784 c 2
 457 764 l 1
 454 694 l 2
 452 656 448 599 444 566 c 2
 437 508 l 1
 415 478 l 2
 398 454 376 442 354 442 c 0
 344 442 334 444 325 449 c 0
 297 463 296 476 309 569 c 0
 315 611 318 653 315 660 c 2
 311 674 l 1
 284 573 l 1
 256 472 l 1
 225 450 l 2
 205 436 193 428 183 428 c 0
 173 428 166 435 151 451 c 2
EndSplineSet
EndChar

StartChar: numbersign
Encoding: 35 35 2
Width: 852
Flags: HW
LayerCount: 2
Fore
SplineSet
439 -19 m 0
 428 -15 415 -1 412 11 c 2
 404 34 l 1
 438 130 l 1
 471 226 l 1
 462 239 l 1
 451 251 l 1
 439 236 l 2
 432 228 422 205 419 189 c 0
 400 102 360 51 312 51 c 2
 290 51 l 1
 274 77 l 1
 260 103 l 1
 281 177 l 1
 302 251 l 1
 221 262 l 1
 140 273 l 1
 123 292 l 1
 107 310 l 1
 113 338 l 1
 119 366 l 1
 143 384 l 1
 167 402 l 1
 255 392 l 2
 303 386 342 383 343 383 c 0
 344 383 352 400 360 418 c 2
 375 451 l 1
 266 451 l 1
 157 451 l 1
 141 471 l 2
 131 484 127 500 130 515 c 0
 133 531 144 546 161 559 c 2
 187 579 l 1
 303 582 l 1
 420 586 l 1
 437 643 l 2
 447 675 457 712 460 725 c 0
 471 773 519 808 569 808 c 0
 574 808 579 808 584 807 c 2
 606 804 l 1
 613 778 l 1
 620 753 l 1
 592 691 l 2
 577 657 562 618 559 606 c 2
 554 584 l 1
 575 584 l 1
 594 584 l 1
 611 633 l 2
 657 770 692 819 741 819 c 0
 767 819 790 794 789 768 c 0
 789 766 790 764 789 760 c 0
 783 733 758 661 738 612 c 2
 727 584 l 1
 813 584 l 1
 899 584 l 1
 922 562 l 1
 944 542 l 1
 938 512 l 1
 931 482 l 1
 906 467 l 1
 880 451 l 1
 781 451 l 1
 682 451 l 1
 670 412 l 2
 665 398 661 386 659 378 c 0
 658 374 658 371 659 370 c 0
 661 368 693 363 732 359 c 2
 805 352 l 1
 819 329 l 2
 828 314 831 303 829 292 c 0
 826 279 815 266 794 249 c 2
 762 222 l 1
 683 228 l 1
 605 233 l 1
 571 133 l 2
 552 78 530 22 521 10 c 0
 506 -12 483 -23 461 -23 c 0
 453 -23 446 -22 439 -19 c 0
526 385 m 0
 531 394 539 413 542 426 c 2
 547 451 l 1
 526 451 l 1
 507 451 l 1
 493 425 l 2
 490 418 488 410 486 402 c 0
 484 394 484 388 485 384 c 0
 487 374 493 369 501 369 c 0
 509 369 520 375 526 385 c 0
EndSplineSet
EndChar

StartChar: dollar
Encoding: 36 36 3
Width: 625
Flags: HW
LayerCount: 2
Fore
SplineSet
220 -152 m 0
 209 -146 196 -128 193 -113 c 2
 188 -84 l 1
 204 -39 l 1
 220 5 l 1
 185 19 l 2
 166 26 136 51 119 73 c 2
 88 113 l 1
 94 141 l 1
 100 171 l 1
 123 187 l 2
 137 198 152 204 167 204 c 0
 185 204 201 195 216 179 c 0
 228 165 242 154 245 154 c 0
 248 154 258 189 267 233 c 2
 282 312 l 1
 226 343 l 1
 169 374 l 1
 150 417 l 1
 131 459 l 1
 134 505 l 1
 138 550 l 1
 167 608 l 1
 196 667 l 1
 241 708 l 2
 266 731 310 760 337 774 c 2
 385 799 l 1
 404 866 l 1
 423 933 l 1
 446 952 l 1
 468 973 l 1
 497 973 l 1
 526 973 l 1
 540 946 l 1
 556 920 l 1
 540 874 l 1
 524 829 l 1
 567 829 l 2
 632 829 692 810 712 782 c 2
 730 758 l 1
 715 730 l 2
 707 715 687 696 673 690 c 2
 646 678 l 1
 616 687 l 2
 600 692 569 696 547 696 c 2
 508 696 l 1
 486 592 l 2
 474 535 457 470 450 450 c 2
 436 413 l 1
 502 395 l 2
 583 373 611 357 636 317 c 0
 654 289 659 252 650 212 c 0
 647 200 644 188 639 176 c 2
 624 138 l 1
 565 91 l 1
 506 43 l 1
 429 25 l 1
 353 6 l 1
 333 -58 l 1
 313 -123 l 1
 282 -143 l 2
 262 -156 254 -162 246 -162 c 0
 239 -162 233 -159 220 -152 c 0
479 173 m 0
 495 183 512 202 517 214 c 2
 525 236 l 1
 494 250 l 2
 477 257 450 266 436 270 c 2
 409 276 l 1
 394 209 l 1
 380 141 l 1
 415 147 l 2
 434 151 463 163 479 173 c 0
346 560 m 1
 367 658 l 1
 342 639 l 2
 306 612 277 571 270 537 c 2
 264 508 l 1
 281 484 l 2
 290 471 305 461 312 461 c 2
 325 461 l 1
 346 560 l 1
EndSplineSet
EndChar

StartChar: percent
Encoding: 37 37 4
Width: 770
Flags: HW
LayerCount: 2
Fore
SplineSet
256 718 m 2
 217 746 208 763 205 814 c 2
 203 855 l 1
 237 922 l 1
 272 989 l 1
 316 1030 l 1
 360 1071 l 1
 422 1099 l 1
 485 1126 l 1
 538 1126 l 1
 591 1126 l 1
 621 1105 l 2
 663 1075 682 1031 673 991 c 0
 670 975 661 959 648 946 c 0
 638 935 626 916 623 903 c 0
 602 809 467 708 346 699 c 2
 287 695 l 1
 256 718 l 2
453 868 m 1
 490 898 l 1
 471 940 l 1
 453 982 l 1
 429 968 l 2
 391 944 356 898 348 861 c 2
 341 826 l 1
 380 833 l 1
 419 839 l 1
 453 868 l 1
54 37 m 2
 33 62 l 1
 46 90 l 2
 64 129 121 196 299 389 c 0
 507 613 579 703 706 882 c 2
 813 1031 l 1
 831 1038 l 2
 841 1041 861 1044 874 1044 c 2
 898 1044 l 1
 910 1019 l 1
 921 994 l 1
 899 956 l 2
 867 897 728 703 644 600 c 0
 601 549 491 424 398 323 c 0
 305 222 210 116 189 89 c 0
 150 40 112 10 87 10 c 0
 80 10 65 23 54 37 c 2
465 7 m 0
 453 10 431 27 416 46 c 2
 389 81 l 1
 388 138 l 1
 389 196 l 1
 405 239 l 2
 436 322 503 384 574 399 c 0
 587 402 600 403 612 403 c 0
 667 403 713 377 721 339 c 0
 724 324 742 296 758 278 c 2
 789 244 l 1
 790 210 l 1
 788 175 l 1
 769 140 l 2
 728 65 603 3 507 3 c 0
 493 3 477 4 465 7 c 0
599 147 m 0
 619 155 642 168 647 175 c 2
 659 187 l 1
 612 180 l 2
 586 176 555 173 542 173 c 2
 518 174 l 1
 526 154 l 2
 530 140 536 134 549 134 c 0
 560 134 576 138 599 147 c 0
EndSplineSet
EndChar

StartChar: ampersand
Encoding: 38 38 5
Width: 777
Flags: HW
LayerCount: 2
Fore
SplineSet
636 -2 m 2
 604 13 557 43 533 65 c 2
 489 103 l 1
 447 79 l 2
 424 66 372 41 332 25 c 2
 259 -5 l 1
 202 -5 l 1
 144 -5 l 1
 114 23 l 2
 77 57 57 105 59 154 c 2
 60 189 l 1
 86 243 l 2
 100 273 132 321 154 351 c 2
 195 404 l 1
 181 451 l 1
 167 497 l 1
 178 553 l 2
 178 555 179 558 179 560 c 0
 195 634 220 676 271 724 c 2
 316 766 l 1
 376 793 l 1
 435 819 l 1
 468 812 l 1
 500 806 l 1
 527 771 l 2
 541 753 556 719 558 696 c 2
 561 655 l 1
 534 609 l 2
 519 583 477 533 441 495 c 0
 405 457 376 422 375 419 c 0
 373 409 408 370 467 323 c 2
 524 276 l 1
 571 315 l 2
 597 335 650 384 689 422 c 2
 760 492 l 1
 789 492 l 2
 828 492 845 466 838 431 c 0
 835 417 827 401 816 386 c 0
 807 374 757 323 706 275 c 2
 613 187 l 1
 636 166 l 2
 649 155 678 135 701 123 c 0
 757 91 773 73 766 42 c 0
 759 10 748 -4 717 -18 c 2
 693 -30 l 1
 636 -2 l 2
300 143 m 0
 329 154 363 170 376 178 c 2
 399 193 l 1
 357 225 l 2
 333 243 305 271 294 284 c 2
 272 308 l 1
 251 284 l 2
 239 271 220 239 209 215 c 2
 189 172 l 1
 198 147 l 2
 205 131 213 124 230 124 c 0
 245 124 267 130 300 143 c 0
376 598 m 2
 427 653 l 1
 422 665 l 2
 419 671 415 675 409 675 c 0
 399 675 384 665 360 645 c 2
 325 615 l 1
 316 573 l 2
 311 551 311 537 315 537 c 2
 316 537 l 2
 322 540 347 567 376 598 c 2
EndSplineSet
EndChar

StartChar: quotesingle
Encoding: 39 39 6
Width: 197
Flags: HW
LayerCount: 2
Fore
SplineSet
163 517 m 2
 143 542 l 1
 168 660 l 1
 193 778 l 1
 218 799 l 2
 231 810 254 819 268 819 c 2
 295 819 l 1
 317 793 l 1
 336 767 l 1
 322 729 l 2
 315 709 300 656 291 612 c 2
 274 532 l 1
 249 512 l 2
 233 499 218 492 205 492 c 0
 190 492 176 501 163 517 c 2
EndSplineSet
EndChar

StartChar: parenleft
Encoding: 40 40 7
Width: 379
Flags: HW
LayerCount: 2
Fore
SplineSet
196 -51 m 0
 96 -8 51 139 86 303 c 2
 102 376 l 1
 138 446 l 2
 214 591 329 727 389 741 c 2
 416 748 l 1
 437 735 l 2
 463 720 468 707 462 679 c 2
 457 656 l 1
 403 610 l 1
 349 565 l 1
 299 484 l 1
 248 404 l 1
 227 327 l 1
 206 249 l 1
 210 191 l 1
 213 134 l 1
 239 102 l 1
 264 72 l 1
 292 72 l 2
 307 72 332 61 344 50 c 2
 365 29 l 1
 359 0 l 1
 353 -28 l 1
 331 -45 l 1
 309 -61 l 1
 264 -61 l 2
 239 -61 208 -56 196 -51 c 0
EndSplineSet
EndChar

StartChar: parenright
Encoding: 41 41 8
Width: 373
Flags: HW
LayerCount: 2
Fore
SplineSet
34 -57 m 1
 12 -31 l 1
 26 -7 l 2
 33 5 75 48 122 89 c 0
 169 130 220 179 234 197 c 2
 259 230 l 1
 284 348 l 1
 309 466 l 1
 298 532 l 1
 288 599 l 1
 248 671 l 1
 208 742 l 1
 219 768 l 2
 234 800 263 819 296 819 c 2
 320 819 l 1
 350 780 l 2
 397 717 423 646 433 558 c 2
 442 476 l 1
 426 375 l 1
 409 274 l 1
 377 208 l 1
 345 141 l 1
 270 63 l 2
 191 -20 129 -66 83 -77 c 2
 55 -84 l 1
 34 -57 l 1
EndSplineSet
EndChar

StartChar: asterisk
Encoding: 42 42 9
Width: 505
Flags: HW
LayerCount: 2
Fore
SplineSet
295 375 m 2
 274 399 l 1
 281 435 l 2
 285 454 288 477 287 486 c 2
 285 503 l 1
 253 487 l 2
 231 477 211 472 194 472 c 0
 167 472 148 485 145 511 c 2
 140 536 l 1
 160 564 l 1
 180 593 l 1
 168 608 l 2
 162 616 160 637 163 652 c 2
 169 681 l 1
 196 700 l 1
 224 719 l 1
 249 713 l 2
 262 709 279 699 286 691 c 0
 293 683 306 677 312 677 c 2
 323 677 l 1
 333 724 l 1
 343 770 l 1
 374 796 l 2
 393 812 409 820 424 820 c 0
 438 820 451 813 466 799 c 2
 488 778 l 1
 483 753 l 1
 478 728 l 1
 498 728 l 2
 525 728 552 693 546 665 c 0
 543 653 532 634 521 624 c 2
 500 605 l 1
 522 605 l 2
 555 605 597 579 599 556 c 0
 599 553 598 548 597 543 c 0
 595 532 590 520 585 510 c 2
 570 483 l 1
 541 476 l 2
 533 474 521 473 507 473 c 0
 495 473 482 474 470 475 c 2
 425 480 l 1
 416 437 l 2
 406 389 398 377 363 361 c 0
 349 354 339 351 330 351 c 0
 318 351 308 358 295 375 c 2
EndSplineSet
EndChar

StartChar: plus
Encoding: 43 43 10
Width: 690
Flags: HW
LayerCount: 2
Fore
SplineSet
325 167 m 2
 306 193 l 1
 320 259 l 1
 334 326 l 1
 305 321 l 2
 289 318 245 314 208 312 c 2
 142 308 l 1
 120 337 l 1
 99 365 l 1
 108 386 l 2
 113 397 129 415 141 424 c 2
 164 441 l 1
 239 446 l 2
 280 448 326 453 339 456 c 2
 363 460 l 1
 384 562 l 1
 407 666 l 1
 438 691 l 1
 468 717 l 1
 491 711 l 2
 502 707 517 694 525 683 c 2
 539 663 l 1
 519 570 l 1
 500 478 l 1
 560 485 l 2
 594 488 641 497 667 503 c 2
 713 514 l 1
 737 502 l 2
 759 490 767 467 762 444 c 0
 758 425 746 405 724 393 c 0
 699 380 617 362 521 351 c 2
 472 346 l 1
 454 264 l 1
 437 183 l 1
 413 163 l 2
 397 150 381 143 367 143 c 0
 352 143 338 151 325 167 c 2
EndSplineSet
EndChar

StartChar: comma
Encoding: 44 44 11
Width: 272
Flags: HW
LayerCount: 2
Fore
SplineSet
-11 -302 m 0
 -24 -286 -30 -274 -27 -262 c 0
 -24 -246 -7 -230 25 -204 c 2
 74 -163 l 1
 81 -134 l 1
 87 -105 l 1
 66 -65 l 2
 50 -33 43 -12 47 7 c 0
 50 21 59 33 74 45 c 2
 94 61 l 1
 128 61 l 1
 161 61 l 1
 183 29 l 2
 214 -19 226 -81 215 -133 c 2
 205 -179 l 1
 176 -220 l 2
 144 -267 104 -301 60 -316 c 0
 42 -322 31 -326 22 -326 c 0
 10 -326 2 -319 -11 -302 c 0
EndSplineSet
EndChar

StartChar: hyphen
Encoding: 45 45 12
Width: 539
Flags: HW
LayerCount: 2
Fore
SplineSet
207 366 m 0
 161 376 134 394 127 420 c 2
 119 446 l 1
 133 467 l 2
 141 478 156 493 166 500 c 0
 178 508 200 512 220 512 c 0
 239 512 254 508 257 501 c 2
 262 489 l 1
 421 498 l 1
 580 505 l 1
 597 486 l 1
 612 468 l 1
 607 440 l 1
 601 413 l 1
 578 395 l 1
 554 378 l 1
 457 369 l 2
 400 364 338 361 288 361 c 0
 251 361 221 363 207 366 c 0
EndSplineSet
EndChar

StartChar: period
Encoding: 46 46 13
Width: 214
Flags: HW
LayerCount: 2
Fore
SplineSet
69 -81 m 0
 43 -71 24 -33 30 -4 c 0
 33 8 50 33 68 50 c 2
 101 82 l 1
 135 82 l 1
 169 82 l 1
 181 59 l 2
 187 47 188 20 184 0 c 2
 176 -38 l 1
 150 -58 l 2
 125 -77 107 -86 91 -86 c 0
 84 -86 76 -84 69 -81 c 0
EndSplineSet
EndChar

StartChar: slash
Encoding: 47 47 14
Width: 628
Flags: HW
LayerCount: 2
Fore
SplineSet
38 -41 m 2
 17 -20 l 1
 23 8 l 1
 29 36 l 1
 164 195 l 2
 295 348 434 512 600 716 c 2
 680 813 l 1
 717 816 l 1
 755 819 l 1
 765 803 l 2
 770 794 771 773 768 757 c 2
 762 727 l 1
 630 565 l 2
 558 476 413 303 308 181 c 2
 119 -41 l 1
 93 -51 l 2
 79 -57 72 -61 66 -61 c 0
 59 -61 53 -55 38 -41 c 2
EndSplineSet
EndChar

StartChar: zero
Encoding: 48 48 15
Width: 804
Flags: HW
LayerCount: 2
Fore
SplineSet
265 35 m 2
 231 50 189 76 168 93 c 2
 130 124 l 1
 114 186 l 2
 105 220 97 275 98 309 c 2
 100 371 l 1
 120 438 l 2
 146 523 183 598 248 690 c 2
 299 764 l 1
 368 825 l 1
 438 887 l 1
 496 913 l 2
 529 927 577 942 605 946 c 2
 654 952 l 1
 753 929 l 1
 853 905 l 1
 880 884 l 2
 895 873 914 847 922 829 c 2
 937 797 l 1
 915 657 l 2
 908 616 900 572 892 535 c 0
 885 503 878 477 874 463 c 0
 823 310 662 123 510 44 c 2
 455 15 l 1
 390 11 l 1
 326 7 l 1
 265 35 l 2
474 161 m 0
 536 195 619 271 677 349 c 2
 732 422 l 1
 760 540 l 1
 789 657 l 1
 706 570 l 2
 599 458 345 173 343 162 c 0
 340 149 363 143 391 143 c 0
 418 143 451 149 474 161 c 0
259 243 m 0
 262 255 489 512 635 668 c 0
 690 726 732 777 734 786 c 0
 735 790 701 802 670 808 c 2
 608 820 l 1
 562 807 l 1
 514 795 l 1
 453 742 l 1
 393 691 l 1
 342 617 l 1
 292 543 l 1
 264 468 l 2
 254 439 246 414 241 390 c 0
 233 351 231 315 236 271 c 0
 238 247 245 231 251 231 c 0
 254 231 257 235 259 243 c 0
EndSplineSet
EndChar

StartChar: one
Encoding: 49 49 16
Width: 628
Flags: HW
LayerCount: 2
Fore
SplineSet
373 26 m 2
 353 50 l 1
 364 104 l 2
 390 225 484 487 563 655 c 0
 583 699 602 740 603 746 c 0
 603 747 602 747 601 747 c 0
 593 747 560 732 520 708 c 0
 473 680 410 645 377 631 c 2
 317 604 l 1
 277 564 l 2
 243 532 223 518 202 518 c 0
 194 518 186 520 178 523 c 0
 156 532 144 575 150 605 c 0
 151 609 151 613 153 616 c 0
 166 644 238 694 349 752 c 0
 402 780 483 823 528 850 c 0
 635 912 698 942 730 942 c 0
 761 942 787 912 789 877 c 2
 790 852 l 1
 727 716 l 2
 627 502 525 233 498 106 c 2
 486 54 l 1
 460 27 l 2
 442 10 426 1 412 1 c 0
 398 1 386 10 373 26 c 2
EndSplineSet
EndChar

StartChar: two
Encoding: 50 50 17
Width: 757
Flags: HW
LayerCount: 2
Fore
SplineSet
103 18 m 1
 81 40 l 1
 88 76 l 1
 96 111 l 1
 117 129 l 2
 129 139 191 175 252 207 c 0
 384 276 497 361 603 472 c 2
 681 553 l 1
 686 577 l 1
 691 600 l 1
 655 646 l 1
 620 693 l 1
 580 705 l 2
 566 709 550 711 534 711 c 0
 482 711 422 692 366 656 c 0
 322 628 295 593 273 538 c 2
 259 500 l 1
 237 489 l 2
 224 482 211 479 199 479 c 0
 181 479 165 487 152 504 c 0
 139 520 135 534 139 553 c 0
 143 572 156 595 179 629 c 0
 229 702 298 762 375 797 c 2
 440 826 l 1
 513 839 l 1
 586 850 l 1
 635 835 l 2
 698 816 755 768 789 712 c 0
 826 651 830 629 818 572 c 2
 807 522 l 1
 737 441 l 1
 667 361 l 1
 537 255 l 1
 409 148 l 1
 532 155 l 2
 600 158 671 165 692 168 c 2
 731 174 l 1
 748 152 l 1
 766 130 l 1
 757 103 l 1
 748 77 l 1
 719 58 l 1
 689 39 l 1
 589 24 l 1
 488 8 l 1
 381 20 l 1
 274 33 l 1
 222 20 l 2
 193 14 160 5 148 2 c 2
 126 -3 l 1
 103 18 l 1
EndSplineSet
EndChar

StartChar: three
Encoding: 51 51 18
Width: 774
Flags: HW
LayerCount: 2
Fore
SplineSet
255 24 m 0
 230 31 193 46 172 58 c 2
 134 80 l 1
 133 105 l 2
 133 113 134 122 135 129 c 0
 140 153 155 171 180 181 c 2
 209 193 l 1
 272 166 l 1
 336 140 l 1
 420 144 l 1
 502 147 l 1
 553 171 l 2
 581 184 619 207 637 221 c 2
 672 248 l 1
 657 267 l 2
 649 278 632 293 619 301 c 2
 594 315 l 1
 538 315 l 2
 468 315 439 327 423 361 c 2
 411 388 l 1
 428 413 l 1
 444 438 l 1
 528 474 l 1
 611 510 l 1
 657 551 l 2
 682 574 706 599 707 606 c 0
 712 631 680 672 646 684 c 2
 613 696 l 1
 552 689 l 2
 438 676 355 628 276 535 c 0
 252 506 221 480 209 477 c 0
 205 476 200 475 196 475 c 0
 169 475 145 495 142 523 c 2
 138 551 l 1
 161 585 l 2
 174 603 212 644 248 676 c 2
 313 732 l 1
 389 769 l 1
 467 805 l 1
 544 817 l 1
 620 829 l 1
 662 822 l 2
 755 806 819 749 844 657 c 2
 855 614 l 1
 828 568 l 2
 813 542 777 501 748 475 c 0
 721 450 700 428 699 425 c 0
 698 421 807 357 806 278 c 2
 806 246 l 1
 786 210 l 1
 767 174 l 1
 708 128 l 2
 605 47 498 9 375 9 c 0
 373 9 372 9 370 9 c 0
 331 9 280 17 255 24 c 0
EndSplineSet
EndChar

StartChar: four
Encoding: 52 52 19
Width: 737
Flags: HW
LayerCount: 2
Fore
SplineSet
413 36 m 2
 392 60 l 1
 419 189 l 1
 446 317 l 1
 434 317 l 2
 427 317 367 309 300 299 c 2
 178 281 l 1
 146 289 l 2
 107 299 92 332 102 379 c 2
 109 415 l 1
 188 517 l 2
 232 573 306 662 353 713 c 0
 400 764 439 812 440 818 c 0
 441 824 455 839 468 850 c 2
 492 870 l 1
 521 870 l 2
 536 870 559 863 569 854 c 2
 588 839 l 1
 582 810 l 1
 576 781 l 1
 500 700 l 2
 426 621 263 429 267 425 c 1
 267 425 267 425 268 425 c 0
 275 425 323 431 378 439 c 2
 486 455 l 1
 492 486 l 2
 496 503 526 580 554 657 c 2
 606 798 l 1
 630 819 l 2
 645 833 661 839 676 839 c 0
 691 839 706 833 717 819 c 0
 727 806 732 794 727 770 c 0
 723 749 710 719 691 670 c 0
 674 626 651 562 641 530 c 2
 622 472 l 1
 680 489 l 2
 712 498 751 505 767 505 c 2
 796 505 l 1
 807 485 l 2
 812 473 814 461 811 449 c 0
 804 415 766 382 712 369 c 0
 692 364 654 354 629 348 c 2
 584 337 l 1
 554 199 l 1
 525 60 l 1
 494 36 l 2
 477 22 456 10 447 10 c 0
 438 10 424 22 413 36 c 2
EndSplineSet
EndChar

StartChar: five
Encoding: 53 53 20
Width: 783
Flags: HW
LayerCount: 2
Fore
SplineSet
122 23 m 1
 75 40 l 1
 59 75 l 2
 50 94 45 120 48 133 c 0
 55 164 95 199 126 199 c 2
 150 199 l 1
 173 168 l 1
 196 137 l 1
 257 137 l 2
 461 137 654 246 713 393 c 1
 726 429 l 1
 717 445 l 2
 702 470 611 499 525 504 c 2
 447 508 l 1
 341 490 l 2
 296 483 263 478 239 478 c 0
 199 478 183 490 170 517 c 2
 154 548 l 1
 169 622 l 1
 185 695 l 1
 214 751 l 2
 251 822 275 849 318 869 c 2
 353 886 l 1
 532 901 l 2
 607 907 680 911 714 911 c 0
 724 911 729 911 732 910 c 0
 743 907 760 893 766 880 c 2
 777 855 l 1
 765 834 l 2
 759 823 743 806 729 798 c 2
 703 783 l 1
 539 770 l 2
 449 763 366 752 357 746 c 2
 338 735 l 1
 320 676 l 1
 301 615 l 1
 363 625 l 2
 397 630 474 634 533 634 c 2
 641 634 l 1
 722 605 l 2
 812 573 833 556 849 505 c 2
 860 470 l 1
 847 409 l 1
 834 347 l 1
 806 306 l 1
 712 161 578 70 392 24 c 2
 312 4 l 1
 241 4 l 1
 169 5 l 1
 122 23 l 1
EndSplineSet
EndChar

StartChar: six
Encoding: 54 54 21
Width: 720
Flags: HW
LayerCount: 2
Fore
SplineSet
227 16 m 0
 147 47 89 145 87 254 c 2
 86 306 l 1
 119 407 l 2
 178 590 218 658 326 754 c 0
 400 821 471 855 556 870 c 2
 613 881 l 1
 662 871 l 2
 689 866 726 850 743 837 c 2
 775 812 l 1
 782 779 l 1
 789 746 l 1
 767 720 l 2
 744 690 716 675 692 675 c 0
 672 675 654 686 646 710 c 2
 634 738 l 1
 580 739 l 1
 527 739 l 1
 484 720 l 2
 440 700 395 663 347 609 c 0
 318 577 266 470 257 429 c 0
 256 426 256 423 256 421 c 2
 255 401 l 1
 314 437 l 2
 347 456 400 480 433 489 c 2
 493 507 l 1
 571 507 l 1
 648 507 l 1
 695 478 l 2
 748 445 760 423 764 360 c 2
 766 315 l 1
 744 268 l 2
 687 151 554 62 368 15 c 0
 335 7 313 3 292 3 c 0
 270 3 250 7 227 16 c 0
478 186 m 2
 569 226 l 1
 592 253 l 2
 604 267 620 292 626 308 c 2
 639 338 l 1
 616 355 l 2
 604 364 575 375 554 378 c 2
 515 383 l 1
 456 367 l 2
 423 358 377 336 351 319 c 0
 312 293 286 282 264 282 c 0
 254 282 245 284 236 289 c 2
 217 300 l 1
 220 276 l 2
 224 230 236 199 267 166 c 2
 298 133 l 1
 342 139 l 2
 367 142 427 163 478 186 c 2
EndSplineSet
EndChar

StartChar: seven
Encoding: 55 55 22
Width: 852
Flags: HW
LayerCount: 2
Fore
SplineSet
114 13 m 2
 106 25 103 43 107 62 c 0
 111 82 122 104 139 123 c 0
 153 139 201 186 243 225 c 0
 285 264 318 297 317 298 c 0
 316 299 276 305 228 310 c 2
 140 321 l 1
 123 338 l 1
 108 356 l 1
 115 390 l 1
 122 424 l 1
 144 435 l 1
 168 446 l 1
 322 439 l 1
 477 433 l 1
 596 534 l 2
 661 589 724 644 737 656 c 2
 761 678 l 1
 483 678 l 1
 206 678 l 1
 189 697 l 1
 173 716 l 1
 182 745 l 1
 192 776 l 1
 221 795 l 1
 251 813 l 1
 582 816 l 1
 914 819 l 1
 933 791 l 2
 943 776 950 751 947 738 c 0
 938 698 867 612 772 528 c 2
 681 449 l 1
 779 454 l 1
 876 459 l 1
 899 441 l 1
 921 425 l 1
 914 390 l 1
 906 355 l 1
 887 342 l 1
 869 329 l 1
 688 315 l 1
 506 302 l 1
 445 248 l 2
 369 182 301 120 234 49 c 2
 183 -5 l 1
 155 -5 l 1
 126 -5 l 1
 114 13 l 2
EndSplineSet
EndChar

StartChar: eight
Encoding: 56 56 23
Width: 669
Flags: HW
LayerCount: 2
Fore
SplineSet
306 31 m 2
 240 75 194 127 181 172 c 2
 168 213 l 1
 185 275 l 1
 203 338 l 1
 251 409 l 2
 276 447 296 477 297 480 c 0
 297 481 278 490 239 512 c 2
 185 544 l 1
 171 592 l 1
 157 640 l 1
 180 693 l 2
 209 761 235 794 299 862 c 2
 350 915 l 1
 426 949 l 1
 503 983 l 1
 605 983 l 1
 708 983 l 1
 744 962 l 2
 765 951 789 924 797 906 c 2
 812 872 l 1
 804 835 l 1
 796 797 l 1
 752 735 l 2
 729 701 677 646 638 611 c 0
 602 579 577 554 576 549 c 0
 576 548 576 548 576 548 c 1
 581 548 603 533 626 517 c 2
 665 486 l 1
 681 438 l 2
 689 411 700 362 702 327 c 2
 705 263 l 1
 677 206 l 1
 647 148 l 1
 601 110 l 2
 574 88 532 57 502 42 c 2
 447 14 l 1
 397 9 l 1
 346 4 l 1
 306 31 l 2
480 169 m 0
 509 185 541 211 551 226 c 2
 569 253 l 1
 564 310 l 1
 559 368 l 1
 531 400 l 2
 516 418 491 436 475 440 c 2
 444 447 l 1
 425 433 l 2
 415 426 386 392 363 358 c 2
 321 297 l 1
 313 260 l 1
 305 223 l 1
 350 181 l 2
 375 157 402 138 411 138 c 0
 420 138 451 153 480 169 c 0
525 670 m 0
 606 741 662 802 667 827 c 0
 668 830 667 832 666 834 c 0
 664 839 631 845 593 849 c 2
 524 856 l 1
 481 840 l 2
 407 811 339 746 305 670 c 2
 292 642 l 1
 337 622 l 2
 354 615 410 590 425 590 c 0
 430 590 475 626 525 670 c 0
EndSplineSet
EndChar

StartChar: nine
Encoding: 57 57 24
Width: 783
Flags: HW
LayerCount: 2
Fore
SplineSet
48 24 m 2
 30 42 l 1
 36 71 l 2
 39 86 49 106 59 114 c 0
 83 134 201 156 361 169 c 0
 436 175 529 188 568 196 c 2
 639 211 l 1
 652 243 l 2
 659 260 683 361 706 467 c 2
 747 660 l 1
 673 613 l 2
 632 587 574 554 542 540 c 2
 485 513 l 1
 403 512 l 1
 322 512 l 1
 288 537 l 1
 254 560 l 1
 243 600 l 2
 234 630 232 661 239 693 c 0
 252 756 296 821 367 883 c 0
 424 933 494 968 598 1000 c 2
 665 1021 l 1
 746 1022 l 1
 829 1024 l 1
 887 989 l 1
 944 954 l 1
 949 928 l 1
 955 901 l 1
 914 763 l 2
 892 686 855 543 834 445 c 0
 813 347 786 240 774 206 c 2
 751 144 l 1
 722 121 l 1
 694 98 l 1
 593 73 l 1
 488 47 l 1
 343 37 l 2
 263 31 180 21 160 15 c 0
 138 9 118 6 102 6 c 0
 78 6 60 12 48 24 c 2
503 654 m 0
 592 689 760 823 770 868 c 0
 774 886 764 895 735 895 c 0
 720 895 699 892 672 888 c 0
 547 868 454 820 403 751 c 0
 390 733 381 711 377 692 c 0
 373 675 374 660 380 652 c 0
 386 644 404 641 426 641 c 0
 450 641 480 645 503 654 c 0
EndSplineSet
EndChar

StartChar: colon
Encoding: 58 58 25
Width: 224
Flags: HW
LayerCount: 2
Fore
SplineSet
155 507 m 2
 142 523 138 535 141 550 c 0
 144 562 151 575 164 594 c 2
 185 624 l 1
 220 635 l 2
 241 642 257 646 269 646 c 0
 286 646 297 638 307 620 c 0
 316 603 320 589 317 575 c 0
 313 557 299 539 272 517 c 2
 229 482 l 1
 201 482 l 1
 175 482 l 1
 155 507 l 2
111 207 m 2
 90 215 l 1
 88 241 l 2
 88 249 89 256 90 263 c 0
 95 285 109 304 139 331 c 2
 171 359 l 1
 197 359 l 1
 222 359 l 1
 242 334 l 1
 263 309 l 1
 255 274 l 1
 248 240 l 1
 226 224 l 2
 207 211 171 202 142 202 c 0
 130 202 119 204 111 207 c 2
EndSplineSet
EndChar

StartChar: semicolon
Encoding: 59 59 26
Width: 319
Flags: HW
LayerCount: 2
Fore
SplineSet
197 117 m 0
 186 126 175 145 173 158 c 2
 169 182 l 1
 183 207 l 2
 191 220 213 237 230 244 c 2
 263 256 l 1
 285 244 l 2
 314 228 317 215 309 176 c 2
 302 143 l 1
 272 122 l 2
 251 108 238 101 227 101 c 0
 217 101 210 107 197 117 c 0
34 -279 m 0
 7 -268 -11 -238 -12 -206 c 2
 -12 -179 l 1
 13 -155 l 1
 37 -130 l 1
 77 -130 l 1
 116 -130 l 1
 127 -96 l 1
 138 -62 l 1
 118 -32 l 2
 104 -11 99 -1 102 11 c 0
 104 19 109 29 119 44 c 2
 137 70 l 1
 173 81 l 1
 209 92 l 1
 229 80 l 2
 250 68 271 -3 271 -63 c 2
 271 -99 l 1
 250 -140 l 2
 212 -214 155 -262 74 -282 c 0
 70 -283 66 -283 61 -283 c 0
 51 -283 40 -282 34 -279 c 0
EndSplineSet
EndChar

StartChar: less
Encoding: 60 60 27
Width: 627
Flags: HW
LayerCount: 2
Fore
SplineSet
366 130 m 0
 217 145 134 179 97 237 c 2
 78 268 l 1
 84 295 l 1
 89 322 l 1
 150 371 l 2
 184 398 267 452 337 493 c 0
 472 572 548 623 607 670 c 0
 626 686 655 703 669 708 c 2
 695 717 l 1
 717 708 l 2
 741 698 748 678 740 642 c 2
 736 621 l 1
 665 564 l 2
 625 533 515 460 421 404 c 2
 249 302 l 1
 263 291 l 2
 276 279 316 272 447 261 c 2
 525 254 l 1
 547 234 l 1
 567 214 l 1
 562 189 l 2
 559 176 545 154 532 143 c 2
 507 123 l 1
 455 125 l 2
 425 126 385 128 366 130 c 0
EndSplineSet
EndChar

StartChar: equal
Encoding: 61 61 28
Width: 814
Flags: HW
LayerCount: 2
Fore
SplineSet
158 464 m 1
 136 484 l 1
 142 512 l 1
 148 541 l 1
 179 565 l 1
 211 590 l 1
 399 593 l 2
 421 593 443 593 464 593 c 0
 638 593 758 582 796 560 c 2
 825 544 l 1
 817 510 l 1
 810 475 l 1
 785 457 l 1
 761 438 l 1
 673 451 l 2
 616 458 501 462 398 462 c 0
 306 462 225 459 207 453 c 2
 179 442 l 1
 158 464 l 1
110 289 m 1
 89 310 l 1
 94 335 l 2
 97 348 111 369 123 379 c 2
 147 398 l 1
 366 406 l 2
 456 409 562 411 639 411 c 0
 667 411 692 411 710 410 c 2
 834 406 l 1
 851 386 l 1
 869 367 l 1
 863 339 l 2
 860 324 848 305 836 296 c 2
 815 280 l 1
 474 273 l 1
 133 268 l 1
 110 289 l 1
EndSplineSet
EndChar

StartChar: greater
Encoding: 62 62 29
Width: 709
Flags: HW
LayerCount: 2
Fore
SplineSet
208 126 m 2
 195 142 191 161 195 178 c 0
 197 187 200 195 206 203 c 0
 214 214 289 258 373 300 c 0
 457 342 536 384 549 392 c 2
 573 408 l 1
 554 414 l 2
 544 418 488 443 433 470 c 0
 339 515 264 543 197 557 c 2
 170 562 l 1
 163 592 l 1
 154 621 l 1
 180 652 l 2
 194 669 217 687 231 690 c 2
 256 696 l 1
 348 659 l 2
 399 639 484 604 536 579 c 0
 588 554 661 522 698 507 c 2
 766 479 l 1
 772 450 l 1
 777 419 l 1
 766 394 l 2
 760 381 739 359 721 347 c 0
 656 303 287 120 254 115 c 2
 221 110 l 1
 208 126 l 2
EndSplineSet
EndChar

StartChar: question
Encoding: 63 63 30
Width: 567
Flags: HW
LayerCount: 2
Fore
SplineSet
376 126 m 2
 329 150 315 169 309 224 c 2
 303 274 l 1
 321 308 l 2
 331 327 378 385 422 437 c 2
 501 531 l 1
 523 583 l 2
 535 611 548 643 550 653 c 2
 554 673 l 1
 524 699 l 1
 494 727 l 1
 444 720 l 1
 394 713 l 1
 355 679 l 2
 315 644 280 585 269 534 c 2
 262 503 l 1
 239 485 l 2
 225 474 209 468 195 468 c 0
 168 468 147 489 143 524 c 2
 140 559 l 1
 162 608 l 2
 229 755 330 835 475 853 c 2
 530 860 l 1
 579 836 l 2
 639 805 678 757 684 708 c 2
 689 671 l 1
 660 595 l 2
 625 499 605 466 511 360 c 2
 435 274 l 1
 445 259 l 2
 450 251 468 244 483 244 c 0
 520 244 539 219 531 181 c 2
 525 152 l 1
 498 136 l 2
 483 128 457 119 440 116 c 2
 409 111 l 1
 376 126 l 2
315 -67 m 0
 308 -64 291 -51 281 -40 c 2
 263 -19 l 1
 269 10 l 1
 276 40 l 1
 306 65 l 2
 325 81 343 89 358 89 c 0
 371 89 382 83 394 72 c 2
 412 53 l 1
 411 12 l 1
 407 -30 l 1
 374 -52 l 2
 352 -67 343 -73 334 -73 c 0
 329 -73 323 -70 315 -67 c 0
EndSplineSet
EndChar

StartChar: at
Encoding: 64 64 31
Width: 969
Flags: HW
LayerCount: 2
Fore
SplineSet
294 18 m 0
 252 31 193 69 162 102 c 0
 119 149 101 208 103 305 c 2
 104 391 l 1
 126 463 l 1
 148 535 l 1
 208 615 l 1
 268 696 l 1
 356 762 l 1
 443 828 l 1
 524 864 l 1
 603 900 l 1
 685 910 l 1
 766 922 l 1
 810 914 l 2
 835 910 890 890 930 868 c 2
 1004 829 l 1
 1041 778 l 1
 1078 728 l 1
 1080 683 l 1
 1083 638 l 1
 1065 584 l 1
 1048 529 l 1
 1010 482 l 2
 955 413 875 351 791 314 c 2
 718 283 l 1
 681 289 l 2
 662 292 633 304 620 315 c 2
 597 337 l 1
 537 301 l 2
 478 266 428 248 387 248 c 0
 357 248 333 257 313 276 c 0
 282 305 272 352 284 407 c 0
 289 430 297 455 310 481 c 2
 328 519 l 1
 384 569 l 1
 441 621 l 1
 496 642 l 2
 527 654 574 668 601 671 c 2
 648 677 l 1
 692 664 l 1
 736 650 l 1
 764 617 l 1
 793 585 l 1
 788 559 l 2
 785 545 774 520 764 503 c 0
 756 489 747 467 744 452 c 0
 743 449 743 445 743 443 c 2
 742 417 l 1
 800 453 l 2
 832 472 874 507 895 531 c 2
 934 574 l 1
 942 613 l 1
 951 652 l 1
 929 685 l 1
 909 718 l 1
 844 753 l 1
 779 788 l 1
 703 782 l 1
 626 775 l 1
 557 746 l 1
 489 718 l 1
 413 657 l 1
 339 597 l 1
 302 546 l 1
 267 495 l 1
 247 401 l 1
 229 309 l 1
 242 258 l 1
 257 208 l 1
 295 179 l 1
 334 150 l 1
 375 144 l 1
 417 140 l 1
 565 171 l 1
 715 203 l 1
 762 231 l 2
 788 246 822 269 840 279 c 2
 874 297 l 1
 900 283 l 1
 925 269 l 1
 920 232 l 1
 917 196 l 1
 879 166 l 2
 860 150 813 120 776 103 c 2
 709 72 l 1
 627 55 l 2
 582 46 515 33 477 25 c 0
 434 16 391 11 356 11 c 0
 331 11 310 13 294 18 c 0
493 412 m 0
 529 435 615 518 618 532 c 0
 619 538 611 540 598 540 c 0
 580 540 554 536 531 527 c 0
 511 519 479 498 460 480 c 2
 426 447 l 1
 419 412 l 1
 411 376 l 1
 434 383 l 2
 447 387 476 401 493 412 c 0
EndSplineSet
EndChar

StartChar: A
Encoding: 65 65 32
Width: 688
VWidth: 1036
Flags: HW
LayerCount: 2
Fore
SplineSet
69 25 m 0
 48 36 35 74 41 102 c 0
 43 111 59 132 77 149 c 0
 116 186 227 343 248 388 c 0
 255 404 270 425 280 434 c 0
 305 457 411 621 488 756 c 2
 552 869 l 1
 576 886 l 1
 602 905 l 1
 636 905 l 1
 671 905 l 1
 679 871 l 2
 688 829 703 346 697 224 c 2
 693 133 l 1
 668 106 l 1
 643 80 l 1
 616 77 l 1
 590 74 l 1
 574 100 l 1
 560 126 l 1
 564 229 l 1
 567 331 l 1
 489 329 l 2
 446 328 397 325 381 322 c 2
 352 316 l 1
 293 234 l 2
 259 189 213 126 190 93 c 2
 146 32 l 1
 119 23 l 2
 104 18 91 14 90 14 c 0
 89 14 80 19 69 25 c 0
559 471 m 0
 560 475 558 512 556 551 c 2
 553 623 l 1
 537 597 l 2
 528 583 507 550 489 522 c 0
 471 494 455 470 455 468 c 0
 455 466 478 464 507 464 c 0
 536 464 558 467 559 471 c 0
EndSplineSet
EndChar

StartChar: B
Encoding: 66 66 33
Width: 710
VWidth: 1111
Flags: HW
LayerCount: 2
Fore
SplineSet
105 32 m 1
 83 53 l 1
 88 74 l 2
 91 86 100 103 110 112 c 2
 128 128 l 1
 137 236 l 2
 142 295 160 423 177 518 c 0
 211 709 215 742 199 776 c 2
 188 799 l 1
 221 845 l 2
 239 871 262 896 272 901 c 0
 281 905 316 908 356 908 c 0
 362 908 368 908 374 908 c 2
 457 906 l 1
 518 872 l 2
 594 830 630 791 643 738 c 2
 653 697 l 1
 633 657 l 2
 622 634 590 593 565 563 c 0
 541 535 521 511 520 508 c 0
 520 507 535 502 565 492 c 0
 627 470 705 407 731 358 c 2
 753 315 l 1
 747 285 l 2
 718 147 445 11 199 11 c 2
 128 11 l 1
 105 32 l 1
367 160 m 0
 421 168 559 227 591 255 c 2
 615 277 l 1
 601 297 l 2
 593 308 561 334 528 350 c 2
 471 380 l 1
 406 386 l 2
 389 387 371 388 355 388 c 0
 337 388 321 387 313 385 c 2
 284 378 l 1
 277 315 l 2
 273 280 269 227 269 197 c 2
 268 143 l 1
 295 148 l 2
 311 151 343 156 367 160 c 0
402 573 m 0
 438 601 476 638 490 655 c 2
 516 687 l 1
 494 711 l 2
 469 740 423 767 382 775 c 2
 352 781 l 1
 333 665 l 2
 323 602 313 543 314 536 c 0
 314 528 317 524 323 524 c 0
 335 524 359 539 402 573 c 0
EndSplineSet
EndChar

StartChar: C
Encoding: 67 67 34
Width: 763
VWidth: 1135
Flags: HW
LayerCount: 2
Fore
SplineSet
476 -11 m 0
 252 23 150 131 121 360 c 2
 112 425 l 1
 126 489 l 2
 151 612 206 694 318 780 c 2
 386 833 l 1
 479 873 l 1
 570 913 l 1
 637 924 l 2
 664 929 690 931 714 931 c 0
 814 931 885 892 900 825 c 2
 907 792 l 1
 892 766 l 2
 879 742 848 725 824 725 c 0
 820 725 816 726 812 727 c 0
 805 730 787 746 777 763 c 2
 758 794 l 1
 692 795 l 1
 627 796 l 1
 578 782 l 2
 456 745 331 657 289 581 c 2
 269 543 l 1
 260 474 l 1
 249 404 l 1
 267 334 l 2
 277 295 294 250 303 232 c 2
 321 199 l 1
 378 167 l 2
 409 150 463 131 497 125 c 2
 558 113 l 1
 593 129 l 2
 613 138 644 146 660 146 c 2
 688 146 l 1
 701 120 l 1
 712 94 l 1
 696 66 l 1
 681 38 l 1
 630 16 l 2
 587 -4 544 -13 506 -13 c 0
 495 -13 486 -13 476 -11 c 0
EndSplineSet
EndChar

StartChar: D
Encoding: 68 68 35
Width: 782
VWidth: 1120
Flags: HW
LayerCount: 2
Fore
SplineSet
153 7 m 2
 110 13 l 1
 96 34 l 1
 85 56 l 1
 117 264 l 2
 135 379 161 532 177 606 c 2
 205 739 l 1
 194 758 l 2
 188 771 186 785 189 799 c 0
 192 815 202 833 220 850 c 0
 258 888 297 904 371 911 c 2
 435 917 l 1
 550 892 l 1
 664 868 l 1
 714 840 l 2
 814 784 879 662 869 552 c 2
 864 500 l 1
 840 445 l 2
 827 415 791 358 763 319 c 2
 712 247 l 1
 628 178 l 1
 544 108 l 1
 450 69 l 2
 369 35 293 13 217 2 c 0
 215 2 211 1 207 1 c 0
 193 1 172 4 153 7 c 2
385 172 m 2
 476 205 l 1
 551 267 l 1
 625 329 l 1
 666 386 l 1
 706 444 l 1
 725 500 l 1
 743 555 l 1
 730 596 l 2
 716 640 666 702 625 726 c 0
 612 734 554 750 499 762 c 2
 397 785 l 1
 370 778 l 1
 342 772 l 1
 294 514 l 2
 268 373 244 231 241 198 c 2
 235 140 l 1
 265 140 l 2
 281 140 335 154 385 172 c 2
EndSplineSet
EndChar

StartChar: E
Encoding: 69 69 36
Width: 753
VWidth: 1126
Flags: HW
LayerCount: 2
Fore
SplineSet
117 12 m 1
 83 28 l 1
 76 54 l 1
 70 79 l 1
 103 236 l 1
 137 394 l 1
 125 424 l 1
 115 456 l 1
 139 490 l 1
 163 524 l 1
 194 657 l 2
 196 667 198 677 200 686 c 0
 213 748 221 799 220 808 c 2
 216 827 l 1
 233 852 l 1
 251 878 l 1
 285 891 l 1
 322 905 l 1
 478 914 l 2
 563 919 691 923 764 923 c 2
 897 923 l 1
 907 903 l 2
 913 892 914 869 911 854 c 2
 905 827 l 1
 879 810 l 1
 852 795 l 1
 765 795 l 2
 717 795 605 790 519 783 c 2
 362 770 l 1
 352 749 l 2
 347 738 332 685 321 633 c 2
 300 538 l 1
 361 546 l 2
 395 550 446 553 476 553 c 2
 532 554 l 1
 546 530 l 2
 555 514 559 501 556 487 c 0
 553 473 543 460 528 448 c 2
 506 428 l 1
 434 422 l 2
 394 418 341 412 316 409 c 2
 272 403 l 1
 242 265 l 1
 213 126 l 1
 278 133 l 2
 314 136 407 142 486 146 c 2
 629 153 l 1
 646 135 l 1
 662 116 l 1
 655 86 l 1
 649 58 l 1
 625 38 l 1
 599 19 l 1
 468 13 l 2
 395 10 295 4 243 1 c 2
 150 -5 l 1
 117 12 l 1
EndSplineSet
EndChar

StartChar: F
Encoding: 70 70 37
Width: 723
VWidth: 1138
Flags: HW
LayerCount: 2
Fore
SplineSet
56 -6 m 0
 45 0 36 14 35 23 c 0
 34 41 44 105 62 190 c 0
 102 378 177 670 222 804 c 2
 239 854 l 1
 272 884 l 1
 306 915 l 1
 395 924 l 2
 444 929 569 934 671 934 c 2
 859 934 l 1
 874 914 l 2
 884 901 889 888 886 874 c 0
 883 860 873 846 858 831 c 2
 832 806 l 1
 595 801 l 2
 464 798 356 794 352 791 c 0
 348 788 329 720 307 639 c 2
 268 493 l 1
 417 500 l 1
 568 506 l 1
 581 485 l 2
 589 474 594 451 591 436 c 2
 585 408 l 1
 559 391 l 1
 534 373 l 1
 384 366 l 1
 234 359 l 1
 201 200 l 1
 167 41 l 1
 130 12 l 2
 106 -8 95 -16 84 -16 c 0
 76 -16 69 -12 56 -6 c 0
EndSplineSet
EndChar

StartChar: G
Encoding: 71 71 38
Width: 1052
VWidth: 1150
Flags: HW
LayerCount: 2
Fore
SplineSet
484 -22 m 0
 350 -5 232 47 171 120 c 2
 132 164 l 1
 118 220 l 2
 110 250 104 306 105 345 c 2
 108 415 l 1
 132 497 l 2
 157 583 197 663 248 723 c 0
 306 793 436 867 585 914 c 2
 657 936 l 1
 755 940 l 1
 853 946 l 1
 911 934 l 2
 985 920 1022 900 1068 849 c 0
 1112 801 1127 762 1118 712 c 2
 1112 676 l 1
 1091 660 l 2
 1079 650 1061 645 1044 645 c 0
 1028 645 1012 650 1005 659 c 0
 999 667 989 690 984 708 c 0
 979 726 956 756 936 773 c 2
 900 803 l 1
 796 808 l 1
 690 812 l 1
 626 795 l 2
 475 754 376 699 320 622 c 2
 282 570 l 1
 257 452 l 1
 233 334 l 1
 243 288 l 2
 262 211 317 162 423 129 c 2
 482 112 l 1
 589 111 l 1
 696 110 l 1
 758 136 l 1
 819 162 l 1
 863 201 l 2
 907 241 958 311 964 338 c 2
 968 353 l 1
 897 347 l 2
 858 344 790 333 743 324 c 2
 657 308 l 1
 636 327 l 1
 614 347 l 1
 620 375 l 1
 626 404 l 1
 655 422 l 2
 694 447 831 473 951 480 c 2
 1046 486 l 1
 1069 468 l 2
 1081 459 1097 433 1101 413 c 2
 1108 376 l 1
 1090 325 l 2
 1066 253 1008 175 934 109 c 2
 871 53 l 1
 802 23 l 2
 724 -10 645 -27 563 -27 c 0
 537 -27 510 -25 484 -22 c 0
EndSplineSet
EndChar

StartChar: H
Encoding: 72 72 39
Width: 757
VWidth: 1160
Flags: HW
LayerCount: 2
Fore
SplineSet
57 -20 m 2
 44 -3 l 1
 65 120 l 2
 91 281 160 633 196 804 c 0
 207 858 216 894 218 900 c 0
 224 913 243 931 258 940 c 2
 286 957 l 1
 307 950 l 2
 317 946 331 936 337 928 c 2
 350 913 l 1
 309 722 l 1
 269 533 l 1
 320 540 l 2
 348 544 443 556 532 565 c 2
 693 581 l 1
 732 734 l 1
 770 886 l 1
 803 910 l 2
 824 926 839 934 851 934 c 0
 862 934 871 927 883 915 c 2
 904 895 l 1
 860 708 l 2
 857 692 854 675 850 657 c 0
 828 554 803 416 789 323 c 2
 760 127 l 1
 742 110 l 2
 732 101 713 89 701 85 c 2
 679 77 l 1
 658 87 l 2
 629 101 628 136 646 253 c 0
 655 309 663 377 666 403 c 2
 669 449 l 1
 585 441 l 2
 465 430 247 402 241 397 c 1
 241 397 240 394 239 391 c 0
 236 375 230 328 224 276 c 0
 216 204 208 148 199 106 c 0
 190 64 179 35 168 15 c 0
 149 -18 118 -38 92 -38 c 0
 78 -38 65 -32 57 -20 c 2
EndSplineSet
EndChar

StartChar: I
Encoding: 73 73 40
Width: 860
VWidth: 1074
Flags: HW
LayerCount: 2
Fore
SplineSet
69 55 m 0
 52 63 46 84 51 108 c 0
 53 116 55 125 60 133 c 2
 72 154 l 1
 110 169 l 1
 147 184 l 1
 261 184 l 1
 376 184 l 1
 380 237 l 2
 383 267 406 388 432 508 c 2
 478 726 l 1
 352 726 l 1
 226 726 l 1
 212 739 l 2
 204 746 197 761 193 772 c 2
 187 791 l 1
 202 814 l 2
 211 826 230 841 244 847 c 2
 272 860 l 1
 407 861 l 2
 482 862 621 864 718 868 c 0
 760 870 802 871 837 871 c 0
 881 871 914 869 924 867 c 0
 957 859 971 833 965 806 c 0
 961 789 950 771 929 757 c 2
 897 737 l 1
 756 737 l 1
 614 737 l 1
 569 528 l 2
 545 413 520 291 517 256 c 2
 511 193 l 1
 525 198 l 2
 533 201 607 206 689 210 c 2
 838 217 l 1
 854 195 l 2
 863 183 870 161 867 148 c 2
 862 123 l 1
 831 102 l 1
 798 81 l 1
 747 81 l 2
 718 81 603 74 487 66 c 0
 319 54 208 49 142 49 c 0
 101 49 78 51 69 55 c 0
EndSplineSet
EndChar

StartChar: J
Encoding: 74 74 41
Width: 847
VWidth: 1114
Flags: HW
LayerCount: 2
Fore
SplineSet
964 910 m 1
 987 889 l 1
 1008 869 l 1
 982 795 l 1
 969 786 l 2
 962 781 897 775 827 773 c 2
 699 769 l 1
 693 734 l 2
 690 715 678 641 667 570 c 2
 647 442 l 1
 608 335 l 1
 569 229 l 1
 530 171 l 2
 469 80 423 49 314 21 c 0
 281 13 252 9 228 9 c 0
 211 9 195 11 185 15 c 0
 132 38 94 110 106 168 c 2
 112 198 l 1
 134 215 l 2
 148 226 163 231 178 231 c 0
 208 231 234 210 235 177 c 2
 235 151 l 1
 260 144 l 1
 285 138 l 1
 336 157 l 1
 388 177 l 1
 412 207 l 2
 426 224 455 282 475 335 c 2
 512 432 l 1
 534 565 l 2
 547 639 556 713 554 729 c 2
 551 759 l 1
 501 759 l 2
 473 759 401 756 340 751 c 2
 229 742 l 1
 207 768 l 2
 194 785 188 797 191 810 c 0
 193 821 202 832 217 847 c 2
 241 871 l 1
 371 883 l 2
 442 890 605 899 733 903 c 2
 964 910 l 1
EndSplineSet
EndChar

StartChar: K
Encoding: 75 75 42
Width: 729
VWidth: 1075
Flags: HW
LayerCount: 2
Fore
SplineSet
247 861 m 1
 248 860 l 1
 290 866 l 1
 333 871 l 1
 348 843 l 1
 365 815 l 1
 341 696 l 2
 327 630 317 569 319 560 c 2
 322 543 l 1
 552 681 l 2
 678 757 791 824 804 828 c 2
 827 836 l 1
 849 824 l 1
 870 811 l 1
 866 778 l 1
 863 744 l 1
 834 718 l 2
 818 704 775 676 740 656 c 0
 705 636 592 567 490 506 c 2
 304 394 l 1
 324 376 l 2
 335 366 377 341 418 322 c 0
 645 212 707 178 715 164 c 0
 720 155 721 134 718 119 c 2
 712 91 l 1
 684 74 l 1
 654 58 l 1
 628 65 l 2
 614 69 525 111 431 158 c 0
 340 204 262 240 256 240 c 1
 256 240 255 240 254 235 c 0
 252 227 252 211 252 192 c 0
 253 167 249 130 245 110 c 2
 237 72 l 1
 220 60 l 2
 208 52 192 48 178 48 c 0
 160 48 143 54 133 67 c 2
 117 86 l 1
 117 157 l 2
 117 196 122 248 127 273 c 2
 137 318 l 1
 115 338 l 2
 102 351 95 364 98 378 c 0
 101 392 112 406 132 425 c 2
 164 455 l 1
 192 621 l 1
 222 787 l 1
 221 786 l 1
 247 861 l 1
EndSplineSet
EndChar

StartChar: L
Encoding: 76 76 43
Width: 775
VWidth: 1125
Flags: HW
LayerCount: 2
Fore
SplineSet
77 12 m 2
 65 20 50 42 47 59 c 2
 40 91 l 1
 114 405 l 2
 155 578 197 753 209 796 c 2
 232 874 l 1
 256 897 l 1
 279 922 l 1
 312 922 l 1
 346 922 l 1
 356 903 l 1
 366 882 l 1
 340 785 l 2
 307 662 226 322 198 192 c 0
 191 160 188 140 189 140 c 0
 192 140 276 152 377 166 c 0
 478 180 601 196 651 199 c 2
 742 204 l 1
 765 187 l 1
 787 170 l 1
 781 141 l 1
 775 111 l 1
 743 90 l 1
 710 68 l 1
 653 68 l 2
 621 68 550 62 495 53 c 0
 440 44 346 30 285 22 c 0
 224 14 156 5 136 2 c 2
 99 -4 l 1
 77 12 l 2
EndSplineSet
EndChar

StartChar: M
Encoding: 77 77 44
Width: 775
VWidth: 1130
Flags: HW
LayerCount: 2
Fore
SplineSet
650 6 m 2
 632 21 l 1
 636 85 l 2
 639 157 678 440 705 580 c 2
 723 672 l 1
 655 596 l 2
 617 555 562 495 531 461 c 2
 475 400 l 1
 436 383 l 1
 399 367 l 1
 371 374 l 1
 343 381 l 1
 304 435 l 1
 266 488 l 1
 264 452 l 2
 260 382 231 175 216 104 c 0
 214 93 212 85 210 82 c 0
 203 68 187 52 173 46 c 2
 146 34 l 1
 126 42 l 2
 100 52 91 84 96 133 c 0
 120 379 149 600 169 693 c 2
 193 806 l 1
 215 824 l 2
 227 833 253 841 269 841 c 2
 300 841 l 1
 316 817 l 2
 325 804 332 785 330 776 c 0
 323 742 401 524 420 524 c 0
 424 524 480 580 543 649 c 0
 752 877 771 897 801 912 c 2
 831 927 l 1
 855 915 l 2
 868 908 881 890 883 876 c 0
 885 862 867 725 840 573 c 0
 813 421 782 236 773 162 c 2
 758 28 l 1
 731 10 l 2
 713 -2 698 -8 685 -8 c 0
 673 -8 662 -3 650 6 c 2
EndSplineSet
EndChar

StartChar: N
Encoding: 78 78 45
Width: 742
VWidth: 1118
Flags: HW
LayerCount: 2
Fore
SplineSet
67 13 m 0
 56 18 44 27 41 34 c 0
 39 40 67 185 107 371 c 0
 113 399 119 428 125 458 c 2
 215 868 l 1
 234 891 l 1
 254 914 l 1
 284 914 l 2
 332 914 343 903 359 848 c 0
 391 739 613 305 635 305 c 0
 636 305 636 306 636 307 c 0
 641 330 687 738 688 765 c 2
 688 797 l 1
 717 825 l 1
 744 852 l 1
 773 852 l 2
 788 852 806 845 813 835 c 2
 826 817 l 1
 811 668 l 2
 803 586 792 480 787 431 c 0
 782 382 769 284 757 214 c 2
 737 89 l 1
 720 66 l 2
 710 54 690 38 676 33 c 2
 648 24 l 1
 626 35 l 2
 613 41 594 66 584 89 c 0
 574 112 534 183 497 248 c 0
 430 363 331 545 308 596 c 2
 297 622 l 1
 250 403 l 2
 224 282 193 152 181 113 c 2
 159 42 l 1
 129 23 l 2
 110 10 102 5 93 5 c 0
 86 5 79 8 67 13 c 0
EndSplineSet
EndChar

StartChar: O
Encoding: 79 79 46
Width: 877
VWidth: 1089
Flags: HW
LayerCount: 2
Fore
SplineSet
293 50 m 2
 240 66 l 1
 186 130 l 1
 130 194 l 1
 110 264 l 1
 91 333 l 1
 108 410 l 1
 126 488 l 1
 163 553 l 2
 216 646 245 686 304 740 c 0
 398 826 526 883 627 885 c 0
 635 885 646 885 659 885 c 0
 690 885 729 885 762 884 c 2
 843 881 l 1
 882 840 l 1
 920 800 l 1
 944 719 l 1
 969 639 l 1
 966 577 l 1
 962 514 l 1
 935 450 l 2
 899 365 884 342 818 264 c 0
 719 146 616 79 488 47 c 0
 452 38 422 34 393 34 c 0
 360 34 329 39 293 50 c 2
515 182 m 2
 574 199 l 1
 642 256 l 2
 680 288 730 339 753 370 c 2
 794 425 l 1
 817 507 l 1
 838 589 l 1
 823 635 l 2
 816 661 793 697 773 714 c 2
 738 746 l 1
 664 753 l 1
 591 760 l 1
 529 739 l 2
 414 699 336 625 269 493 c 0
 253 462 238 422 234 405 c 0
 219 336 276 221 344 181 c 0
 362 171 386 166 415 166 c 0
 444 166 479 171 515 182 c 2
EndSplineSet
EndChar

StartChar: P
Encoding: 80 80 47
Width: 752
VWidth: 1117
Flags: HW
LayerCount: 2
Fore
SplineSet
111 20 m 0
 104 29 94 47 91 59 c 2
 84 80 l 1
 112 254 l 2
 128 349 155 492 171 569 c 2
 199 708 l 1
 187 720 l 2
 180 727 178 748 181 764 c 2
 188 795 l 1
 239 835 l 1
 292 874 l 1
 319 874 l 2
 334 874 362 879 378 885 c 0
 394 891 429 900 456 905 c 2
 504 914 l 1
 595 900 l 2
 787 870 889 774 863 650 c 2
 854 608 l 1
 819 559 l 2
 800 531 756 488 723 463 c 2
 664 418 l 1
 588 396 l 2
 483 364 394 343 321 335 c 2
 261 328 l 1
 239 209 l 2
 227 143 221 82 223 73 c 2
 227 56 l 1
 194 30 l 2
 173 13 156 4 141 4 c 0
 129 4 119 10 111 20 c 0
477 495 m 0
 616 529 641 540 692 592 c 2
 726 627 l 1
 729 655 l 1
 732 682 l 1
 702 712 l 1
 673 741 l 1
 615 756 l 2
 577 766 528 771 483 771 c 0
 445 771 411 767 389 760 c 2
 354 748 l 1
 339 709 l 2
 334 697 328 674 322 646 c 0
 317 622 313 594 309 568 c 2
 295 464 l 1
 322 464 l 2
 337 464 408 479 477 495 c 0
EndSplineSet
EndChar

StartChar: Q
Encoding: 81 81 48
Width: 1171
VWidth: 1095
Flags: HW
LayerCount: 2
Fore
SplineSet
859 49 m 2
 822 60 781 76 766 85 c 2
 738 101 l 1
 682 79 l 2
 608 52 534 39 458 39 c 0
 410 39 362 44 313 55 c 0
 226 73 192 95 154 153 c 0
 120 205 106 285 114 389 c 2
 120 469 l 1
 146 538 l 1
 174 607 l 1
 215 655 l 2
 275 726 378 800 472 842 c 2
 554 879 l 1
 612 884 l 1
 670 890 l 1
 724 878 l 2
 786 863 860 820 868 795 c 0
 871 786 896 765 925 750 c 0
 1016 700 1055 629 1053 512 c 2
 1053 449 l 1
 1028 395 l 2
 1001 333 944 248 908 217 c 0
 895 206 883 192 882 189 c 0
 879 177 974 163 1048 163 c 0
 1055 163 1061 163 1067 163 c 2
 1146 166 l 1
 1160 141 l 1
 1173 115 l 1
 1163 93 l 2
 1157 81 1138 63 1123 54 c 2
 1095 37 l 1
 1010 32 l 1
 925 28 l 1
 859 49 l 2
614 186 m 0
 619 190 613 198 603 204 c 0
 593 210 574 230 560 248 c 2
 533 282 l 1
 538 305 l 2
 545 337 581 366 613 366 c 2
 639 366 l 1
 699 315 l 2
 732 286 765 264 772 264 c 0
 792 264 861 335 888 384 c 0
 904 414 914 434 918 454 c 0
 922 471 921 488 920 511 c 0
 915 590 860 638 752 663 c 0
 675 680 660 688 656 724 c 2
 652 755 l 1
 609 755 l 1
 566 755 l 1
 505 727 l 2
 471 712 412 673 373 642 c 2
 303 586 l 1
 283 545 l 2
 271 520 261 492 255 462 c 0
 235 368 245 262 284 219 c 0
 293 209 323 193 352 186 c 2
 402 171 l 1
 503 175 l 2
 558 177 609 182 614 186 c 0
EndSplineSet
EndChar

StartChar: R
Encoding: 82 82 49
Width: 623
VWidth: 1102
Flags: HW
LayerCount: 2
Fore
SplineSet
68 26 m 0
 57 30 46 39 43 46 c 0
 41 52 67 186 103 357 c 0
 109 383 114 410 120 437 c 2
 202 816 l 1
 222 843 l 2
 233 858 256 877 271 884 c 2
 300 898 l 1
 344 893 l 2
 382 889 449 863 581 805 c 0
 601 797 626 773 638 755 c 2
 661 721 l 1
 669 654 l 1
 674 585 l 1
 654 543 l 1
 633 501 l 1
 588 464 l 2
 562 444 487 403 420 372 c 2
 299 317 l 1
 316 300 l 2
 325 291 388 258 455 225 c 0
 581 164 627 124 619 87 c 0
 613 60 573 25 547 25 c 0
 529 25 358 108 256 167 c 2
 205 197 l 1
 185 135 l 2
 161 58 129 21 92 21 c 0
 84 21 76 23 68 26 c 0
394 494 m 2
 519 552 l 1
 530 588 l 1
 541 624 l 1
 527 656 l 1
 514 688 l 1
 470 700 l 2
 445 706 401 723 373 736 c 2
 323 761 l 1
 288 597 l 2
 269 507 257 435 261 435 c 0
 265 435 326 461 394 494 c 2
EndSplineSet
EndChar

StartChar: S
Encoding: 83 83 50
Width: 695
VWidth: 1103
Flags: HW
LayerCount: 2
Fore
SplineSet
257 34 m 0
 163 52 150 55 121 86 c 2
 97 112 l 1
 102 137 l 2
 109 168 149 202 178 202 c 0
 189 202 208 197 219 191 c 0
 254 171 353 152 438 152 c 2
 519 152 l 1
 547 164 l 2
 561 171 578 182 581 189 c 0
 581 191 583 192 583 194 c 0
 588 216 552 245 499 260 c 0
 429 280 303 333 262 360 c 0
 245 371 216 396 198 416 c 2
 167 453 l 1
 153 509 l 1
 140 566 l 1
 158 621 l 2
 198 742 295 824 462 877 c 2
 530 898 l 1
 581 898 l 2
 683 898 741 849 734 766 c 2
 732 727 l 1
 705 705 l 1
 678 682 l 1
 651 686 l 1
 623 689 l 1
 607 729 l 1
 589 767 l 1
 537 763 l 1
 485 759 l 1
 429 735 l 2
 343 696 294 652 284 604 c 0
 278 577 285 549 303 521 c 0
 329 480 388 447 528 398 c 0
 654 354 684 332 706 279 c 2
 720 242 l 1
 711 192 l 1
 701 141 l 1
 674 113 l 2
 639 76 579 41 530 28 c 0
 508 22 472 19 431 19 c 0
 374 19 308 25 257 34 c 0
EndSplineSet
EndChar

StartChar: T
Encoding: 84 84 51
Width: 874
VWidth: 1072
Flags: HW
LayerCount: 2
Fore
SplineSet
447 60 m 0
 436 66 424 83 421 97 c 2
 414 123 l 1
 440 242 l 2
 451 294 462 343 472 388 c 0
 509 562 529 670 525 679 c 2
 521 691 l 1
 395 676 l 2
 343 670 290 667 259 667 c 0
 248 667 241 667 236 668 c 0
 193 676 170 709 177 740 c 0
 180 754 189 767 204 778 c 2
 225 793 l 1
 396 808 l 2
 490 817 571 829 575 834 c 0
 579 839 597 850 610 857 c 2
 635 868 l 1
 667 851 l 1
 699 834 l 1
 790 837 l 2
 819 838 852 839 880 839 c 0
 900 839 918 838 929 838 c 2
 978 837 l 1
 996 811 l 2
 1007 797 1016 779 1014 770 c 0
 1012 761 996 743 979 729 c 2
 950 704 l 1
 805 704 l 1
 660 704 l 1
 658 660 l 2
 657 636 631 499 601 356 c 2
 545 96 l 1
 513 72 l 2
 492 57 483 50 473 50 c 0
 466 50 459 54 447 60 c 0
EndSplineSet
EndChar

StartChar: U
Encoding: 85 85 52
Width: 648
VWidth: 1071
Flags: HW
LayerCount: 2
Fore
SplineSet
184 75 m 0
 124 109 93 161 86 233 c 2
 81 289 l 1
 110 397 l 2
 156 571 260 800 314 850 c 0
 327 862 343 868 359 868 c 0
 376 868 392 861 400 849 c 0
 408 837 410 821 406 801 c 0
 401 778 390 750 368 714 c 0
 321 634 279 527 244 398 c 2
 214 286 l 1
 220 254 l 2
 223 237 237 213 251 202 c 2
 276 182 l 1
 317 192 l 2
 374 206 453 267 498 328 c 0
 552 402 588 498 623 654 c 2
 655 790 l 1
 678 808 l 2
 693 820 708 826 723 826 c 0
 756 826 783 798 780 756 c 0
 779 753 779 746 777 738 c 0
 771 708 756 650 740 591 c 2
 704 454 l 1
 666 377 l 2
 616 276 558 204 481 146 c 0
 406 89 378 76 304 61 c 0
 272 55 256 51 243 51 c 0
 226 51 214 58 184 75 c 0
EndSplineSet
EndChar

StartChar: V
Encoding: 86 86 53
Width: 712
VWidth: 1108
Flags: HW
LayerCount: 2
Fore
SplineSet
337 19 m 0
 310 29 307 37 259 193 c 0
 216 334 196 450 199 551 c 0
 200 582 197 651 194 703 c 2
 188 797 l 1
 210 823 l 1
 232 848 l 1
 258 848 l 2
 320 848 332 813 333 625 c 0
 334 483 343 410 370 318 c 2
 390 249 l 1
 398 265 l 2
 403 273 427 317 452 362 c 0
 500 449 534 508 668 725 c 2
 753 863 l 1
 786 883 l 1
 818 905 l 1
 842 889 l 1
 867 873 l 1
 862 839 l 1
 859 804 l 1
 789 691 l 2
 715 571 622 417 572 331 c 0
 556 302 519 233 492 175 c 0
 438 60 402 14 361 14 c 0
 353 14 345 16 337 19 c 0
EndSplineSet
EndChar

StartChar: W
Encoding: 87 87 54
Width: 1081
VWidth: 1104
Flags: HW
LayerCount: 2
Fore
SplineSet
275 31 m 0
 245 47 224 114 227 172 c 0
 231 239 212 520 196 628 c 2
 183 720 l 1
 191 783 l 1
 200 845 l 1
 226 862 l 2
 243 873 258 878 270 878 c 0
 285 878 298 870 311 853 c 2
 332 828 l 1
 325 794 l 2
 321 776 322 722 329 674 c 0
 344 570 367 274 362 250 c 0
 360 241 364 234 369 234 c 0
 380 234 498 356 501 371 c 0
 505 389 592 456 622 463 c 2
 650 470 l 1
 673 449 l 1
 695 427 l 1
 700 372 l 2
 702 341 711 299 719 275 c 2
 735 233 l 1
 813 374 l 2
 926 575 1066 801 1107 847 c 2
 1140 886 l 1
 1170 893 l 1
 1199 900 l 1
 1220 884 l 1
 1241 868 l 1
 1235 837 l 2
 1232 821 1208 783 1186 753 c 0
 1115 661 926 338 831 148 c 0
 810 104 779 56 766 43 c 2
 741 19 l 1
 708 19 l 1
 674 19 l 1
 656 36 l 2
 647 46 628 92 614 137 c 0
 600 182 583 229 579 241 c 2
 572 265 l 1
 515 206 l 2
 483 174 435 125 407 96 c 0
 364 52 321 20 303 19 c 0
 300 19 288 24 275 31 c 0
EndSplineSet
EndChar

StartChar: X
Encoding: 88 88 55
Width: 800
VWidth: 1093
Flags: HW
LayerCount: 2
Fore
SplineSet
652 83 m 0
 623 113 587 149 573 162 c 0
 559 175 522 216 492 253 c 0
 463 289 437 316 433 316 c 0
 432 316 433 316 337 209 c 0
 287 153 235 99 222 89 c 0
 205 77 190 72 176 72 c 0
 145 72 123 99 132 140 c 2
 138 171 l 1
 170 201 l 2
 212 241 367 420 369 431 c 0
 372 444 278 605 228 675 c 2
 187 735 l 1
 187 764 l 1
 188 795 l 1
 221 818 l 1
 255 840 l 1
 278 834 l 2
 306 828 327 801 414 657 c 0
 445 605 471 563 473 563 c 0
 475 563 490 579 508 601 c 0
 591 703 729 856 750 872 c 0
 765 883 783 888 797 888 c 0
 829 888 852 864 844 826 c 2
 838 801 l 1
 754 706 l 2
 708 654 640 574 603 529 c 2
 536 447 l 1
 572 392 l 2
 591 361 649 294 699 243 c 0
 793 149 806 129 798 93 c 0
 793 71 740 30 717 30 c 0
 710 30 681 53 652 83 c 0
EndSplineSet
EndChar

StartChar: Y
Encoding: 89 89 56
Width: 639
VWidth: 1214
Flags: HW
LayerCount: 2
Fore
SplineSet
295 38 m 2
 271 68 l 1
 285 132 l 2
 293 168 305 246 312 304 c 2
 325 410 l 1
 314 427 l 2
 305 441 225 641 193 728 c 2
 181 762 l 1
 194 790 l 2
 201 805 219 825 235 834 c 2
 265 851 l 1
 287 840 l 2
 299 834 315 811 323 788 c 0
 384 625 405 582 408 582 c 0
 410 582 435 603 465 630 c 0
 591 744 696 817 733 817 c 0
 763 817 783 787 776 754 c 2
 771 727 l 1
 620 603 l 1
 469 478 l 1
 459 400 l 2
 454 357 439 261 427 187 c 2
 404 52 l 1
 372 31 l 2
 351 17 339 10 329 10 c 0
 318 10 310 19 295 38 c 2
EndSplineSet
EndChar

StartChar: Z
Encoding: 90 90 57
Width: 821
VWidth: 1046
Flags: HW
LayerCount: 2
Fore
SplineSet
53 37 m 1
 31 57 l 1
 36 80 l 2
 45 117 69 141 190 230 c 0
 253 277 400 391 515 483 c 2
 724 652 l 1
 470 649 l 1
 216 646 l 1
 200 663 l 1
 184 681 l 1
 190 710 l 1
 196 740 l 1
 228 762 l 1
 259 783 l 1
 552 783 l 1
 845 782 l 1
 883 764 l 1
 921 744 l 1
 927 714 l 1
 934 682 l 1
 913 654 l 2
 903 639 840 584 773 534 c 0
 706 484 578 383 487 310 c 2
 324 178 l 1
 358 183 l 2
 436 195 513 210 584 224 c 0
 625 232 690 240 730 240 c 2
 803 240 l 1
 822 224 l 1
 841 209 l 1
 835 180 l 2
 832 165 819 143 810 133 c 2
 793 115 l 1
 686 106 l 2
 627 102 536 89 486 78 c 0
 436 67 372 54 342 51 c 0
 236 39 121 23 98 19 c 2
 75 15 l 1
 53 37 l 1
EndSplineSet
EndChar

StartChar: bracketleft
Encoding: 91 91 58
Width: 395
Flags: HW
LayerCount: 2
Fore
SplineSet
96 -10 m 0
 81 -6 64 7 60 18 c 2
 54 40 l 1
 84 226 l 2
 101 328 130 482 148 568 c 2
 181 725 l 1
 210 750 l 2
 243 777 329 804 413 813 c 2
 468 819 l 1
 488 796 l 1
 508 772 l 1
 502 744 l 1
 496 717 l 1
 471 697 l 1
 445 678 l 1
 375 673 l 1
 307 668 l 1
 262 452 l 2
 238 333 216 210 213 177 c 2
 207 117 l 1
 281 123 l 2
 302 125 319 126 332 126 c 0
 368 126 377 118 384 92 c 2
 390 70 l 1
 374 44 l 2
 366 30 347 12 333 5 c 0
 310 -6 221 -15 157 -15 c 0
 130 -15 108 -13 96 -10 c 0
EndSplineSet
EndChar

StartChar: backslash
Encoding: 92 92 59
Width: 707
Flags: HW
LayerCount: 2
Fore
SplineSet
591 -3 m 2
 567 11 l 1
 500 141 l 2
 463 213 399 332 358 406 c 0
 234 625 192 705 187 734 c 2
 183 762 l 1
 204 786 l 2
 223 809 240 819 260 819 c 0
 266 819 272 818 280 816 c 2
 302 810 l 1
 373 680 l 2
 412 608 463 512 489 467 c 0
 579 309 701 67 698 52 c 0
 693 28 658 -6 634 -12 c 0
 632 -13 629 -13 626 -13 c 0
 615 -13 601 -9 591 -3 c 2
EndSplineSet
EndChar

StartChar: bracketright
Encoding: 93 93 60
Width: 387
Flags: HW
LayerCount: 2
Fore
SplineSet
123 -22 m 0
 75 -14 61 -3 57 25 c 2
 54 46 l 1
 69 69 l 2
 77 81 99 96 116 103 c 2
 149 116 l 1
 199 110 l 1
 250 103 l 1
 275 249 l 2
 289 329 311 460 324 540 c 2
 347 684 l 1
 310 680 l 2
 289 677 257 673 242 671 c 2
 213 666 l 1
 192 691 l 2
 179 707 173 719 176 731 c 0
 178 741 186 751 199 765 c 2
 219 787 l 1
 275 804 l 2
 306 812 362 819 401 819 c 2
 471 819 l 1
 485 801 l 1
 501 781 l 1
 466 583 l 2
 447 473 419 308 403 215 c 2
 376 46 l 1
 359 17 l 2
 351 2 335 -15 324 -20 c 0
 312 -26 273 -29 230 -29 c 0
 193 -29 152 -27 123 -22 c 0
EndSplineSet
EndChar

StartChar: asciicircum
Encoding: 94 94 61
Width: 528
Flags: HW
LayerCount: 2
Fore
SplineSet
169 447 m 0
 138 458 125 480 131 509 c 0
 135 527 147 547 164 568 c 0
 201 612 434 798 470 810 c 2
 497 819 l 1
 524 807 l 2
 539 801 557 781 565 764 c 0
 577 739 605 609 613 530 c 2
 614 514 l 1
 583 485 l 1
 553 457 l 1
 528 464 l 2
 489 474 472 505 464 584 c 2
 456 654 l 1
 437 645 l 2
 416 635 277 517 247 484 c 0
 227 461 198 446 178 446 c 0
 175 446 172 446 169 447 c 0
EndSplineSet
EndChar

StartChar: underscore
Encoding: 95 95 62
Width: 967
Flags: HW
LayerCount: 2
Fore
SplineSet
56 -55 m 0
 48 -52 37 -37 33 -24 c 2
 25 0 l 1
 45 28 l 2
 56 43 74 59 85 64 c 0
 96 69 281 74 496 76 c 2
 888 79 l 1
 915 63 l 1
 944 47 l 1
 945 23 l 2
 945 18 945 13 944 8 c 0
 938 -19 914 -45 889 -50 c 0
 867 -55 519 -58 280 -58 c 0
 157 -58 62 -57 56 -55 c 0
EndSplineSet
EndChar

StartChar: grave
Encoding: 96 96 63
Width: 285
Flags: HW
LayerCount: 2
Fore
SplineSet
287 545 m 0
 255 559 198 650 186 702 c 2
 180 737 l 1
 192 766 l 2
 208 802 230 819 264 819 c 0
 295 819 326 791 320 765 c 0
 318 755 332 719 354 685 c 2
 392 625 l 1
 385 594 l 2
 377 558 351 537 320 537 c 0
 309 537 298 540 287 545 c 0
EndSplineSet
EndChar

StartChar: a
Encoding: 97 97 64
Width: 644
VWidth: 737
Flags: HW
LayerCount: 2
Fore
SplineSet
157 15 m 0
 121 37 87 78 69 121 c 2
 54 156 l 1
 69 228 l 1
 85 300 l 1
 116 348 l 2
 179 442 320 527 432 538 c 2
 487 544 l 1
 550 519 l 1
 614 495 l 1
 624 473 l 1
 635 451 l 1
 594 337 l 2
 572 275 551 209 548 193 c 2
 542 163 l 1
 579 169 l 1
 616 175 l 1
 632 157 l 1
 649 138 l 1
 644 111 l 1
 637 82 l 1
 595 51 l 2
 572 34 539 17 521 13 c 2
 488 7 l 1
 461 24 l 2
 446 33 429 51 423 65 c 2
 410 90 l 1
 361 54 l 2
 310 18 261 -1 218 -1 c 0
 195 -1 175 4 157 15 c 0
304 158 m 0
 349 190 443 321 455 368 c 2
 464 402 l 1
 435 406 l 2
 432 406 430 407 426 407 c 0
 382 407 317 379 268 338 c 2
 222 299 l 1
 205 248 l 1
 187 197 l 1
 208 164 l 2
 222 143 233 133 249 133 c 0
 263 133 280 141 304 158 c 0
EndSplineSet
EndChar

StartChar: b
Encoding: 98 98 65
Width: 653
VWidth: 896
Flags: HW
LayerCount: 2
Fore
SplineSet
141 22 m 2
 111 48 109 70 115 204 c 0
 126 415 140 557 163 664 c 0
 173 711 184 751 198 788 c 2
 217 839 l 1
 238 853 l 2
 252 861 267 866 281 866 c 0
 295 866 309 861 320 852 c 2
 338 838 l 1
 302 670 l 1
 267 503 l 1
 282 505 l 2
 290 506 330 518 369 530 c 2
 439 553 l 1
 519 541 l 1
 598 528 l 1
 641 506 l 2
 691 477 710 443 705 387 c 2
 701 344 l 1
 678 296 l 2
 618 173 542 99 416 46 c 2
 337 12 l 1
 249 8 l 1
 161 5 l 1
 141 22 l 2
367 157 m 2
 420 173 l 1
 473 216 l 1
 525 260 l 1
 549 317 l 1
 576 376 l 1
 568 385 l 2
 558 398 486 413 432 413 c 0
 422 413 411 412 403 411 c 2
 353 403 l 1
 304 374 l 1
 256 343 l 1
 257 315 l 2
 257 300 256 270 254 247 c 0
 252 224 250 191 249 173 c 2
 247 139 l 1
 280 139 l 2
 298 139 337 148 367 157 c 2
EndSplineSet
EndChar

StartChar: c
Encoding: 99 99 66
Width: 610
VWidth: 785
Flags: HW
LayerCount: 2
Fore
SplineSet
195 17 m 2
 158 28 l 1
 122 73 l 2
 101 98 79 137 73 161 c 2
 64 205 l 1
 76 261 l 2
 93 335 114 370 189 450 c 2
 251 515 l 1
 313 543 l 1
 374 569 l 1
 436 575 l 1
 498 581 l 1
 566 559 l 1
 632 538 l 1
 656 501 l 1
 682 465 l 1
 674 429 l 1
 667 393 l 1
 635 368 l 2
 614 351 597 343 582 343 c 0
 560 343 545 360 534 393 c 2
 522 432 l 1
 484 438 l 2
 460 442 441 444 423 444 c 0
 396 444 374 439 350 429 c 2
 312 413 l 1
 264 357 l 1
 217 303 l 1
 209 264 l 1
 201 225 l 1
 213 197 l 2
 232 156 253 139 311 139 c 0
 339 139 376 143 424 150 c 0
 454 154 486 156 507 156 c 0
 517 156 524 156 528 155 c 2
 550 148 l 1
 553 127 l 2
 553 119 554 112 552 104 c 0
 547 79 529 55 507 44 c 0
 459 21 367 7 289 7 c 0
 252 7 220 10 195 17 c 2
EndSplineSet
EndChar

StartChar: d
Encoding: 100 100 67
Width: 751
VWidth: 900
Flags: HW
LayerCount: 2
Fore
SplineSet
201 8 m 0
 131 25 92 65 71 139 c 2
 59 182 l 1
 68 226 l 2
 81 285 122 368 176 445 c 2
 221 510 l 1
 271 546 l 1
 322 583 l 1
 376 598 l 2
 410 607 446 612 478 612 c 0
 503 612 525 609 541 603 c 2
 565 593 l 1
 576 621 l 2
 602 683 662 794 685 828 c 2
 710 864 l 1
 748 867 l 1
 787 870 l 1
 799 844 l 1
 811 817 l 1
 791 759 l 2
 780 726 757 668 741 629 c 0
 713 562 646 350 625 262 c 2
 615 223 l 1
 630 207 l 1
 642 189 l 1
 666 207 l 2
 680 218 696 224 710 224 c 0
 726 224 739 217 750 203 c 2
 766 181 l 1
 753 148 l 1
 741 117 l 1
 704 88 l 1
 667 60 l 1
 623 60 l 1
 580 60 l 1
 544 85 l 1
 508 110 l 1
 458 70 l 1
 407 31 l 1
 349 14 l 2
 315 4 287 0 261 0 c 0
 241 0 222 3 201 8 c 0
393 168 m 2
 412 183 440 211 453 229 c 2
 475 263 l 1
 495 357 l 1
 515 452 l 1
 499 466 l 2
 490 473 465 479 439 479 c 2
 393 480 l 1
 355 459 l 1
 316 438 l 1
 273 375 l 2
 250 340 222 290 213 264 c 2
 197 217 l 1
 206 184 l 2
 217 148 238 134 286 134 c 0
 292 134 301 135 308 135 c 2
 358 139 l 1
 393 168 l 2
EndSplineSet
EndChar

StartChar: e
Encoding: 101 101 68
Width: 660
VWidth: 806
Flags: HW
LayerCount: 2
Fore
SplineSet
240 18 m 0
 156 42 102 112 88 215 c 2
 79 275 l 1
 98 342 l 1
 116 409 l 1
 150 458 l 2
 191 514 257 565 334 600 c 2
 386 624 l 1
 493 624 l 1
 601 624 l 1
 632 602 l 2
 649 591 668 565 674 546 c 2
 686 511 l 1
 668 456 l 1
 651 401 l 1
 617 366 l 2
 551 298 487 274 319 256 c 2
 217 245 l 1
 232 209 l 2
 241 190 265 165 285 154 c 2
 319 133 l 1
 390 146 l 2
 428 153 492 173 530 189 c 0
 575 208 606 218 627 218 c 0
 644 218 655 212 663 200 c 0
 671 187 673 173 670 159 c 0
 667 147 661 134 649 121 c 0
 619 89 496 37 403 19 c 0
 354 10 329 5 307 5 c 0
 286 5 269 10 240 18 c 0
457 406 m 0
 477 412 505 423 517 432 c 2
 538 449 l 1
 540 469 l 1
 541 490 l 1
 481 494 l 2
 476 494 471 494 465 494 c 0
 434 494 398 490 380 485 c 0
 337 473 255 415 250 393 c 2
 247 381 l 1
 332 387 l 2
 379 391 437 400 457 406 c 0
EndSplineSet
EndChar

StartChar: f
Encoding: 102 102 69
Width: 803
VWidth: 901
Flags: HW
LayerCount: 2
Fore
SplineSet
110 -230 m 0
 29 -203 -13 -152 -15 -83 c 0
 -16 -46 21 46 50 76 c 0
 83 111 145 146 173 146 c 0
 202 146 230 113 224 85 c 2
 219 63 l 1
 179 32 l 1
 138 1 l 1
 125 -31 l 1
 112 -62 l 1
 125 -79 l 2
 143 -101 175 -114 213 -114 c 0
 253 -114 323 -78 347 -46 c 2
 366 -21 l 1
 398 127 l 2
 415 208 427 277 425 280 c 0
 416 291 285 264 233 240 c 0
 203 226 172 216 162 216 c 0
 138 216 119 248 125 277 c 0
 137 335 210 375 354 402 c 2
 441 418 l 1
 445 479 l 2
 452 587 501 694 569 754 c 0
 680 852 902 836 985 725 c 2
 1006 697 l 1
 1002 654 l 1
 997 611 l 1
 966 576 l 2
 929 534 866 496 836 496 c 0
 807 496 788 525 795 559 c 2
 800 587 l 1
 831 612 l 2
 848 626 862 640 863 644 c 0
 866 657 806 684 761 690 c 2
 719 695 l 1
 681 683 l 1
 643 671 l 1
 617 633 l 1
 591 596 l 1
 582 522 l 2
 577 482 575 443 578 437 c 2
 582 426 l 1
 730 402 l 1
 877 378 l 1
 893 360 l 2
 902 350 907 332 904 319 c 0
 898 290 857 256 829 256 c 0
 812 256 675 274 582 289 c 2
 563 292 l 1
 527 121 l 1
 490 -49 l 1
 453 -100 l 2
 413 -155 360 -193 286 -224 c 2
 239 -244 l 1
 194 -243 l 2
 169 -243 131 -237 110 -230 c 0
EndSplineSet
EndChar

StartChar: g
Encoding: 103 103 70
Width: 718
VWidth: 947
Flags: HW
LayerCount: 2
Fore
SplineSet
185 -390 m 2
 134 -369 112 -330 119 -296 c 0
 124 -271 146 -248 183 -237 c 2
 204 -229 l 1
 236 -252 l 1
 268 -274 l 1
 336 -270 l 1
 404 -266 l 1
 440 -233 l 2
 459 -216 483 -185 494 -163 c 0
 515 -121 567 51 583 128 c 0
 586 143 588 155 588 161 c 2
 588 189 l 1
 515 133 l 1
 442 77 l 1
 360 40 l 1
 278 4 l 1
 222 4 l 1
 167 5 l 1
 130 24 l 2
 67 56 43 108 59 182 c 0
 67 220 85 264 115 314 c 2
 150 373 l 1
 212 429 l 1
 275 484 l 1
 333 510 l 2
 366 523 420 541 454 547 c 2
 515 559 l 1
 569 547 l 2
 599 541 632 526 643 516 c 2
 663 498 l 1
 704 503 l 1
 745 508 l 1
 760 486 l 1
 776 464 l 1
 745 283 l 1
 713 101 l 1
 678 -18 l 1
 642 -139 l 1
 609 -201 l 2
 591 -235 560 -281 540 -303 c 2
 503 -343 l 1
 445 -371 l 1
 388 -399 l 1
 306 -402 l 1
 223 -406 l 1
 185 -390 l 2
333 159 m 2
 429 204 545 300 569 353 c 2
 580 378 l 1
 544 401 l 2
 521 416 507 423 487 423 c 0
 470 423 448 418 414 409 c 2
 356 392 l 1
 314 360 l 2
 263 322 221 268 200 210 c 2
 185 168 l 1
 194 153 l 1
 203 137 l 1
 245 137 l 1
 287 137 l 1
 333 159 l 2
EndSplineSet
EndChar

StartChar: h
Encoding: 104 104 71
Width: 771
VWidth: 950
Flags: HW
LayerCount: 2
Fore
SplineSet
122 3 m 0
 72 21 69 76 108 298 c 0
 123 382 143 514 153 590 c 0
 161 646 173 714 184 765 c 0
 188 784 191 800 195 813 c 2
 218 899 l 1
 243 926 l 2
 256 940 277 957 286 962 c 2
 304 972 l 1
 330 965 l 2
 343 961 359 949 362 937 c 2
 368 914 l 1
 347 869 l 1
 324 823 l 1
 303 693 l 2
 292 621 278 536 275 501 c 2
 268 438 l 1
 339 478 l 2
 378 500 434 527 467 538 c 2
 528 559 l 1
 580 559 l 2
 609 559 654 551 682 543 c 2
 734 527 l 1
 771 486 l 1
 809 446 l 1
 815 398 l 2
 819 368 819 346 812 315 c 0
 805 284 792 244 769 182 c 2
 732 83 l 1
 711 66 l 2
 692 49 673 41 656 41 c 0
 635 41 618 54 610 78 c 2
 603 97 l 1
 641 199 l 1
 680 300 l 1
 680 337 l 1
 681 374 l 1
 655 395 l 1
 630 418 l 1
 571 423 l 1
 513 428 l 1
 447 399 l 2
 411 383 349 344 308 313 c 2
 235 257 l 1
 217 148 l 1
 203 40 l 1
 180 25 l 2
 156 8 144 1 133 1 c 0
 129 1 126 1 122 3 c 0
EndSplineSet
EndChar

StartChar: i
Encoding: 105 105 72
Width: 444
VWidth: 846
Flags: HW
LayerCount: 2
Fore
SplineSet
239 536 m 0
 223 543 206 560 203 574 c 2
 198 600 l 1
 209 627 l 2
 216 642 236 666 252 679 c 2
 281 703 l 1
 316 703 l 1
 351 703 l 1
 368 680 l 2
 379 665 384 650 380 633 c 0
 376 616 363 596 342 571 c 0
 316 540 297 527 275 527 c 0
 264 527 253 530 239 536 c 0
111 24 m 0
 77 42 63 69 58 126 c 2
 54 167 l 1
 81 242 l 2
 110 321 186 444 219 466 c 0
 232 474 245 478 257 478 c 0
 288 478 311 452 303 415 c 0
 300 401 281 362 260 327 c 0
 239 292 213 240 202 209 c 2
 185 154 l 1
 195 145 l 2
 199 142 206 140 214 140 c 0
 242 140 287 159 332 191 c 2
 389 232 l 1
 413 232 l 2
 444 232 463 202 455 165 c 2
 448 134 l 1
 403 97 l 2
 377 77 330 48 297 34 c 2
 238 7 l 1
 188 7 l 2
 161 7 127 15 111 24 c 0
EndSplineSet
EndChar

StartChar: j
Encoding: 106 106 73
Width: 528
VWidth: 1018
Flags: HW
LayerCount: 2
Fore
SplineSet
458 732 m 0
 429 745 413 782 422 822 c 2
 429 857 l 1
 472 892 l 1
 513 927 l 1
 562 927 l 1
 610 927 l 1
 633 897 l 1
 656 867 l 1
 650 837 l 1
 644 807 l 1
 616 778 l 2
 582 744 536 725 496 725 c 0
 482 725 470 727 458 732 c 0
94 -165 m 2
 79 -157 53 -134 41 -112 c 2
 17 -73 l 1
 21 -29 l 1
 22 16 l 1
 46 37 l 1
 67 56 l 1
 94 56 l 2
 130 56 139 47 152 0 c 2
 162 -41 l 1
 197 -38 l 2
 215 -37 251 -23 277 -9 c 2
 324 16 l 1
 344 49 l 2
 355 67 377 115 390 154 c 2
 416 225 l 1
 429 332 l 1
 441 437 l 1
 433 488 l 2
 427 520 426 544 430 563 c 0
 434 582 443 596 460 610 c 2
 485 631 l 1
 511 628 l 1
 539 625 l 1
 554 590 l 2
 577 540 581 468 564 332 c 2
 548 213 l 1
 513 124 l 2
 472 16 431 -45 373 -88 c 0
 317 -129 228 -167 169 -174 c 2
 122 -179 l 1
 94 -165 l 2
EndSplineSet
EndChar

StartChar: k
Encoding: 107 107 74
Width: 588
VWidth: 911
Flags: HW
LayerCount: 2
Fore
SplineSet
79 8 m 2
 68 13 54 27 50 40 c 2
 41 63 l 1
 78 243 l 2
 82 260 86 281 90 302 c 0
 111 402 143 538 165 633 c 2
 215 844 l 1
 237 867 l 1
 261 891 l 1
 294 891 l 1
 327 891 l 1
 339 871 l 1
 349 852 l 1
 301 652 l 2
 286 593 273 535 263 489 c 0
 254 449 249 419 248 406 c 2
 245 357 l 1
 326 392 l 2
 408 426 546 468 575 468 c 0
 583 468 600 460 610 450 c 2
 630 431 l 1
 623 402 l 2
 614 362 592 349 509 326 c 0
 429 304 302 254 300 244 c 0
 299 240 325 228 358 218 c 0
 391 208 454 183 495 161 c 2
 571 121 l 1
 575 94 l 1
 579 68 l 1
 564 45 l 2
 546 20 529 8 505 8 c 0
 482 8 453 19 409 42 c 0
 332 82 271 105 218 115 c 2
 182 122 l 1
 174 83 l 2
 164 38 155 25 122 10 c 2
 99 0 l 1
 79 8 l 2
EndSplineSet
EndChar

StartChar: l
Encoding: 108 108 75
Width: 498
VWidth: 921
Flags: HW
LayerCount: 2
Fore
SplineSet
152 20 m 2
 110 46 84 92 75 163 c 2
 69 219 l 1
 98 352 l 1
 126 485 l 1
 161 569 l 2
 180 615 215 688 238 731 c 0
 261 774 285 824 288 840 c 2
 294 869 l 1
 319 891 l 1
 345 912 l 1
 375 909 l 1
 406 905 l 1
 422 878 l 1
 437 850 l 1
 386 755 l 2
 299 587 269 509 236 388 c 2
 204 270 l 1
 209 212 l 1
 213 154 l 1
 231 143 l 2
 244 135 259 131 276 131 c 0
 311 131 351 148 393 180 c 2
 427 206 l 1
 460 203 l 1
 494 199 l 1
 500 175 l 1
 507 151 l 1
 491 121 l 2
 471 85 414 44 350 18 c 2
 301 -1 l 1
 244 0 l 1
 185 0 l 1
 152 20 l 2
EndSplineSet
EndChar

StartChar: m
Encoding: 109 109 76
Width: 872
VWidth: 782
Flags: HW
LayerCount: 2
Fore
SplineSet
84 17 m 2
 74 21 59 34 53 43 c 2
 43 60 l 1
 59 155 l 1
 75 249 l 1
 120 380 l 2
 145 453 175 525 186 541 c 2
 207 570 l 1
 233 577 l 2
 239 579 245 579 251 579 c 0
 287 579 302 549 292 501 c 0
 290 493 288 483 285 474 c 2
 273 440 l 1
 331 468 l 2
 363 483 410 500 435 504 c 2
 479 510 l 1
 513 493 l 2
 531 484 550 466 555 456 c 2
 564 436 l 1
 624 465 l 1
 685 493 l 1
 754 497 l 1
 823 501 l 1
 862 478 l 1
 901 457 l 1
 911 409 l 1
 923 361 l 1
 900 284 l 2
 888 241 860 173 838 131 c 2
 798 55 l 1
 766 34 l 1
 733 13 l 1
 710 35 l 1
 686 55 l 1
 696 100 l 2
 702 125 721 172 737 205 c 2
 767 264 l 1
 774 312 l 1
 782 360 l 1
 735 364 l 1
 690 367 l 1
 638 336 l 1
 587 306 l 1
 555 236 l 2
 537 197 507 144 490 117 c 2
 459 69 l 1
 431 56 l 1
 402 45 l 1
 379 56 l 1
 356 68 l 1
 355 95 l 1
 354 123 l 1
 382 170 l 2
 398 196 417 237 424 262 c 0
 431 287 440 314 444 321 c 0
 445 322 446 324 446 326 c 0
 448 334 446 346 440 356 c 2
 426 379 l 1
 383 360 l 2
 343 343 306 316 233 248 c 2
 204 221 l 1
 186 137 l 2
 167 48 160 36 125 20 c 2
 102 9 l 1
 84 17 l 2
EndSplineSet
EndChar

StartChar: n
Encoding: 110 110 77
Width: 521
VWidth: 789
Flags: HW
LayerCount: 2
Fore
SplineSet
57 22 m 0
 48 33 43 60 43 80 c 0
 43 91 47 114 54 145 c 0
 71 224 105 355 139 469 c 2
 164 552 l 1
 181 568 l 1
 200 586 l 1
 234 586 l 1
 267 586 l 1
 278 562 l 1
 290 540 l 1
 280 495 l 1
 271 450 l 1
 290 458 l 2
 354 483 392 493 424 493 c 2
 459 494 l 1
 500 470 l 1
 542 447 l 1
 556 399 l 1
 571 352 l 1
 532 249 l 2
 511 193 482 130 470 110 c 2
 448 73 l 1
 423 65 l 1
 397 55 l 1
 371 70 l 2
 353 80 346 91 352 121 c 0
 357 146 371 183 397 245 c 2
 433 329 l 1
 422 344 l 2
 417 352 404 360 393 360 c 0
 359 360 288 322 246 282 c 2
 207 243 l 1
 184 138 l 1
 162 34 l 1
 135 17 l 2
 119 7 104 2 92 2 c 0
 78 2 67 9 57 22 c 0
EndSplineSet
EndChar

StartChar: o
Encoding: 111 111 78
Width: 638
VWidth: 796
Flags: HW
LayerCount: 2
Fore
SplineSet
215 11 m 2
 112 52 72 114 77 230 c 0
 78 256 80 279 85 301 c 0
 95 346 113 385 147 434 c 2
 186 489 l 1
 252 527 l 1
 319 565 l 1
 380 579 l 1
 440 593 l 1
 499 575 l 2
 568 555 645 502 665 460 c 0
 673 444 682 413 684 391 c 2
 688 351 l 1
 673 312 l 2
 649 244 595 162 544 111 c 2
 495 62 l 1
 437 34 l 1
 379 5 l 1
 319 0 l 1
 257 -5 l 1
 215 11 l 2
398 152 m 2
 449 175 l 1
 499 243 l 1
 547 311 l 1
 548 347 l 1
 548 383 l 1
 527 390 l 2
 516 394 493 409 480 421 c 0
 456 443 437 452 412 452 c 0
 399 452 385 449 368 445 c 2
 322 434 l 1
 279 400 l 1
 234 366 l 1
 221 297 l 2
 214 259 210 216 214 200 c 2
 219 171 l 1
 258 150 l 2
 282 137 301 130 322 130 c 0
 344 130 366 137 398 152 c 2
EndSplineSet
EndChar

StartChar: p
Encoding: 112 112 79
Width: 683
Flags: HW
LayerCount: 2
Fore
SplineSet
-22 -346 m 0
 -30 -339 -37 -324 -40 -315 c 2
 -45 -298 l 1
 -4 -136 l 2
 19 -47 68 120 105 236 c 2
 171 445 l 1
 191 472 l 2
 211 498 235 512 257 512 c 0
 271 512 284 507 294 495 c 2
 309 478 l 1
 364 489 l 2
 400 497 434 501 469 501 c 0
 541 501 610 484 664 450 c 2
 702 425 l 1
 716 379 l 1
 729 333 l 1
 716 302 l 2
 685 226 595 132 509 85 c 0
 444 48 341 20 250 13 c 2
 171 7 l 1
 149 -60 l 2
 138 -97 121 -164 112 -208 c 2
 95 -288 l 1
 74 -316 l 2
 63 -332 42 -349 28 -352 c 0
 13 -355 5 -357 -1 -357 c 0
 -9 -357 -14 -354 -22 -346 c 0
387 164 m 0
 442 177 497 213 549 266 c 2
 593 311 l 1
 574 330 l 2
 564 340 539 353 516 359 c 2
 476 371 l 1
 412 366 l 1
 348 360 l 1
 312 342 l 1
 276 323 l 1
 259 287 l 2
 250 268 235 227 224 196 c 2
 206 140 l 1
 276 147 l 2
 315 151 366 159 387 164 c 0
EndSplineSet
EndChar

StartChar: q
Encoding: 113 113 80
Width: 612
VWidth: 934
Flags: HW
LayerCount: 2
Fore
SplineSet
355 -399 m 0
 348 -396 335 -387 327 -379 c 2
 312 -364 l 1
 323 -311 l 2
 329 -282 357 -189 383 -105 c 0
 409 -21 432 53 433 60 c 2
 436 73 l 1
 377 40 l 1
 315 7 l 1
 253 7 l 1
 192 8 l 1
 154 31 l 2
 108 59 82 103 73 171 c 2
 67 221 l 1
 85 273 l 2
 106 334 151 406 189 440 c 0
 229 475 315 513 385 525 c 2
 445 536 l 1
 506 524 l 2
 541 518 590 501 616 486 c 2
 664 459 l 1
 669 434 l 1
 675 411 l 1
 650 350 l 2
 636 317 601 203 574 100 c 0
 547 -3 513 -120 500 -159 c 0
 487 -198 468 -254 461 -285 c 0
 444 -358 411 -402 373 -402 c 0
 367 -402 361 -401 355 -399 c 0
329 151 m 0
 347 159 376 181 394 199 c 0
 435 240 500 341 506 369 c 0
 506 371 506 373 506 374 c 2
 504 388 l 1
 460 395 l 2
 444 398 428 399 413 399 c 0
 319 399 245 352 218 271 c 2
 204 232 l 1
 209 197 l 1
 213 161 l 1
 236 148 l 2
 250 140 263 136 276 136 c 0
 291 136 308 141 329 151 c 0
EndSplineSet
EndChar

StartChar: r
Encoding: 114 114 81
Width: 515
VWidth: 762
Flags: HW
LayerCount: 2
Fore
SplineSet
74 16 m 2
 63 21 52 35 48 46 c 2
 41 67 l 1
 87 280 l 1
 132 493 l 1
 153 516 l 1
 173 539 l 1
 207 539 l 2
 247 539 260 522 258 474 c 2
 255 438 l 1
 336 469 l 1
 414 500 l 1
 483 505 l 1
 551 510 l 1
 570 488 l 1
 586 467 l 1
 580 436 l 1
 573 406 l 1
 548 391 l 2
 534 383 494 375 459 372 c 2
 397 366 l 1
 345 343 l 2
 316 331 277 309 256 296 c 2
 218 271 l 1
 197 172 l 1
 175 72 l 1
 153 49 l 2
 141 37 125 22 115 17 c 2
 95 8 l 1
 74 16 l 2
EndSplineSet
EndChar

StartChar: s
Encoding: 115 115 82
Width: 494
VWidth: 817
Flags: HW
LayerCount: 2
Fore
SplineSet
156 16 m 0
 119 32 103 57 109 87 c 2
 115 114 l 1
 138 132 l 1
 161 150 l 1
 219 143 l 1
 279 136 l 1
 319 155 l 2
 340 165 360 179 361 185 c 0
 365 204 280 278 227 301 c 0
 158 331 125 360 118 400 c 0
 113 420 114 440 118 459 c 0
 127 500 155 540 203 582 c 0
 251 624 296 642 352 643 c 2
 402 643 l 1
 425 623 l 2
 443 606 450 584 445 562 c 0
 440 539 423 516 397 501 c 2
 368 484 l 1
 335 498 l 1
 302 510 l 1
 278 492 l 2
 264 481 255 472 253 464 c 0
 250 451 265 440 301 424 c 0
 331 411 389 371 430 334 c 2
 507 267 l 1
 509 229 l 1
 510 190 l 1
 485 148 l 1
 459 106 l 1
 409 71 l 1
 359 35 l 1
 306 19 l 2
 274 10 243 6 217 6 c 0
 193 6 173 9 156 16 c 0
EndSplineSet
EndChar

StartChar: t
Encoding: 116 116 83
Width: 617
VWidth: 859
Flags: HW
LayerCount: 2
Fore
SplineSet
328 30 m 2
 307 40 277 69 259 96 c 2
 227 143 l 1
 222 223 l 2
 220 266 227 352 236 412 c 2
 251 522 l 1
 212 522 l 1
 174 522 l 1
 161 538 l 2
 155 546 149 562 147 573 c 2
 145 595 l 1
 167 620 l 1
 188 644 l 1
 227 650 l 2
 250 653 275 657 283 658 c 2
 299 660 l 1
 308 691 l 2
 332 770 359 799 406 799 c 2
 435 799 l 1
 446 776 l 1
 457 753 l 1
 447 706 l 1
 437 658 l 1
 504 651 l 2
 541 647 591 645 616 645 c 0
 641 645 673 638 687 630 c 2
 713 613 l 1
 714 590 l 2
 714 585 714 580 713 575 c 0
 707 548 684 523 656 516 c 0
 649 514 628 513 601 513 c 0
 574 513 541 514 507 516 c 2
 386 523 l 1
 369 413 l 2
 360 353 353 278 355 249 c 2
 360 197 l 1
 384 170 l 1
 410 143 l 1
 441 143 l 2
 457 143 488 151 507 160 c 2
 541 176 l 1
 563 165 l 2
 575 159 589 142 592 128 c 2
 598 101 l 1
 572 74 l 2
 558 59 528 38 507 29 c 2
 468 11 l 1
 417 10 l 1
 366 10 l 1
 328 30 l 2
EndSplineSet
EndChar

StartChar: u
Encoding: 117 117 84
Width: 526
VWidth: 783
Flags: HW
LayerCount: 2
Fore
SplineSet
361 -104 m 0
 328 -89 312 -52 313 6 c 2
 314 44 l 1
 281 28 l 2
 255 16 231 11 208 11 c 0
 143 11 90 56 71 136 c 2
 61 182 l 1
 79 269 l 1
 98 356 l 1
 127 408 l 1
 155 459 l 1
 184 473 l 1
 214 487 l 1
 239 480 l 1
 266 474 l 1
 270 447 l 1
 274 422 l 1
 252 385 l 1
 229 349 l 1
 212 270 l 1
 196 193 l 1
 207 169 l 1
 218 145 l 1
 240 148 l 1
 263 152 l 1
 302 208 l 2
 340 262 388 348 432 441 c 2
 452 484 l 1
 481 501 l 1
 509 517 l 1
 535 511 l 1
 559 505 l 1
 568 470 l 1
 576 435 l 1
 534 314 l 2
 511 247 479 153 466 105 c 2
 443 18 l 1
 471 1 l 1
 500 -16 l 1
 493 -47 l 1
 487 -77 l 1
 454 -98 l 2
 434 -111 421 -118 406 -118 c 0
 393 -118 380 -113 361 -104 c 0
EndSplineSet
EndChar

StartChar: w
Encoding: 119 119 85
Width: 987
VWidth: 789
Flags: HW
LayerCount: 2
Fore
SplineSet
593 26 m 2
 575 52 534 184 521 261 c 0
 517 285 510 303 505 303 c 0
 504 303 504 302 504 302 c 2
 499 298 459 243 414 182 c 0
 325 59 282 15 239 15 c 0
 228 15 218 18 206 23 c 2
 181 33 l 1
 162 102 l 2
 152 140 140 241 132 323 c 2
 119 472 l 1
 131 499 l 2
 138 513 156 533 172 542 c 2
 203 559 l 1
 229 549 l 1
 253 540 l 1
 255 514 l 2
 256 500 259 461 261 427 c 0
 265 365 275 245 279 217 c 2
 281 202 l 1
 387 350 l 2
 446 432 510 510 527 522 c 2
 558 545 l 1
 593 545 l 1
 628 545 l 1
 639 521 l 2
 645 508 648 468 646 432 c 0
 643 370 665 222 680 212 c 1
 681 212 l 2
 686 212 717 248 749 292 c 0
 837 414 954 552 984 570 c 0
 1000 580 1013 585 1025 585 c 0
 1039 585 1052 578 1062 565 c 0
 1071 553 1076 542 1073 527 c 0
 1068 504 1046 473 999 418 c 0
 960 372 879 268 820 186 c 0
 761 104 703 30 693 20 c 2
 673 2 l 1
 641 2 l 1
 608 2 l 1
 593 26 l 2
EndSplineSet
EndChar

StartChar: v
Encoding: 118 118 86
Width: 581
VWidth: 785
Flags: HW
LayerCount: 2
Fore
SplineSet
337 25 m 2
 306 43 l 1
 271 119 l 2
 251 161 217 247 196 312 c 0
 175 377 151 448 143 472 c 2
 128 515 l 1
 146 541 l 1
 164 567 l 1
 193 574 l 1
 222 582 l 1
 245 567 l 1
 268 553 l 1
 318 400 l 2
 319 398 371 244 378 244 c 0
 383 244 409 282 434 330 c 0
 502 458 555 541 578 555 c 0
 591 563 605 567 617 567 c 0
 648 567 671 542 663 506 c 0
 660 493 616 407 565 317 c 0
 514 227 470 140 467 125 c 0
 464 110 460 82 457 65 c 2
 454 33 l 1
 431 18 l 2
 417 10 404 6 391 6 c 0
 375 6 357 12 337 25 c 2
EndSplineSet
EndChar

StartChar: x
Encoding: 120 120 87
Width: 647
VWidth: 774
Flags: HW
LayerCount: 2
Fore
SplineSet
493 70 m 2
 473 78 448 97 438 112 c 2
 421 139 l 1
 374 118 l 2
 348 106 303 91 274 85 c 2
 221 73 l 1
 186 80 l 2
 143 88 118 117 125 150 c 2
 130 174 l 1
 161 195 l 1
 192 217 l 1
 234 210 l 1
 275 204 l 1
 326 226 l 2
 384 252 459 311 464 336 c 0
 466 345 461 365 453 379 c 2
 438 406 l 1
 375 406 l 1
 313 406 l 1
 259 376 l 2
 230 360 202 338 197 330 c 0
 192 322 174 309 158 302 c 2
 129 288 l 1
 108 297 l 2
 97 302 84 316 81 330 c 2
 75 355 l 1
 95 386 l 2
 135 450 254 517 359 536 c 2
 417 546 l 1
 463 536 l 2
 488 530 523 514 541 500 c 2
 574 476 l 1
 626 510 l 1
 678 544 l 1
 736 557 l 1
 794 569 l 1
 831 557 l 1
 869 545 l 1
 878 515 l 1
 887 484 l 1
 874 454 l 1
 861 424 l 1
 827 406 l 1
 794 388 l 1
 775 393 l 2
 765 396 752 407 747 418 c 2
 738 437 l 1
 706 423 l 2
 642 393 598 342 569 263 c 2
 550 211 l 1
 557 198 l 1
 565 186 l 1
 638 186 l 1
 711 186 l 1
 723 170 l 2
 730 161 733 142 730 127 c 2
 724 99 l 1
 700 81 l 1
 676 63 l 1
 603 59 l 1
 530 55 l 1
 493 70 l 2
EndSplineSet
EndChar

StartChar: y
Encoding: 121 121 88
Width: 511
VWidth: 922
Flags: HW
LayerCount: 2
Fore
SplineSet
178 -350 m 0
 210 -320 247 -255 277 -176 c 2
 292 -136 l 1
 254 -166 l 2
 233 -182 193 -217 166 -244 c 2
 117 -293 l 1
 111 -319 l 2
 106 -344 123 -381 139 -381 c 0
 143 -381 160 -367 178 -350 c 0
44 -488 m 2
 5 -465 l 1
 -11 -412 l 1
 -27 -359 l 1
 -19 -321 l 1
 -12 -284 l 1
 32 -224 l 1
 75 -163 l 1
 164 -92 l 2
 213 -53 275 -10 300 5 c 2
 346 32 l 1
 345 48 l 2
 344 57 343 76 343 91 c 2
 342 119 l 1
 316 93 l 2
 302 79 266 54 238 38 c 2
 187 9 l 1
 157 9 l 2
 87 9 46 75 49 181 c 2
 50 236 l 1
 72 297 l 2
 98 371 145 443 175 458 c 0
 187 464 210 469 227 469 c 2
 257 469 l 1
 268 447 l 2
 283 417 277 396 244 363 c 2
 215 335 l 1
 197 267 l 2
 187 230 179 188 180 174 c 2
 181 149 l 1
 196 149 l 2
 216 149 278 217 347 313 c 0
 432 431 475 460 515 425 c 2
 531 411 l 1
 501 271 l 2
 485 194 474 128 477 125 c 0
 480 122 494 124 509 130 c 2
 537 142 l 1
 562 135 l 2
 592 127 603 95 588 63 c 2
 577 39 l 1
 521 4 l 1
 465 -31 l 1
 436 -108 l 2
 349 -342 271 -453 161 -495 c 0
 107 -516 90 -515 44 -488 c 2
EndSplineSet
EndChar

StartChar: z
Encoding: 122 122 89
Width: 664
VWidth: 753
Flags: HWO
LayerCount: 2
Fore
SplineSet
119 80 m 1
 88 88 l 1
 84 114 l 2
 82 128 83 147 88 157 c 0
 98 175 204 263 304 334 c 2
 361 374 l 1
 315 381 l 1
 269 387 l 1
 214 356 l 2
 151 321 115 317 92 343 c 2
 77 360 l 1
 84 394 l 1
 91 427 l 1
 114 446 l 2
 127 456 143 480 150 497 c 0
 169 540 217 584 262 598 c 2
 300 609 l 1
 328 590 l 1
 356 571 l 1
 360 542 l 2
 362 526 364 512 364 510 c 0
 364 508 407 511 459 517 c 2
 553 528 l 1
 578 513 l 2
 606 497 612 479 603 438 c 2
 597 411 l 1
 522 351 l 2
 481 318 423 275 394 255 c 2
 341 217 l 1
 372 222 l 2
 389 224 469 229 549 232 c 2
 695 237 l 1
 718 225 l 1
 740 212 l 1
 735 175 l 1
 731 139 l 1
 704 123 l 1
 677 108 l 1
 470 97 l 2
 356 91 237 83 206 79 c 2
 149 71 l 1
 119 80 l 1
EndSplineSet
EndChar

StartChar: braceleft
Encoding: 123 123 90
Width: 648
Flags: HW
LayerCount: 2
Fore
SplineSet
128 -364 m 2
 111 -354 88 -329 80 -311 c 2
 65 -278 l 1
 70 -221 l 2
 72 -203 76 -182 80 -161 c 0
 100 -69 143 43 200 137 c 2
 208 151 l 1
 158 175 l 2
 104 202 71 243 79 279 c 0
 85 308 121 335 208 377 c 2
 276 411 l 1
 298 527 l 1
 319 645 l 1
 346 712 l 2
 389 824 434 875 533 921 c 2
 584 944 l 1
 642 948 l 1
 701 952 l 1
 737 932 l 2
 758 921 780 902 787 890 c 2
 801 868 l 1
 797 818 l 1
 790 768 l 1
 771 732 l 2
 735 667 681 627 642 627 c 0
 621 627 605 638 597 663 c 2
 588 690 l 1
 621 731 l 2
 639 754 658 782 661 794 c 2
 666 817 l 1
 630 817 l 2
 581 817 532 793 501 753 c 2
 476 720 l 1
 438 546 l 2
 418 450 394 361 387 349 c 0
 380 337 354 314 328 301 c 2
 281 276 l 1
 318 255 l 2
 355 233 372 210 365 178 c 0
 361 157 346 132 323 100 c 0
 303 72 273 21 258 -14 c 0
 240 -56 220 -119 210 -168 c 0
 204 -197 201 -220 203 -231 c 2
 205 -248 l 1
 238 -248 l 2
 278 -248 315 -226 344 -186 c 0
 355 -170 380 -148 395 -139 c 2
 424 -124 l 1
 448 -137 l 2
 470 -149 479 -170 474 -195 c 0
 468 -223 446 -256 408 -293 c 2
 365 -333 l 1
 309 -356 l 1
 252 -381 l 1
 206 -381 l 1
 160 -381 l 1
 128 -364 l 2
EndSplineSet
EndChar

StartChar: braceright
Encoding: 125 125 91
Width: 628
Flags: HW
LayerCount: 2
Fore
SplineSet
20 -369 m 0
 -18 -342 -38 -267 -26 -211 c 0
 -23 -199 -20 -187 -14 -178 c 0
 -6 -164 14 -147 29 -141 c 2
 57 -129 l 1
 80 -146 l 1
 101 -164 l 1
 104 -209 l 1
 105 -255 l 1
 127 -255 l 2
 139 -255 177 -240 212 -222 c 2
 275 -188 l 1
 295 -160 l 1
 315 -130 l 1
 325 -35 l 2
 330 17 338 83 344 110 c 2
 355 158 l 1
 341 176 l 1
 329 196 l 1
 336 228 l 1
 345 262 l 1
 401 304 l 1
 456 345 l 1
 433 357 l 1
 410 369 l 1
 409 394 l 1
 408 420 l 1
 443 464 l 2
 462 488 496 542 520 584 c 2
 564 659 l 1
 587 737 l 1
 608 815 l 1
 593 843 l 1
 576 871 l 1
 530 871 l 2
 471 871 448 861 372 794 c 0
 336 763 301 738 294 738 c 0
 287 738 270 752 257 768 c 2
 234 799 l 1
 258 838 l 2
 309 920 411 985 520 1004 c 2
 576 1014 l 1
 622 999 l 1
 668 984 l 1
 698 946 l 2
 713 924 730 889 734 867 c 2
 742 827 l 1
 730 770 l 2
 716 705 675 607 627 525 c 0
 610 495 594 469 594 467 c 0
 594 465 609 461 627 457 c 2
 661 451 l 1
 677 424 l 2
 687 406 690 390 687 374 c 0
 680 342 644 311 568 267 c 0
 526 243 490 220 489 217 c 0
 488 214 480 135 469 41 c 2
 447 -130 l 1
 429 -171 l 2
 400 -231 354 -276 283 -318 c 0
 206 -364 139 -388 87 -388 c 0
 60 -388 37 -381 20 -369 c 0
EndSplineSet
EndChar

StartChar: bar
Encoding: 124 124 92
Width: 196
Flags: HW
LayerCount: 2
Fore
SplineSet
47 -53 m 2
 32 -34 l 1
 36 20 l 2
 38 38 51 106 71 198 c 0
 85 263 102 340 119 417 c 2
 195 758 l 1
 221 785 l 1
 248 813 l 1
 274 816 l 1
 302 819 l 1
 318 800 l 1
 333 780 l 1
 243 373 l 1
 155 -34 l 1
 132 -53 l 2
 117 -65 101 -72 86 -72 c 0
 71 -72 56 -65 47 -53 c 2
EndSplineSet
EndChar

StartChar: asciitilde
Encoding: 126 126 93
Width: 864
Flags: HW
LayerCount: 2
Fore
SplineSet
479 287 m 0
 469 293 443 323 421 354 c 2
 382 410 l 1
 310 387 l 2
 271 375 224 353 205 340 c 0
 183 324 165 317 150 317 c 0
 136 317 125 323 115 336 c 0
 104 350 102 364 105 380 c 0
 113 418 159 459 234 490 c 0
 271 505 327 523 357 529 c 2
 412 540 l 1
 446 530 l 1
 480 521 l 1
 521 464 l 1
 562 408 l 1
 591 414 l 2
 640 425 754 474 818 513 c 0
 859 537 881 549 896 549 c 0
 909 549 917 541 929 526 c 0
 942 510 947 498 944 485 c 0
 940 468 923 450 887 422 c 2
 832 378 l 1
 745 340 l 2
 648 298 574 277 525 277 c 0
 505 277 491 280 479 287 c 0
EndSplineSet
EndChar

StartChar: cent
Encoding: 162 162 94
Width: 609
Flags: HW
LayerCount: 2
Fore
SplineSet
248 255 m 2
 211 265 l 1
 175 311 l 2
 154 336 133 375 127 399 c 2
 117 442 l 1
 130 499 l 2
 147 573 167 608 242 688 c 2
 305 754 l 1
 367 781 l 1
 428 808 l 1
 490 814 l 1
 552 819 l 1
 620 798 l 1
 686 775 l 1
 710 739 l 1
 735 703 l 1
 728 668 l 1
 720 632 l 1
 689 606 l 2
 668 589 650 581 635 581 c 0
 613 581 598 598 587 632 c 2
 576 671 l 1
 538 677 l 2
 515 681 496 683 479 683 c 0
 451 683 429 678 404 667 c 2
 365 650 l 1
 319 596 l 1
 271 542 l 1
 263 503 l 1
 254 463 l 1
 266 435 l 2
 285 394 306 377 364 377 c 0
 392 377 429 381 477 388 c 0
 507 392 540 394 561 394 c 0
 571 394 578 394 582 393 c 2
 604 386 l 1
 607 366 l 2
 607 358 608 351 606 343 c 0
 601 318 583 294 561 283 c 0
 513 260 419 245 341 245 c 0
 305 245 272 248 248 255 c 2
EndSplineSet
EndChar

StartChar: sterling
Encoding: 163 163 95
Width: 771
Flags: HW
LayerCount: 2
Fore
SplineSet
39 -131 m 2
 9 -117 l 1
 9 -91 l 2
 9 -86 9 -80 10 -74 c 0
 17 -40 46 6 69 17 c 0
 80 22 106 28 126 28 c 0
 146 28 183 37 208 48 c 2
 253 69 l 1
 276 101 l 2
 290 122 302 148 308 174 c 0
 312 195 313 216 310 234 c 2
 305 263 l 1
 214 263 l 1
 123 263 l 1
 103 282 l 1
 85 300 l 1
 91 328 l 2
 94 343 106 365 118 376 c 2
 140 395 l 1
 187 398 l 1
 235 401 l 1
 214 433 l 2
 185 479 171 549 181 597 c 2
 189 639 l 1
 223 684 l 1
 256 729 l 1
 311 761 l 1
 366 794 l 1
 439 806 l 1
 514 819 l 1
 582 807 l 2
 659 793 712 763 734 721 c 2
 748 691 l 1
 731 610 l 1
 714 530 l 1
 694 513 l 2
 683 504 659 496 644 496 c 2
 616 496 l 1
 603 519 l 1
 588 542 l 1
 600 596 l 1
 611 649 l 1
 581 664 l 1
 551 678 l 1
 484 678 l 1
 417 678 l 1
 382 664 l 2
 342 649 319 626 311 589 c 2
 306 564 l 1
 349 494 l 2
 373 455 392 417 395 411 c 2
 399 399 l 1
 553 410 l 1
 706 420 l 1
 727 396 l 2
 740 381 746 366 743 352 c 0
 740 338 729 325 711 310 c 2
 683 287 l 1
 570 280 l 2
 508 276 453 271 451 269 c 2
 451 269 450 268 450 266 c 0
 449 259 448 241 448 221 c 2
 448 176 l 1
 427 125 l 2
 415 96 394 60 383 44 c 2
 362 15 l 1
 407 23 l 2
 457 31 601 77 657 103 c 0
 680 114 699 119 716 119 c 0
 733 119 747 113 754 101 c 0
 763 88 767 74 764 61 c 0
 755 17 680 -26 535 -72 c 0
 434 -104 385 -115 246 -132 c 0
 177 -141 135 -145 106 -145 c 0
 75 -145 59 -140 39 -131 c 2
EndSplineSet
EndChar

StartChar: Euro
Encoding: 164 8364 96
Width: 1010
Flags: HW
LayerCount: 2
Fore
SplineSet
503 28 m 2
 440 53 399 89 365 154 c 2
 339 203 l 1
 246 196 l 1
 152 190 l 1
 118 205 l 1
 83 221 l 1
 83 247 l 1
 81 273 l 1
 103 299 l 1
 125 325 l 1
 195 325 l 2
 274 325 331 334 334 346 c 0
 335 349 320 351 298 351 c 0
 285 351 267 350 250 349 c 2
 164 344 l 1
 143 357 l 2
 130 364 118 384 116 399 c 2
 112 428 l 1
 133 455 l 2
 144 469 168 487 185 492 c 2
 218 502 l 1
 234 490 l 1
 251 477 l 1
 308 483 l 1
 364 491 l 1
 369 511 l 2
 371 522 397 565 425 605 c 2
 475 679 l 1
 538 731 l 1
 601 782 l 1
 677 816 l 1
 753 850 l 1
 831 855 l 1
 909 859 l 1
 966 838 l 1
 1021 816 l 1
 1049 782 l 2
 1064 764 1084 732 1090 709 c 2
 1102 668 l 1
 1093 600 l 1
 1083 532 l 1
 1056 510 l 2
 1041 498 1018 489 1005 489 c 2
 981 489 l 1
 964 515 l 1
 949 543 l 1
 959 586 l 1
 968 629 l 1
 951 664 l 1
 936 698 l 1
 903 711 l 2
 885 718 848 723 819 723 c 2
 766 724 l 1
 707 697 l 2
 674 683 630 655 608 636 c 0
 570 603 510 531 506 514 c 0
 506 513 506 512 507 511 c 2
 507 511 508 510 512 510 c 0
 526 510 561 513 600 518 c 2
 690 530 l 1
 722 515 l 1
 756 500 l 1
 759 476 l 2
 760 466 760 458 758 449 c 0
 754 430 743 413 721 401 c 2
 696 386 l 1
 615 384 l 1
 531 383 l 1
 571 378 l 2
 619 373 643 351 636 320 c 0
 634 309 627 296 617 283 c 2
 603 263 l 1
 543 247 l 1
 482 230 l 1
 501 205 l 2
 511 191 536 169 559 158 c 2
 599 138 l 1
 786 140 l 2
 858 141 924 141 958 141 c 0
 972 141 981 141 983 141 c 0
 989 140 996 126 1000 110 c 2
 1007 79 l 1
 985 53 l 1
 963 29 l 1
 923 17 l 1
 881 7 l 1
 717 7 l 1
 554 8 l 1
 503 28 l 2
506 373 m 0
 500 376 488 376 480 373 c 0
 472 370 478 367 492 367 c 0
 506 367 512 370 506 373 c 0
EndSplineSet
EndChar

StartChar: yen
Encoding: 165 165 97
Width: 639
Flags: HW
LayerCount: 2
Fore
SplineSet
290 6 m 2
 267 37 l 1
 280 101 l 2
 288 137 300 214 307 272 c 2
 321 379 l 1
 309 395 l 2
 300 409 220 609 188 696 c 2
 176 730 l 1
 189 758 l 2
 196 773 214 793 230 802 c 2
 260 819 l 1
 282 808 l 2
 294 802 311 780 319 757 c 0
 380 594 400 550 403 550 c 0
 405 550 430 572 460 599 c 0
 586 713 691 785 728 785 c 0
 758 785 778 755 771 722 c 2
 766 696 l 1
 615 571 l 1
 464 446 l 1
 454 368 l 2
 449 325 434 230 422 156 c 2
 400 22 l 1
 367 -1 l 2
 346 -15 334 -22 324 -22 c 0
 313 -22 305 -13 290 6 c 2
EndSplineSet
EndChar

StartChar: Scaron
Encoding: 166 352 98
Width: 695
VWidth: 1103
Flags: HW
LayerCount: 2
Fore
SplineSet
471 949 m 2
 429 973 l 1
 380 1033 l 2
 336 1089 318 1119 323 1143 c 0
 326 1155 334 1165 347 1176 c 0
 358 1185 378 1193 390 1193 c 2
 413 1193 l 1
 454 1135 l 2
 477 1103 507 1069 520 1061 c 2
 543 1046 l 1
 576 1090 l 2
 632 1163 688 1222 716 1236 c 2
 741 1249 l 1
 763 1236 l 1
 783 1223 l 1
 781 1198 l 1
 779 1174 l 1
 734 1125 l 2
 709 1098 669 1047 644 1011 c 2
 599 946 l 1
 576 936 l 2
 562 930 549 927 536 927 c 0
 517 927 498 934 471 949 c 2
257 34 m 0
 163 52 150 55 121 86 c 2
 97 112 l 1
 102 137 l 2
 109 168 149 202 178 202 c 0
 189 202 208 197 219 191 c 0
 254 171 353 152 438 152 c 2
 519 152 l 1
 547 164 l 2
 561 171 578 182 581 189 c 0
 581 191 583 192 583 194 c 0
 588 216 552 245 499 260 c 0
 429 280 303 333 262 360 c 0
 245 371 216 396 198 416 c 2
 167 453 l 1
 153 509 l 1
 140 566 l 1
 158 621 l 2
 198 742 295 824 462 877 c 2
 530 898 l 1
 581 898 l 2
 683 898 741 849 734 766 c 2
 732 727 l 1
 705 705 l 1
 678 682 l 1
 651 686 l 1
 623 689 l 1
 607 729 l 1
 589 767 l 1
 537 763 l 1
 485 759 l 1
 429 735 l 2
 343 696 294 652 284 604 c 0
 278 577 285 549 303 521 c 0
 329 480 388 447 528 398 c 0
 654 354 684 332 706 279 c 2
 720 242 l 1
 711 192 l 1
 701 141 l 1
 674 113 l 2
 639 76 579 41 530 28 c 0
 508 22 472 19 431 19 c 0
 374 19 308 25 257 34 c 0
EndSplineSet
EndChar

StartChar: section
Encoding: 167 167 99
Width: 635
Flags: HW
LayerCount: 2
Fore
SplineSet
222 -175 m 2
 176 -160 145 -128 131 -85 c 2
 122 -57 l 1
 132 -37 l 2
 147 -7 178 14 204 14 c 2
 226 14 l 1
 249 -16 l 2
 261 -32 282 -49 294 -52 c 2
 318 -59 l 1
 366 -39 l 2
 392 -28 433 -5 456 12 c 2
 497 43 l 1
 483 63 l 2
 475 74 418 106 354 136 c 2
 237 190 l 1
 215 224 l 1
 192 258 l 1
 194 300 l 2
 195 313 196 325 199 337 c 0
 207 374 225 409 257 451 c 2
 289 495 l 1
 232 526 l 2
 163 563 155 574 159 625 c 2
 162 664 l 1
 198 730 l 2
 275 870 385 952 538 987 c 2
 594 999 l 1
 648 992 l 1
 702 985 l 1
 719 968 l 2
 728 959 737 942 737 930 c 2
 738 908 l 1
 710 880 l 1
 682 852 l 1
 620 859 l 1
 557 866 l 1
 514 853 l 2
 491 846 451 827 423 810 c 2
 373 779 l 1
 344 737 l 2
 328 714 310 685 304 673 c 2
 293 651 l 1
 344 631 l 2
 372 620 446 600 510 588 c 0
 643 563 675 549 694 503 c 2
 707 470 l 1
 693 426 l 2
 674 371 630 311 572 259 c 0
 548 237 531 220 530 216 c 0
 530 215 530 214 565 190 c 0
 582 178 608 150 617 127 c 2
 634 86 l 1
 627 54 l 2
 623 37 610 6 597 -13 c 0
 548 -84 400 -172 306 -185 c 2
 264 -190 l 1
 222 -175 l 2
467 325 m 2
 510 356 555 408 559 429 c 0
 559 431 560 434 559 435 c 0
 558 439 537 444 511 448 c 2
 465 455 l 1
 422 438 l 1
 379 421 l 1
 355 388 l 2
 341 368 333 352 330 340 c 0
 327 327 331 317 339 307 c 2
 352 291 l 1
 386 291 l 1
 418 291 l 1
 467 325 l 2
EndSplineSet
EndChar

StartChar: scaron
Encoding: 168 353 100
Width: 494
VWidth: 817
Flags: HW
LayerCount: 2
Fore
SplineSet
335 689 m 2
 294 713 l 1
 244 773 l 2
 200 829 183 859 188 883 c 0
 191 895 199 905 212 916 c 0
 223 925 242 933 254 933 c 2
 277 933 l 1
 319 875 l 2
 342 843 371 809 384 801 c 2
 408 786 l 1
 440 830 l 2
 496 903 552 962 580 976 c 2
 606 989 l 1
 627 976 l 1
 648 963 l 1
 645 938 l 1
 643 914 l 1
 599 865 l 2
 574 838 534 787 509 751 c 2
 464 686 l 1
 441 676 l 2
 427 670 414 667 401 667 c 0
 382 667 362 674 335 689 c 2
156 16 m 0
 119 32 103 57 109 87 c 2
 115 114 l 1
 138 132 l 1
 161 150 l 1
 219 143 l 1
 279 136 l 1
 319 155 l 2
 340 165 360 179 361 185 c 0
 365 204 280 278 227 301 c 0
 158 331 125 360 118 400 c 0
 113 420 114 440 118 459 c 0
 127 500 155 540 203 582 c 0
 251 624 296 642 352 643 c 2
 402 643 l 1
 425 623 l 2
 443 606 450 584 445 562 c 0
 440 539 423 516 397 501 c 2
 368 484 l 1
 335 498 l 1
 302 510 l 1
 278 492 l 2
 264 481 255 472 253 464 c 0
 250 451 265 440 301 424 c 0
 331 411 389 371 430 334 c 2
 507 267 l 1
 509 229 l 1
 510 190 l 1
 485 148 l 1
 459 106 l 1
 409 71 l 1
 359 35 l 1
 306 19 l 2
 274 10 243 6 217 6 c 0
 193 6 173 9 156 16 c 0
EndSplineSet
EndChar

StartChar: copyright
Encoding: 169 169 101
Width: 513
Flags: HW
LayerCount: 2
Fore
SplineSet
242 403 m 2
 221 411 194 432 182 447 c 2
 159 476 l 1
 156 544 l 1
 153 611 l 1
 175 654 l 1
 196 697 l 1
 243 736 l 2
 270 758 311 785 340 797 c 2
 391 819 l 1
 447 819 l 1
 503 819 l 1
 557 787 l 2
 626 747 629 743 623 703 c 0
 620 685 616 645 613 612 c 2
 607 553 l 1
 569 499 l 1
 531 444 l 1
 492 420 l 1
 454 394 l 1
 366 391 l 1
 279 389 l 1
 242 403 l 2
465 478 m 0
 498 496 533 551 543 596 c 0
 547 614 544 648 537 673 c 2
 526 718 l 1
 499 732 l 2
 485 740 454 748 431 748 c 2
 389 748 l 1
 347 727 l 2
 323 716 286 692 267 674 c 2
 232 641 l 1
 227 594 l 2
 219 503 238 475 318 461 c 0
 334 458 351 457 367 457 c 0
 404 457 439 464 465 478 c 0
294 516 m 1
 267 551 l 1
 275 589 l 1
 283 627 l 1
 309 655 l 1
 336 685 l 1
 375 696 l 1
 414 709 l 1
 446 702 l 2
 463 699 485 687 492 677 c 2
 507 657 l 1
 498 633 l 1
 488 609 l 1
 470 606 l 2
 469 606 467 606 466 606 c 0
 456 606 442 612 435 620 c 2
 419 637 l 1
 391 631 l 2
 368 625 352 611 348 594 c 0
 347 588 347 581 350 574 c 2
 358 558 l 1
 397 553 l 1
 434 548 l 1
 435 531 l 2
 435 522 425 507 414 498 c 2
 394 481 l 1
 357 481 l 1
 321 481 l 1
 294 516 l 1
EndSplineSet
EndChar

StartChar: registered
Encoding: 174 174 102
Width: 519
Flags: HW
LayerCount: 2
Fore
SplineSet
240 358 m 0
 198 373 160 413 143 454 c 2
 128 490 l 1
 149 569 l 1
 170 648 l 1
 204 697 l 1
 239 748 l 1
 282 772 l 2
 305 785 353 802 388 808 c 2
 451 819 l 1
 501 808 l 1
 549 796 l 1
 581 765 l 1
 612 734 l 1
 617 676 l 1
 620 617 l 1
 605 536 l 1
 589 454 l 1
 557 420 l 2
 540 402 507 378 483 367 c 2
 439 346 l 1
 354 347 l 2
 307 347 255 352 240 358 c 0
411 416 m 0
 412 420 397 434 376 447 c 2
 339 471 l 1
 310 458 l 1
 281 444 l 1
 272 462 l 1
 263 480 l 1
 282 544 l 2
 292 579 307 623 317 645 c 2
 335 684 l 1
 359 684 l 2
 392 684 459 659 489 633 c 2
 514 611 l 1
 509 587 l 2
 501 549 485 529 454 518 c 2
 425 509 l 1
 450 487 l 2
 463 476 472 460 470 452 c 2
 467 436 l 1
 481 440 l 2
 488 442 503 457 513 470 c 2
 531 495 l 1
 540 560 l 1
 549 626 l 1
 536 671 l 1
 523 717 l 1
 492 731 l 2
 474 739 453 743 430 743 c 0
 406 743 380 739 350 731 c 2
 308 719 l 1
 277 686 l 2
 261 668 236 627 222 595 c 2
 197 538 l 1
 210 502 l 2
 227 452 257 427 320 418 c 0
 359 412 382 409 395 409 c 0
 407 409 410 412 411 416 c 0
426 582 m 0
 427 588 425 592 421 592 c 0
 417 592 402 595 391 598 c 2
 369 604 l 1
 366 588 l 1
 362 571 l 1
 392 571 l 2
 408 571 425 576 426 582 c 0
EndSplineSet
EndChar

StartChar: ordfeminine
Encoding: 170 170 103
Width: 379
Flags: HW
LayerCount: 2
Fore
SplineSet
188 527 m 0
 161 545 146 593 154 631 c 0
 174 723 276 819 355 819 c 0
 386 819 465 779 467 762 c 0
 468 754 464 727 459 702 c 2
 450 658 l 1
 469 641 l 2
 482 630 485 615 482 601 c 0
 477 579 456 557 426 547 c 2
 398 538 l 1
 375 547 l 1
 352 556 l 1
 314 534 l 1
 276 511 l 1
 244 511 l 2
 227 511 201 518 188 527 c 0
291 645 m 0
 300 656 313 675 319 687 c 2
 330 709 l 1
 302 684 l 2
 287 671 272 651 270 642 c 0
 268 631 268 625 271 625 c 0
 274 625 280 632 291 645 c 0
EndSplineSet
EndChar

StartChar: guillemotleft
Encoding: 171 171 104
Width: 952
Flags: HW
LayerCount: 2
Fore
SplineSet
649 71 m 0
 625 79 566 100 516 116 c 0
 403 154 225 228 158 266 c 2
 107 294 l 1
 101 322 l 1
 94 348 l 1
 111 377 l 2
 138 424 589 770 677 812 c 0
 687 817 695 819 704 819 c 0
 737 819 760 788 752 752 c 0
 751 747 748 742 746 736 c 2
 736 713 l 1
 629 639 l 2
 570 599 465 520 395 465 c 2
 267 365 l 1
 394 311 l 2
 464 282 535 256 550 253 c 2
 579 247 l 1
 514 282 l 2
 478 301 448 325 446 334 c 0
 445 346 444 359 447 372 c 0
 452 394 464 417 480 438 c 0
 503 467 757 658 821 695 c 2
 846 711 l 1
 871 705 l 1
 896 697 l 1
 902 673 l 1
 908 648 l 1
 895 623 l 1
 884 596 l 1
 754 502 l 2
 683 451 622 403 621 397 c 0
 619 386 765 332 802 331 c 0
 837 330 954 286 970 270 c 2
 985 255 l 1
 978 220 l 1
 971 186 l 1
 940 172 l 1
 909 158 l 1
 768 197 l 2
 691 219 616 239 603 242 c 2
 579 249 l 1
 612 233 l 2
 629 225 676 209 714 197 c 2
 784 175 l 1
 790 156 l 2
 794 145 794 125 791 111 c 2
 785 85 l 1
 759 69 l 2
 744 60 731 56 715 56 c 0
 698 56 679 61 649 71 c 0
EndSplineSet
EndChar

StartChar: degree
Encoding: 176 176 105
Width: 451
Flags: HW
LayerCount: 2
Fore
SplineSet
238 431 m 0
 190 449 161 481 151 526 c 2
 141 570 l 1
 163 622 l 2
 175 650 201 693 220 717 c 2
 255 761 l 1
 307 790 l 1
 359 819 l 1
 408 819 l 2
 516 819 579 782 578 718 c 2
 577 688 l 1
 557 660 l 1
 536 632 l 1
 538 610 l 1
 539 588 l 1
 513 545 l 2
 468 469 379 420 299 420 c 0
 277 420 258 424 238 431 c 0
379 565 m 0
 395 575 405 584 407 593 c 0
 409 602 402 610 389 618 c 0
 377 625 365 642 362 655 c 0
 358 670 354 677 347 677 c 0
 338 677 324 663 305 633 c 2
 275 587 l 1
 288 568 l 1
 302 549 l 1
 328 549 l 2
 342 549 365 556 379 565 c 0
EndSplineSet
EndChar

StartChar: uni00B2
Encoding: 178 178 106
Width: 394
Flags: HW
LayerCount: 2
Fore
SplineSet
150 421 m 0
 141 425 129 437 126 449 c 2
 119 471 l 1
 132 505 l 1
 146 538 l 1
 182 562 l 1
 219 587 l 1
 207 610 l 2
 201 623 199 650 203 670 c 2
 211 707 l 1
 258 746 l 1
 305 786 l 1
 357 803 l 2
 385 812 423 819 441 819 c 2
 474 819 l 1
 502 788 l 1
 532 757 l 1
 521 704 l 1
 510 652 l 1
 480 623 l 2
 465 607 440 585 425 575 c 2
 398 557 l 1
 414 535 l 2
 422 523 428 501 425 487 c 2
 419 462 l 1
 394 443 l 1
 369 424 l 1
 268 419 l 2
 246 418 225 417 206 417 c 0
 178 417 156 419 150 421 c 0
354 666 m 2
 371 684 l 1
 350 670 l 2
 338 662 330 655 330 653 c 0
 328 645 337 649 354 666 c 2
EndSplineSet
EndChar

StartChar: uni00B3
Encoding: 179 179 107
Width: 366
Flags: HW
LayerCount: 2
Fore
SplineSet
255 396 m 0
 241 398 222 409 212 420 c 2
 195 441 l 1
 201 469 l 1
 206 496 l 1
 233 515 l 1
 262 534 l 1
 241 564 l 2
 230 581 210 598 197 601 c 2
 173 607 l 1
 167 633 l 1
 161 658 l 1
 175 681 l 2
 183 694 213 723 244 746 c 2
 299 787 l 1
 352 803 l 1
 403 819 l 1
 430 804 l 2
 444 796 464 777 472 762 c 2
 487 735 l 1
 479 699 l 2
 475 679 466 656 459 648 c 2
 446 633 l 1
 454 613 l 2
 463 591 466 566 461 541 c 0
 459 532 456 524 452 515 c 2
 440 485 l 1
 395 448 l 2
 353 414 307 395 270 395 c 0
 265 395 260 395 255 396 c 0
EndSplineSet
EndChar

StartChar: Zcaron
Encoding: 180 381 108
Width: 821
VWidth: 1046
Flags: HW
LayerCount: 2
Fore
SplineSet
53 37 m 1
 31 57 l 1
 36 80 l 2
 45 117 69 141 190 230 c 0
 253 277 400 391 515 483 c 2
 724 652 l 1
 470 649 l 1
 216 646 l 1
 200 663 l 1
 184 681 l 1
 190 710 l 1
 196 740 l 1
 228 762 l 1
 259 783 l 1
 552 783 l 1
 845 782 l 1
 883 764 l 1
 921 744 l 1
 927 714 l 1
 934 682 l 1
 913 654 l 2
 903 639 840 584 773 534 c 0
 706 484 578 383 487 310 c 2
 324 178 l 1
 358 183 l 2
 436 195 513 210 584 224 c 0
 625 232 690 240 730 240 c 2
 803 240 l 1
 822 224 l 1
 841 209 l 1
 835 180 l 2
 832 165 819 143 810 133 c 2
 793 115 l 1
 686 106 l 2
 627 102 536 89 486 78 c 0
 436 67 372 54 342 51 c 0
 236 39 121 23 98 19 c 2
 75 15 l 1
 53 37 l 1
524 869 m 2
 482 893 l 1
 433 953 l 2
 389 1009 371 1039 376 1063 c 0
 379 1075 387 1085 400 1096 c 0
 411 1105 431 1113 443 1113 c 2
 466 1113 l 1
 507 1055 l 2
 530 1023 560 989 573 981 c 2
 596 966 l 1
 629 1010 l 2
 685 1083 741 1142 769 1156 c 2
 794 1169 l 1
 816 1156 l 1
 836 1143 l 1
 834 1118 l 1
 832 1094 l 1
 787 1045 l 2
 762 1018 722 967 697 931 c 2
 652 866 l 1
 629 856 l 2
 615 850 602 847 589 847 c 0
 570 847 551 854 524 869 c 2
EndSplineSet
EndChar

StartChar: mu
Encoding: 181 181 109
Width: 452
Flags: HW
LayerCount: 2
Fore
SplineSet
102 191 m 2
 86 207 l 1
 87 246 l 1
 88 286 l 1
 144 528 l 1
 202 771 l 1
 213 788 l 2
 230 812 243 819 272 819 c 2
 297 819 l 1
 306 800 l 1
 316 780 l 1
 288 650 l 1
 261 521 l 1
 272 501 l 1
 285 480 l 1
 314 497 l 2
 354 520 379 543 409 588 c 2
 434 627 l 1
 456 696 l 1
 478 766 l 1
 497 788 l 1
 516 810 l 1
 539 810 l 2
 583 810 597 792 585 736 c 0
 581 719 575 699 567 675 c 0
 554 637 530 556 514 496 c 2
 485 386 l 1
 463 364 l 1
 442 342 l 1
 414 345 l 1
 387 347 l 1
 375 374 l 1
 363 400 l 1
 315 384 l 2
 292 376 266 372 250 372 c 0
 247 372 245 372 243 372 c 2
 219 376 l 1
 208 297 l 1
 198 218 l 1
 173 197 l 2
 157 183 143 176 131 176 c 0
 121 176 112 181 102 191 c 2
EndSplineSet
EndChar

StartChar: paragraph
Encoding: 182 182 110
Width: 792
Flags: HW
LayerCount: 2
Fore
SplineSet
322 -200 m 0
 311 -195 299 -177 296 -163 c 0
 289 -131 312 108 346 267 c 2
 370 381 l 1
 289 380 l 1
 207 379 l 1
 182 400 l 2
 169 411 151 438 143 456 c 2
 127 489 l 1
 139 545 l 2
 146 576 160 615 171 633 c 0
 218 708 326 764 490 800 c 2
 559 816 l 1
 721 817 l 1
 881 819 l 1
 906 798 l 1
 930 776 l 1
 927 750 l 1
 925 723 l 1
 898 700 l 1
 871 678 l 1
 822 684 l 2
 808 686 794 686 782 686 c 0
 770 686 760 686 756 684 c 2
 740 679 l 1
 710 534 l 2
 670 347 630 73 620 -37 c 2
 612 -122 l 1
 591 -147 l 1
 569 -172 l 1
 541 -172 l 1
 512 -172 l 1
 493 -147 l 1
 475 -121 l 1
 485 -36 l 2
 493 31 578 583 594 663 c 2
 598 681 l 1
 581 681 l 1
 564 681 l 1
 494 325 l 2
 455 129 442 28 434 -37 c 2
 420 -155 l 1
 400 -178 l 2
 384 -197 366 -206 348 -206 c 0
 339 -206 330 -204 322 -200 c 0
381 517 m 2
 399 517 l 1
 414 589 l 1
 429 660 l 1
 388 645 l 2
 364 637 332 620 316 610 c 2
 287 592 l 1
 277 558 l 1
 266 524 l 1
 277 515 l 2
 281 512 293 510 306 510 c 0
 312 510 320 510 326 511 c 0
 346 514 371 517 381 517 c 2
EndSplineSet
EndChar

StartChar: zcaron
Encoding: 184 382 111
Width: 664
VWidth: 753
Flags: HW
LayerCount: 2
Fore
SplineSet
418 559 m 2
 376 583 l 1
 327 643 l 2
 283 699 265 729 270 753 c 0
 273 765 281 775 294 786 c 0
 305 795 325 803 337 803 c 2
 360 803 l 1
 401 745 l 2
 424 713 454 679 467 671 c 2
 490 656 l 1
 523 700 l 2
 579 773 635 832 663 846 c 2
 689 859 l 1
 710 846 l 1
 730 833 l 1
 728 808 l 1
 726 784 l 1
 681 735 l 2
 656 708 616 657 591 621 c 2
 546 556 l 1
 523 546 l 2
 509 540 496 537 483 537 c 0
 464 537 445 544 418 559 c 2
96 20 m 2
 88 27 83 49 81 65 c 2
 77 95 l 1
 98 122 l 2
 125 161 193 207 358 299 c 0
 439 344 503 381 502 382 c 2
 502 382 500 382 495 382 c 0
 473 382 405 380 324 377 c 2
 149 370 l 1
 132 379 l 2
 113 390 107 410 111 430 c 0
 115 451 131 472 155 486 c 2
 184 503 l 1
 372 511 l 1
 559 518 l 1
 617 509 l 2
 714 493 738 470 725 409 c 2
 719 381 l 1
 679 349 l 2
 657 332 572 279 488 233 c 2
 337 150 l 1
 410 156 l 2
 450 160 515 166 554 169 c 2
 625 175 l 1
 641 157 l 1
 657 138 l 1
 651 110 l 2
 644 77 617 51 583 44 c 0
 527 33 258 8 188 8 c 2
 112 8 l 1
 96 20 l 2
EndSplineSet
EndChar

StartChar: uni00B9
Encoding: 185 185 112
Width: 345
Flags: HW
LayerCount: 2
Fore
SplineSet
276 497 m 2
 254 523 l 1
 271 563 l 1
 286 604 l 1
 253 589 l 2
 233 580 218 575 206 575 c 0
 193 575 183 580 170 590 c 2
 152 605 l 1
 159 640 l 1
 166 675 l 1
 271 748 l 1
 376 819 l 1
 410 819 l 1
 443 819 l 1
 464 793 l 1
 485 767 l 1
 473 734 l 2
 466 716 444 660 423 609 c 2
 386 517 l 1
 360 494 l 2
 344 479 329 472 316 472 c 0
 302 472 289 480 276 497 c 2
EndSplineSet
EndChar

StartChar: guillemotright
Encoding: 187 187 113
Width: 812
Flags: HW
LayerCount: 2
Fore
SplineSet
202 91 m 0
 193 97 184 113 183 125 c 2
 178 146 l 1
 194 169 l 2
 202 181 268 225 339 268 c 0
 410 311 487 358 506 372 c 2
 543 398 l 1
 480 371 l 2
 446 356 364 315 298 280 c 0
 232 245 164 212 150 208 c 2
 126 202 l 1
 104 217 l 2
 93 226 84 243 82 254 c 2
 78 275 l 1
 98 298 l 2
 109 310 183 355 263 397 c 0
 343 439 410 476 411 479 c 0
 412 482 363 511 303 543 c 2
 196 600 l 1
 189 626 l 1
 182 650 l 1
 199 675 l 2
 209 688 231 704 247 709 c 2
 276 719 l 1
 429 637 l 2
 589 552 631 518 626 472 c 2
 623 444 l 1
 669 478 l 2
 695 496 716 516 717 520 c 0
 718 524 707 533 693 539 c 0
 679 545 604 579 528 616 c 0
 452 653 383 684 376 684 c 0
 369 684 356 692 346 702 c 2
 326 721 l 1
 333 751 l 1
 339 780 l 1
 368 800 l 1
 395 819 l 1
 431 813 l 2
 468 807 786 654 860 607 c 2
 903 580 l 1
 904 556 l 2
 904 548 903 536 901 527 c 0
 900 522 899 518 897 514 c 0
 875 459 292 80 230 80 c 0
 222 80 209 86 202 91 c 0
EndSplineSet
EndChar

StartChar: OE
Encoding: 188 338 114
Width: 1087
Flags: HW
LayerCount: 2
Fore
SplineSet
317 42 m 0
 209 67 145 127 108 242 c 2
 91 298 l 1
 106 384 l 1
 121 469 l 1
 154 534 l 2
 172 570 200 615 215 634 c 0
 256 684 343 749 404 775 c 0
 455 797 551 819 584 819 c 0
 589 819 593 818 595 817 c 0
 605 809 670 807 959 799 c 2
 1206 792 l 1
 1216 775 l 2
 1221 766 1222 749 1220 738 c 2
 1216 718 l 1
 1188 699 l 1
 1161 681 l 1
 934 683 l 1
 707 686 l 1
 699 675 l 2
 696 669 682 614 670 557 c 2
 648 453 l 1
 789 453 l 1
 930 453 l 1
 944 435 l 2
 951 426 956 407 953 395 c 2
 948 374 l 1
 922 356 l 1
 895 338 l 1
 756 338 l 1
 618 338 l 1
 595 257 l 2
 588 233 582 210 579 194 c 0
 576 181 575 173 576 172 c 2
 576 172 576 171 578 171 c 0
 585 171 602 174 620 178 c 0
 643 183 730 191 816 194 c 2
 973 200 l 1
 991 184 l 1
 1011 170 l 1
 1006 145 l 2
 995 92 973 85 807 78 c 0
 651 72 545 58 506 41 c 2
 479 29 l 1
 424 30 l 2
 393 30 346 36 317 42 c 0
474 234 m 2
 488 284 517 409 539 510 c 2
 581 695 l 1
 528 694 l 1
 474 693 l 1
 426 671 l 2
 365 642 316 601 278 545 c 2
 247 501 l 1
 228 409 l 1
 208 315 l 1
 231 266 l 2
 242 238 266 204 280 191 c 0
 308 166 370 145 421 144 c 2
 448 143 l 1
 474 234 l 2
EndSplineSet
EndChar

StartChar: Ydieresis
Encoding: 190 376 115
Width: 640
Flags: HW
LayerCount: 2
Fore
SplineSet
288 6 m 2
 265 37 l 1
 278 101 l 2
 286 137 298 214 305 272 c 2
 319 379 l 1
 307 395 l 2
 298 409 218 609 186 696 c 2
 174 730 l 1
 187 758 l 2
 194 773 212 793 228 802 c 2
 258 819 l 1
 280 808 l 2
 292 802 309 780 317 757 c 0
 378 594 398 550 401 550 c 0
 403 550 428 572 458 599 c 0
 584 713 689 785 726 785 c 0
 756 785 776 755 769 722 c 2
 764 696 l 1
 613 571 l 1
 462 446 l 1
 452 368 l 2
 447 325 432 230 420 156 c 2
 398 22 l 1
 365 -1 l 2
 344 -15 332 -22 322 -22 c 0
 311 -22 303 -13 288 6 c 2
EndSplineSet
EndChar

StartChar: Agrave
Encoding: 192 192 116
Width: 688
VWidth: 1036
Flags: HW
LayerCount: 2
Fore
SplineSet
638 954 m 0
 557 970 493 995 469 1022 c 2
 451 1042 l 1
 457 1069 l 2
 464 1100 498 1129 527 1129 c 0
 538 1129 565 1121 587 1110 c 0
 609 1099 672 1084 728 1075 c 2
 830 1059 l 1
 839 1042 l 2
 844 1033 845 1013 842 998 c 2
 836 970 l 1
 811 955 l 1
 786 939 l 1
 745 940 l 2
 723 941 675 947 638 954 c 0
69 25 m 0
 48 36 35 74 41 102 c 0
 43 111 59 132 77 149 c 0
 116 186 227 343 248 388 c 0
 255 404 270 425 280 434 c 0
 305 457 411 621 488 756 c 2
 552 869 l 1
 576 886 l 1
 602 905 l 1
 636 905 l 1
 671 905 l 1
 679 871 l 2
 688 829 703 346 697 224 c 2
 693 133 l 1
 668 106 l 1
 643 80 l 1
 616 77 l 1
 590 74 l 1
 574 100 l 1
 560 126 l 1
 564 229 l 1
 567 331 l 1
 489 329 l 2
 446 328 397 325 381 322 c 2
 352 316 l 1
 293 234 l 2
 259 189 213 126 190 93 c 2
 146 32 l 1
 119 23 l 2
 104 18 91 14 90 14 c 0
 89 14 80 19 69 25 c 0
559 471 m 0
 560 475 558 512 556 551 c 2
 553 623 l 1
 537 597 l 2
 528 583 507 550 489 522 c 0
 471 494 455 470 455 468 c 0
 455 466 478 464 507 464 c 0
 536 464 558 467 559 471 c 0
EndSplineSet
EndChar

StartChar: Aacute
Encoding: 193 193 117
Width: 688
VWidth: 1036
Flags: HW
LayerCount: 2
Fore
SplineSet
461 930 m 2
 450 935 438 951 435 966 c 2
 431 993 l 1
 454 1017 l 1
 477 1041 l 1
 613 1095 l 1
 748 1149 l 1
 780 1149 l 1
 812 1149 l 1
 824 1131 l 2
 832 1119 835 1105 832 1091 c 0
 829 1079 822 1067 812 1056 c 0
 803 1047 755 1024 704 1004 c 0
 653 984 599 962 584 955 c 0
 569 948 539 936 519 931 c 2
 482 922 l 1
 461 930 l 2
69 25 m 0
 48 36 35 74 41 102 c 0
 43 111 59 132 77 149 c 0
 116 186 227 343 248 388 c 0
 255 404 270 425 280 434 c 0
 305 457 409 611 486 746 c 1
 552 869 l 1
 576 886 l 1
 602 905 l 1
 636 905 l 1
 671 905 l 1
 679 871 l 2
 688 829 703 346 697 224 c 2
 693 133 l 1
 668 106 l 1
 643 80 l 1
 616 77 l 1
 590 74 l 1
 574 100 l 1
 560 126 l 1
 564 229 l 1
 567 331 l 1
 489 329 l 2
 446 328 397 325 381 322 c 2
 352 316 l 1
 293 234 l 2
 259 189 213 126 190 93 c 2
 146 32 l 1
 119 23 l 2
 104 18 91 14 90 14 c 0
 89 14 80 19 69 25 c 0
559 471 m 0
 560 475 558 512 556 551 c 2
 553 623 l 1
 537 597 l 2
 528 583 507 550 489 522 c 0
 471 494 455 470 455 468 c 0
 455 466 478 464 507 464 c 0
 536 464 558 467 559 471 c 0
EndSplineSet
EndChar

StartChar: Acircumflex
Encoding: 194 194 118
Width: 688
VWidth: 1036
Flags: HW
LayerCount: 2
Fore
SplineSet
406 857 m 0
 375 868 362 890 368 919 c 0
 372 937 384 957 401 978 c 0
 438 1022 671 1208 707 1220 c 2
 734 1229 l 1
 761 1217 l 2
 776 1211 795 1191 803 1174 c 0
 815 1149 842 1019 850 940 c 2
 851 924 l 1
 820 895 l 1
 790 867 l 1
 765 874 l 2
 726 884 709 915 701 994 c 2
 693 1064 l 1
 674 1055 l 2
 653 1045 514 927 484 894 c 0
 464 871 435 856 415 856 c 0
 412 856 409 856 406 857 c 0
69 25 m 0
 48 36 35 74 41 102 c 0
 43 111 59 132 77 149 c 0
 116 186 227 343 248 388 c 0
 255 404 270 425 280 434 c 0
 305 457 411 621 488 756 c 2
 552 869 l 1
 576 886 l 1
 602 905 l 1
 636 905 l 1
 671 905 l 1
 679 871 l 2
 688 829 703 346 697 224 c 2
 693 133 l 1
 668 106 l 1
 643 80 l 1
 616 77 l 1
 590 74 l 1
 574 100 l 1
 560 126 l 1
 564 229 l 1
 567 331 l 1
 489 329 l 2
 446 328 397 325 381 322 c 2
 352 316 l 1
 293 234 l 2
 259 189 213 126 190 93 c 2
 146 32 l 1
 119 23 l 2
 104 18 91 14 90 14 c 0
 89 14 80 19 69 25 c 0
559 471 m 0
 560 475 558 512 556 551 c 2
 553 623 l 1
 537 597 l 2
 528 583 507 550 489 522 c 0
 471 494 455 470 455 468 c 0
 455 466 478 464 507 464 c 0
 536 464 558 467 559 471 c 0
EndSplineSet
EndChar

StartChar: Atilde
Encoding: 195 195 119
Width: 688
VWidth: 1036
Flags: HW
LayerCount: 2
Fore
SplineSet
621 957 m 0
 611 963 586 993 564 1024 c 2
 525 1080 l 1
 453 1057 l 2
 414 1045 367 1023 348 1010 c 0
 326 994 308 987 293 987 c 0
 279 987 268 993 258 1006 c 0
 247 1020 244 1034 247 1050 c 0
 255 1088 302 1129 377 1160 c 0
 414 1175 470 1193 500 1199 c 2
 554 1210 l 1
 588 1200 l 1
 622 1191 l 1
 663 1134 l 1
 704 1078 l 1
 733 1084 l 2
 782 1095 896 1144 960 1183 c 0
 1001 1207 1023 1219 1038 1219 c 0
 1051 1219 1059 1211 1071 1196 c 0
 1084 1180 1090 1168 1087 1155 c 0
 1083 1138 1065 1120 1029 1092 c 2
 975 1048 l 1
 888 1010 l 2
 791 968 716 947 667 947 c 0
 647 947 633 950 621 957 c 0
69 25 m 0
 48 36 35 74 41 102 c 0
 43 111 59 132 77 149 c 0
 116 186 227 343 248 388 c 0
 255 404 270 425 280 434 c 0
 305 457 411 621 488 756 c 2
 552 869 l 1
 576 886 l 1
 602 905 l 1
 636 905 l 1
 671 905 l 1
 679 871 l 2
 688 829 703 346 697 224 c 2
 693 133 l 1
 668 106 l 1
 643 80 l 1
 616 77 l 1
 590 74 l 1
 574 100 l 1
 560 126 l 1
 564 229 l 1
 567 331 l 1
 489 329 l 2
 446 328 397 325 381 322 c 2
 352 316 l 1
 293 234 l 2
 259 189 213 126 190 93 c 2
 146 32 l 1
 119 23 l 2
 104 18 91 14 90 14 c 0
 89 14 80 19 69 25 c 0
559 471 m 0
 560 475 558 512 556 551 c 2
 553 623 l 1
 537 597 l 2
 528 583 507 550 489 522 c 0
 471 494 455 470 455 468 c 0
 455 466 478 464 507 464 c 0
 536 464 558 467 559 471 c 0
EndSplineSet
EndChar

StartChar: Adieresis
Encoding: 196 196 120
Width: 688
VWidth: 1036
Flags: HW
LayerCount: 2
Fore
SplineSet
69 25 m 0
 48 36 35 74 41 102 c 0
 43 111 59 132 77 149 c 0
 116 186 227 343 248 388 c 0
 255 404 270 425 280 434 c 0
 305 457 411 621 488 756 c 2
 552 869 l 1
 576 886 l 1
 602 905 l 1
 636 905 l 1
 671 905 l 1
 679 871 l 2
 688 829 703 346 697 224 c 2
 693 133 l 1
 668 106 l 1
 643 80 l 1
 616 77 l 1
 590 74 l 1
 574 100 l 1
 560 126 l 1
 564 229 l 1
 567 331 l 1
 489 329 l 2
 446 328 397 325 381 322 c 2
 352 316 l 1
 293 234 l 2
 259 189 213 126 190 93 c 2
 146 32 l 1
 119 23 l 2
 104 18 91 14 90 14 c 0
 89 14 80 19 69 25 c 0
559 471 m 0
 560 475 558 512 556 551 c 2
 553 623 l 1
 537 597 l 2
 528 583 507 550 489 522 c 0
 471 494 455 470 455 468 c 0
 455 466 478 464 507 464 c 0
 536 464 558 467 559 471 c 0
EndSplineSet
EndChar

StartChar: Aring
Encoding: 197 197 121
Width: 688
VWidth: 1036
Flags: HW
LayerCount: 2
Fore
SplineSet
69 25 m 0
 48 36 35 74 41 102 c 0
 43 111 59 132 77 149 c 0
 116 186 227 343 248 388 c 0
 255 404 270 425 280 434 c 0
 305 457 411 621 488 756 c 2
 552 869 l 1
 576 886 l 1
 602 905 l 1
 636 905 l 1
 671 905 l 1
 679 871 l 2
 688 829 703 346 697 224 c 2
 693 133 l 1
 668 106 l 1
 643 80 l 1
 616 77 l 1
 590 74 l 1
 574 100 l 1
 560 126 l 1
 564 229 l 1
 567 331 l 1
 489 329 l 2
 446 328 397 325 381 322 c 2
 352 316 l 1
 293 234 l 2
 259 189 213 126 190 93 c 2
 146 32 l 1
 119 23 l 2
 104 18 91 14 90 14 c 0
 89 14 80 19 69 25 c 0
559 471 m 0
 560 475 558 512 556 551 c 2
 553 623 l 1
 537 597 l 2
 528 583 507 550 489 522 c 0
 471 494 455 470 455 468 c 0
 455 466 478 464 507 464 c 0
 536 464 558 467 559 471 c 0
EndSplineSet
EndChar

StartChar: Egrave
Encoding: 200 200 122
Width: 753
VWidth: 1126
Flags: HW
LayerCount: 2
Fore
SplineSet
638 954 m 0
 557 970 493 995 469 1022 c 2
 451 1042 l 1
 457 1069 l 2
 464 1100 498 1129 527 1129 c 0
 538 1129 565 1121 587 1110 c 0
 609 1099 672 1084 728 1075 c 2
 830 1059 l 1
 839 1042 l 2
 844 1033 845 1013 842 998 c 2
 836 970 l 1
 811 955 l 1
 786 939 l 1
 745 940 l 2
 723 941 675 947 638 954 c 0
117 12 m 1
 83 28 l 1
 76 54 l 1
 70 79 l 1
 103 236 l 1
 137 394 l 1
 125 424 l 1
 115 456 l 1
 139 490 l 1
 163 524 l 1
 194 657 l 2
 196 667 198 677 200 686 c 0
 213 748 221 799 220 808 c 2
 216 827 l 1
 233 852 l 1
 251 878 l 1
 285 891 l 1
 322 905 l 1
 478 914 l 2
 563 919 691 923 764 923 c 2
 897 923 l 1
 907 903 l 2
 913 892 914 869 911 854 c 2
 905 827 l 1
 879 810 l 1
 852 795 l 1
 765 795 l 2
 717 795 605 790 519 783 c 2
 362 770 l 1
 352 749 l 2
 347 738 332 685 321 633 c 2
 300 538 l 1
 361 546 l 2
 395 550 446 553 476 553 c 2
 532 554 l 1
 546 530 l 2
 555 514 559 501 556 487 c 0
 553 473 543 460 528 448 c 2
 506 428 l 1
 434 422 l 2
 394 418 341 412 316 409 c 2
 272 403 l 1
 242 265 l 1
 213 126 l 1
 278 133 l 2
 314 136 407 142 486 146 c 2
 629 153 l 1
 646 135 l 1
 662 116 l 1
 655 86 l 1
 649 58 l 1
 625 38 l 1
 599 19 l 1
 468 13 l 2
 395 10 295 4 243 1 c 2
 150 -5 l 1
 117 12 l 1
EndSplineSet
EndChar

StartChar: Eacute
Encoding: 201 201 123
Width: 753
VWidth: 1126
Flags: HW
LayerCount: 2
Fore
SplineSet
461 930 m 2
 450 935 438 951 435 966 c 2
 431 993 l 1
 454 1017 l 1
 477 1041 l 1
 613 1095 l 1
 748 1149 l 1
 780 1149 l 1
 812 1149 l 1
 824 1131 l 2
 832 1119 835 1105 832 1091 c 0
 829 1079 822 1067 812 1056 c 0
 803 1047 755 1024 704 1004 c 0
 653 984 599 962 584 955 c 0
 569 948 539 936 519 931 c 2
 482 922 l 1
 461 930 l 2
117 12 m 1
 83 28 l 1
 76 54 l 1
 70 79 l 1
 103 236 l 1
 137 394 l 1
 125 424 l 1
 115 456 l 1
 139 490 l 1
 163 524 l 1
 194 657 l 2
 196 667 198 677 200 686 c 0
 213 748 221 799 220 808 c 2
 216 827 l 1
 233 852 l 1
 251 878 l 1
 285 891 l 1
 322 905 l 1
 478 914 l 2
 563 919 691 923 764 923 c 2
 897 923 l 1
 907 903 l 2
 913 892 914 869 911 854 c 2
 905 827 l 1
 879 810 l 1
 852 795 l 1
 765 795 l 2
 717 795 605 790 519 783 c 2
 362 770 l 1
 352 749 l 2
 347 738 332 685 321 633 c 2
 300 538 l 1
 361 546 l 2
 395 550 446 553 476 553 c 2
 532 554 l 1
 546 530 l 2
 555 514 559 501 556 487 c 0
 553 473 543 460 528 448 c 2
 506 428 l 1
 434 422 l 2
 394 418 341 412 316 409 c 2
 272 403 l 1
 242 265 l 1
 213 126 l 1
 278 133 l 2
 314 136 407 142 486 146 c 2
 629 153 l 1
 646 135 l 1
 662 116 l 1
 655 86 l 1
 649 58 l 1
 625 38 l 1
 599 19 l 1
 468 13 l 2
 395 10 295 4 243 1 c 2
 150 -5 l 1
 117 12 l 1
EndSplineSet
EndChar

StartChar: Ecircumflex
Encoding: 202 202 124
Width: 753
VWidth: 1126
Flags: HW
LayerCount: 2
Fore
SplineSet
430 967 m 0
 399 978 386 1000 392 1029 c 0
 396 1047 407 1067 424 1088 c 0
 461 1132 695 1318 731 1330 c 2
 758 1339 l 1
 784 1327 l 2
 799 1321 818 1301 826 1284 c 0
 838 1259 865 1129 873 1050 c 2
 875 1034 l 1
 844 1005 l 1
 814 977 l 1
 788 984 l 2
 749 994 733 1025 725 1104 c 2
 717 1174 l 1
 698 1165 l 2
 677 1155 537 1037 507 1004 c 0
 487 981 458 966 438 966 c 0
 435 966 433 966 430 967 c 0
117 12 m 1
 83 28 l 1
 76 54 l 1
 70 79 l 1
 103 236 l 1
 137 394 l 1
 125 424 l 1
 115 456 l 1
 139 490 l 1
 163 524 l 1
 194 657 l 2
 196 667 198 677 200 686 c 0
 213 748 221 799 220 808 c 2
 216 827 l 1
 233 852 l 1
 251 878 l 1
 285 891 l 1
 322 905 l 1
 478 914 l 2
 563 919 691 923 764 923 c 2
 897 923 l 1
 907 903 l 2
 913 892 914 869 911 854 c 2
 905 827 l 1
 879 810 l 1
 852 795 l 1
 765 795 l 2
 717 795 605 790 519 783 c 2
 362 770 l 1
 352 749 l 2
 347 738 332 685 321 633 c 2
 300 538 l 1
 361 546 l 2
 395 550 446 553 476 553 c 2
 532 554 l 1
 546 530 l 2
 555 514 559 501 556 487 c 0
 553 473 543 460 528 448 c 2
 506 428 l 1
 434 422 l 2
 394 418 341 412 316 409 c 2
 272 403 l 1
 242 265 l 1
 213 126 l 1
 278 133 l 2
 314 136 407 142 486 146 c 2
 629 153 l 1
 646 135 l 1
 662 116 l 1
 655 86 l 1
 649 58 l 1
 625 38 l 1
 599 19 l 1
 468 13 l 2
 395 10 295 4 243 1 c 2
 150 -5 l 1
 117 12 l 1
EndSplineSet
EndChar

StartChar: Edieresis
Encoding: 203 203 125
Width: 753
VWidth: 1126
Flags: HW
LayerCount: 2
Fore
SplineSet
117 12 m 1
 83 28 l 1
 76 54 l 1
 70 79 l 1
 103 236 l 1
 137 394 l 1
 125 424 l 1
 115 456 l 1
 139 490 l 1
 163 524 l 1
 194 657 l 2
 196 667 198 677 200 686 c 0
 213 748 221 799 220 808 c 2
 216 827 l 1
 233 852 l 1
 251 878 l 1
 285 891 l 1
 322 905 l 1
 478 914 l 2
 563 919 691 923 764 923 c 2
 897 923 l 1
 907 903 l 2
 913 892 914 869 911 854 c 2
 905 827 l 1
 879 810 l 1
 852 795 l 1
 765 795 l 2
 717 795 605 790 519 783 c 2
 362 770 l 1
 352 749 l 2
 347 738 332 685 321 633 c 2
 300 538 l 1
 361 546 l 2
 395 550 446 553 476 553 c 2
 532 554 l 1
 546 530 l 2
 555 514 559 501 556 487 c 0
 553 473 543 460 528 448 c 2
 506 428 l 1
 434 422 l 2
 394 418 341 412 316 409 c 2
 272 403 l 1
 242 265 l 1
 213 126 l 1
 278 133 l 2
 314 136 407 142 486 146 c 2
 629 153 l 1
 646 135 l 1
 662 116 l 1
 655 86 l 1
 649 58 l 1
 625 38 l 1
 599 19 l 1
 468 13 l 2
 395 10 295 4 243 1 c 2
 150 -5 l 1
 117 12 l 1
EndSplineSet
EndChar

StartChar: Igrave
Encoding: 204 204 126
Width: 860
VWidth: 1074
Flags: HW
LayerCount: 2
Fore
SplineSet
638 954 m 0
 557 970 493 995 469 1022 c 2
 451 1042 l 1
 457 1069 l 2
 464 1100 498 1129 527 1129 c 0
 538 1129 565 1121 587 1110 c 0
 609 1099 672 1084 728 1075 c 2
 830 1059 l 1
 839 1042 l 2
 844 1033 845 1013 842 998 c 2
 836 970 l 1
 811 955 l 1
 786 939 l 1
 745 940 l 2
 723 941 675 947 638 954 c 0
69 55 m 0
 52 63 46 84 51 108 c 0
 53 116 55 125 60 133 c 2
 72 154 l 1
 110 169 l 1
 147 184 l 1
 261 184 l 1
 376 184 l 1
 380 237 l 2
 383 267 406 388 432 508 c 2
 478 726 l 1
 352 726 l 1
 226 726 l 1
 212 739 l 2
 204 746 197 761 193 772 c 2
 187 791 l 1
 202 814 l 2
 211 826 230 841 244 847 c 2
 272 860 l 1
 407 861 l 2
 482 862 621 864 718 868 c 0
 760 870 802 871 837 871 c 0
 881 871 914 869 924 867 c 0
 957 859 971 833 965 806 c 0
 961 789 950 771 929 757 c 2
 897 737 l 1
 756 737 l 1
 614 737 l 1
 569 528 l 2
 545 413 520 291 517 256 c 2
 511 193 l 1
 525 198 l 2
 533 201 607 206 689 210 c 2
 838 217 l 1
 854 195 l 2
 863 183 870 161 867 148 c 2
 862 123 l 1
 831 102 l 1
 798 81 l 1
 747 81 l 2
 718 81 603 74 487 66 c 0
 319 54 208 49 142 49 c 0
 101 49 78 51 69 55 c 0
EndSplineSet
EndChar

StartChar: Iacute
Encoding: 205 205 127
Width: 860
VWidth: 1074
Flags: HW
LayerCount: 2
Fore
SplineSet
461 930 m 2
 450 935 438 951 435 966 c 2
 431 993 l 1
 454 1017 l 1
 477 1041 l 1
 613 1095 l 1
 748 1149 l 1
 780 1149 l 1
 812 1149 l 1
 824 1131 l 2
 832 1119 835 1105 832 1091 c 0
 829 1079 822 1067 812 1056 c 0
 803 1047 755 1024 704 1004 c 0
 653 984 599 962 584 955 c 0
 569 948 539 936 519 931 c 2
 482 922 l 1
 461 930 l 2
69 55 m 0
 52 63 46 84 51 108 c 0
 53 116 55 125 60 133 c 2
 72 154 l 1
 110 169 l 1
 147 184 l 1
 261 184 l 1
 376 184 l 1
 380 237 l 2
 383 267 406 388 432 508 c 2
 478 726 l 1
 352 726 l 1
 226 726 l 1
 212 739 l 2
 204 746 197 761 193 772 c 2
 187 791 l 1
 202 814 l 2
 211 826 230 841 244 847 c 2
 272 860 l 1
 407 861 l 2
 482 862 621 864 718 868 c 0
 760 870 802 871 837 871 c 0
 881 871 914 869 924 867 c 0
 957 859 971 833 965 806 c 0
 961 789 950 771 929 757 c 2
 897 737 l 1
 756 737 l 1
 614 737 l 1
 569 528 l 2
 545 413 520 291 517 256 c 2
 511 193 l 1
 525 198 l 2
 533 201 607 206 689 210 c 2
 838 217 l 1
 854 195 l 2
 863 183 870 161 867 148 c 2
 862 123 l 1
 831 102 l 1
 798 81 l 1
 747 81 l 2
 718 81 603 74 487 66 c 0
 319 54 208 49 142 49 c 0
 101 49 78 51 69 55 c 0
EndSplineSet
EndChar

StartChar: Icircumflex
Encoding: 206 206 128
Width: 860
VWidth: 1074
Flags: HW
LayerCount: 2
Fore
SplineSet
430 967 m 0
 399 978 386 1000 392 1029 c 0
 396 1047 407 1067 424 1088 c 0
 461 1132 695 1318 731 1330 c 2
 758 1339 l 1
 784 1327 l 2
 799 1321 818 1301 826 1284 c 0
 838 1259 865 1129 873 1050 c 2
 875 1034 l 1
 844 1005 l 1
 814 977 l 1
 788 984 l 2
 749 994 733 1025 725 1104 c 2
 717 1174 l 1
 698 1165 l 2
 677 1155 537 1037 507 1004 c 0
 487 981 458 966 438 966 c 0
 435 966 433 966 430 967 c 0
69 55 m 0
 52 63 46 84 51 108 c 0
 53 116 55 125 60 133 c 2
 72 154 l 1
 110 169 l 1
 147 184 l 1
 261 184 l 1
 376 184 l 1
 380 237 l 2
 383 267 406 388 432 508 c 2
 478 726 l 1
 352 726 l 1
 226 726 l 1
 212 739 l 2
 204 746 197 761 193 772 c 2
 187 791 l 1
 202 814 l 2
 211 826 230 841 244 847 c 2
 272 860 l 1
 407 861 l 2
 482 862 621 864 718 868 c 0
 760 870 802 871 837 871 c 0
 881 871 914 869 924 867 c 0
 957 859 971 833 965 806 c 0
 961 789 950 771 929 757 c 2
 897 737 l 1
 756 737 l 1
 614 737 l 1
 569 528 l 2
 545 413 520 291 517 256 c 2
 511 193 l 1
 525 198 l 2
 533 201 607 206 689 210 c 2
 838 217 l 1
 854 195 l 2
 863 183 870 161 867 148 c 2
 862 123 l 1
 831 102 l 1
 798 81 l 1
 747 81 l 2
 718 81 603 74 487 66 c 0
 319 54 208 49 142 49 c 0
 101 49 78 51 69 55 c 0
EndSplineSet
EndChar

StartChar: Idieresis
Encoding: 207 207 129
Width: 860
VWidth: 1074
Flags: HW
LayerCount: 2
Fore
SplineSet
69 55 m 0
 52 63 46 84 51 108 c 0
 53 116 55 125 60 133 c 2
 72 154 l 1
 110 169 l 1
 147 184 l 1
 261 184 l 1
 376 184 l 1
 380 237 l 2
 383 267 406 388 432 508 c 2
 478 726 l 1
 352 726 l 1
 226 726 l 1
 212 739 l 2
 204 746 197 761 193 772 c 2
 187 791 l 1
 202 814 l 2
 211 826 230 841 244 847 c 2
 272 860 l 1
 407 861 l 2
 482 862 621 864 718 868 c 0
 760 870 802 871 837 871 c 0
 881 871 914 869 924 867 c 0
 957 859 971 833 965 806 c 0
 961 789 950 771 929 757 c 2
 897 737 l 1
 756 737 l 1
 614 737 l 1
 569 528 l 2
 545 413 520 291 517 256 c 2
 511 193 l 1
 525 198 l 2
 533 201 607 206 689 210 c 2
 838 217 l 1
 854 195 l 2
 863 183 870 161 867 148 c 2
 862 123 l 1
 831 102 l 1
 798 81 l 1
 747 81 l 2
 718 81 603 74 487 66 c 0
 319 54 208 49 142 49 c 0
 101 49 78 51 69 55 c 0
EndSplineSet
EndChar

StartChar: Eth
Encoding: 208 208 130
Width: 782
VWidth: 1120
Flags: HW
LayerCount: 2
Fore
SplineSet
153 7 m 2
 110 13 l 1
 96 34 l 1
 85 56 l 1
 117 264 l 2
 135 379 161 532 177 606 c 2
 205 739 l 1
 194 758 l 2
 188 771 186 785 189 799 c 0
 192 815 202 833 220 850 c 0
 258 888 297 904 371 911 c 2
 435 917 l 1
 550 892 l 1
 664 868 l 1
 714 840 l 2
 814 784 879 662 869 552 c 2
 864 500 l 1
 840 445 l 2
 827 415 791 358 763 319 c 2
 712 247 l 1
 628 178 l 1
 544 108 l 1
 450 69 l 2
 369 35 293 13 217 2 c 0
 215 2 211 1 207 1 c 0
 193 1 172 4 153 7 c 2
385 172 m 2
 476 205 l 1
 551 267 l 1
 625 329 l 1
 666 386 l 1
 706 444 l 1
 725 500 l 1
 743 555 l 1
 730 596 l 2
 716 640 666 702 625 726 c 0
 612 734 554 750 499 762 c 2
 397 785 l 1
 370 778 l 1
 342 772 l 1
 294 514 l 2
 268 373 244 231 241 198 c 2
 235 140 l 1
 265 140 l 2
 281 140 335 154 385 172 c 2
EndSplineSet
EndChar

StartChar: Ntilde
Encoding: 209 209 131
Width: 742
VWidth: 1118
Flags: HW
LayerCount: 2
Fore
SplineSet
561 957 m 0
 551 963 526 993 504 1024 c 2
 465 1080 l 1
 393 1057 l 2
 354 1045 307 1023 288 1010 c 0
 266 994 248 987 233 987 c 0
 219 987 208 993 198 1006 c 0
 187 1020 184 1034 187 1050 c 0
 195 1088 242 1129 317 1160 c 0
 354 1175 410 1193 440 1199 c 2
 494 1210 l 1
 528 1200 l 1
 562 1191 l 1
 603 1134 l 1
 644 1078 l 1
 673 1084 l 2
 722 1095 836 1144 900 1183 c 0
 941 1207 963 1219 978 1219 c 0
 991 1219 999 1211 1011 1196 c 0
 1024 1180 1030 1168 1027 1155 c 0
 1023 1138 1005 1120 969 1092 c 2
 915 1048 l 1
 828 1010 l 2
 731 968 656 947 607 947 c 0
 587 947 573 950 561 957 c 0
67 13 m 0
 56 18 44 27 41 34 c 0
 39 40 67 185 107 371 c 0
 113 399 119 428 125 458 c 2
 215 868 l 1
 234 891 l 1
 254 914 l 1
 284 914 l 2
 332 914 343 903 359 848 c 0
 391 739 613 305 635 305 c 0
 636 305 636 306 636 307 c 0
 641 330 687 738 688 765 c 2
 688 797 l 1
 717 825 l 1
 744 852 l 1
 773 852 l 2
 788 852 806 845 813 835 c 2
 826 817 l 1
 811 668 l 2
 803 586 792 480 787 431 c 0
 782 382 769 284 757 214 c 2
 737 89 l 1
 720 66 l 2
 710 54 690 38 676 33 c 2
 648 24 l 1
 626 35 l 2
 613 41 594 66 584 89 c 0
 574 112 534 183 497 248 c 0
 430 363 331 545 308 596 c 2
 297 622 l 1
 250 403 l 2
 224 282 193 152 181 113 c 2
 159 42 l 1
 129 23 l 2
 110 10 102 5 93 5 c 0
 86 5 79 8 67 13 c 0
EndSplineSet
EndChar

StartChar: Ograve
Encoding: 210 210 132
Width: 877
VWidth: 1089
Flags: HW
LayerCount: 2
Fore
SplineSet
638 954 m 0
 557 970 493 995 469 1022 c 2
 451 1042 l 1
 457 1069 l 2
 464 1100 498 1129 527 1129 c 0
 538 1129 565 1121 587 1110 c 0
 609 1099 672 1084 728 1075 c 2
 830 1059 l 1
 839 1042 l 2
 844 1033 845 1013 842 998 c 2
 836 970 l 1
 811 955 l 1
 786 939 l 1
 745 940 l 2
 723 941 675 947 638 954 c 0
293 50 m 2
 240 66 l 1
 186 130 l 1
 130 194 l 1
 110 264 l 1
 91 333 l 1
 108 410 l 1
 126 488 l 1
 163 553 l 2
 216 646 245 686 304 740 c 0
 398 826 526 883 627 885 c 0
 635 885 646 885 659 885 c 0
 690 885 729 885 762 884 c 2
 843 881 l 1
 882 840 l 1
 920 800 l 1
 944 719 l 1
 969 639 l 1
 966 577 l 1
 962 514 l 1
 935 450 l 2
 899 365 884 342 818 264 c 0
 719 146 616 79 488 47 c 0
 452 38 422 34 393 34 c 0
 360 34 329 39 293 50 c 2
515 182 m 2
 574 199 l 1
 642 256 l 2
 680 288 730 339 753 370 c 2
 794 425 l 1
 817 507 l 1
 838 589 l 1
 823 635 l 2
 816 661 793 697 773 714 c 2
 738 746 l 1
 664 753 l 1
 591 760 l 1
 529 739 l 2
 414 699 336 625 269 493 c 0
 253 462 238 422 234 405 c 0
 219 336 276 221 344 181 c 0
 362 171 386 166 415 166 c 0
 444 166 479 171 515 182 c 2
EndSplineSet
EndChar

StartChar: Oacute
Encoding: 211 211 133
Width: 877
VWidth: 1089
Flags: HW
LayerCount: 2
Fore
SplineSet
461 930 m 2
 450 935 438 951 435 966 c 2
 431 993 l 1
 454 1017 l 1
 477 1041 l 1
 613 1095 l 1
 748 1149 l 1
 780 1149 l 1
 812 1149 l 1
 824 1131 l 2
 832 1119 835 1105 832 1091 c 0
 829 1079 822 1067 812 1056 c 0
 803 1047 755 1024 704 1004 c 0
 653 984 599 962 584 955 c 0
 569 948 539 936 519 931 c 2
 482 922 l 1
 461 930 l 2
293 50 m 2
 240 66 l 1
 186 130 l 1
 130 194 l 1
 110 264 l 1
 91 333 l 1
 108 410 l 1
 126 488 l 1
 163 553 l 2
 216 646 245 686 304 740 c 0
 398 826 526 883 627 885 c 0
 635 885 646 885 659 885 c 0
 690 885 729 885 762 884 c 2
 843 881 l 1
 882 840 l 1
 920 800 l 1
 944 719 l 1
 969 639 l 1
 966 577 l 1
 962 514 l 1
 935 450 l 2
 899 365 884 342 818 264 c 0
 719 146 616 79 488 47 c 0
 452 38 422 34 393 34 c 0
 360 34 329 39 293 50 c 2
515 182 m 2
 574 199 l 1
 642 256 l 2
 680 288 730 339 753 370 c 2
 794 425 l 1
 817 507 l 1
 838 589 l 1
 823 635 l 2
 816 661 793 697 773 714 c 2
 738 746 l 1
 664 753 l 1
 591 760 l 1
 529 739 l 2
 414 699 336 625 269 493 c 0
 253 462 238 422 234 405 c 0
 219 336 276 221 344 181 c 0
 362 171 386 166 415 166 c 0
 444 166 479 171 515 182 c 2
EndSplineSet
EndChar

StartChar: Ocircumflex
Encoding: 212 212 134
Width: 877
VWidth: 1089
Flags: HW
LayerCount: 2
Fore
SplineSet
430 967 m 0
 399 978 386 1000 392 1029 c 0
 396 1047 407 1067 424 1088 c 0
 461 1132 695 1318 731 1330 c 2
 758 1339 l 1
 784 1327 l 2
 799 1321 818 1301 826 1284 c 0
 838 1259 865 1129 873 1050 c 2
 875 1034 l 1
 844 1005 l 1
 814 977 l 1
 788 984 l 2
 749 994 733 1025 725 1104 c 2
 717 1174 l 1
 698 1165 l 2
 677 1155 537 1037 507 1004 c 0
 487 981 458 966 438 966 c 0
 435 966 433 966 430 967 c 0
293 50 m 2
 240 66 l 1
 186 130 l 1
 130 194 l 1
 110 264 l 1
 91 333 l 1
 108 410 l 1
 126 488 l 1
 163 553 l 2
 216 646 245 686 304 740 c 0
 398 826 526 883 627 885 c 0
 635 885 646 885 659 885 c 0
 690 885 729 885 762 884 c 2
 843 881 l 1
 882 840 l 1
 920 800 l 1
 944 719 l 1
 969 639 l 1
 966 577 l 1
 962 514 l 1
 935 450 l 2
 899 365 884 342 818 264 c 0
 719 146 616 79 488 47 c 0
 452 38 422 34 393 34 c 0
 360 34 329 39 293 50 c 2
515 182 m 2
 574 199 l 1
 642 256 l 2
 680 288 730 339 753 370 c 2
 794 425 l 1
 817 507 l 1
 838 589 l 1
 823 635 l 2
 816 661 793 697 773 714 c 2
 738 746 l 1
 664 753 l 1
 591 760 l 1
 529 739 l 2
 414 699 336 625 269 493 c 0
 253 462 238 422 234 405 c 0
 219 336 276 221 344 181 c 0
 362 171 386 166 415 166 c 0
 444 166 479 171 515 182 c 2
EndSplineSet
EndChar

StartChar: Otilde
Encoding: 213 213 135
Width: 877
VWidth: 1089
Flags: HW
LayerCount: 2
Fore
SplineSet
621 957 m 0
 611 963 586 993 564 1024 c 2
 525 1080 l 1
 453 1057 l 2
 414 1045 367 1023 348 1010 c 0
 326 994 308 987 293 987 c 0
 279 987 268 993 258 1006 c 0
 247 1020 244 1034 247 1050 c 0
 255 1088 302 1129 377 1160 c 0
 414 1175 470 1193 500 1199 c 2
 554 1210 l 1
 588 1200 l 1
 622 1191 l 1
 663 1134 l 1
 704 1078 l 1
 733 1084 l 2
 782 1095 896 1144 960 1183 c 0
 1001 1207 1023 1219 1038 1219 c 0
 1051 1219 1059 1211 1071 1196 c 0
 1084 1180 1090 1168 1087 1155 c 0
 1083 1138 1065 1120 1029 1092 c 2
 975 1048 l 1
 888 1010 l 2
 791 968 716 947 667 947 c 0
 647 947 633 950 621 957 c 0
293 50 m 2
 240 66 l 1
 186 130 l 1
 130 194 l 1
 110 264 l 1
 91 333 l 1
 108 410 l 1
 126 488 l 1
 163 553 l 2
 216 646 245 686 304 740 c 0
 398 826 526 883 627 885 c 0
 635 885 646 885 659 885 c 0
 690 885 729 885 762 884 c 2
 843 881 l 1
 882 840 l 1
 920 800 l 1
 944 719 l 1
 969 639 l 1
 966 577 l 1
 962 514 l 1
 935 450 l 2
 899 365 884 342 818 264 c 0
 719 146 616 79 488 47 c 0
 452 38 422 34 393 34 c 0
 360 34 329 39 293 50 c 2
515 182 m 2
 574 199 l 1
 642 256 l 2
 680 288 730 339 753 370 c 2
 794 425 l 1
 817 507 l 1
 838 589 l 1
 823 635 l 2
 816 661 793 697 773 714 c 2
 738 746 l 1
 664 753 l 1
 591 760 l 1
 529 739 l 2
 414 699 336 625 269 493 c 0
 253 462 238 422 234 405 c 0
 219 336 276 221 344 181 c 0
 362 171 386 166 415 166 c 0
 444 166 479 171 515 182 c 2
EndSplineSet
EndChar

StartChar: Odieresis
Encoding: 214 214 136
Width: 877
VWidth: 1089
Flags: HW
LayerCount: 2
Fore
SplineSet
293 50 m 2
 240 66 l 1
 186 130 l 1
 130 194 l 1
 110 264 l 1
 91 333 l 1
 108 410 l 1
 126 488 l 1
 163 553 l 2
 216 646 245 686 304 740 c 0
 398 826 526 883 627 885 c 0
 635 885 646 885 659 885 c 0
 690 885 729 885 762 884 c 2
 843 881 l 1
 882 840 l 1
 920 800 l 1
 944 719 l 1
 969 639 l 1
 966 577 l 1
 962 514 l 1
 935 450 l 2
 899 365 884 342 818 264 c 0
 719 146 616 79 488 47 c 0
 452 38 422 34 393 34 c 0
 360 34 329 39 293 50 c 2
515 182 m 2
 574 199 l 1
 642 256 l 2
 680 288 730 339 753 370 c 2
 794 425 l 1
 817 507 l 1
 838 589 l 1
 823 635 l 2
 816 661 793 697 773 714 c 2
 738 746 l 1
 664 753 l 1
 591 760 l 1
 529 739 l 2
 414 699 336 625 269 493 c 0
 253 462 238 422 234 405 c 0
 219 336 276 221 344 181 c 0
 362 171 386 166 415 166 c 0
 444 166 479 171 515 182 c 2
EndSplineSet
EndChar

StartChar: multiply
Encoding: 215 215 137
Width: 627
Flags: HW
LayerCount: 2
Fore
SplineSet
543 128 m 0
 518 138 491 162 442 216 c 0
 423 236 400 263 390 274 c 2
 371 294 l 1
 306 242 l 2
 270 213 234 189 226 187 c 0
 223 186 219 186 215 186 c 0
 191 186 170 200 165 222 c 2
 159 245 l 1
 179 276 l 2
 189 292 218 321 242 340 c 0
 266 359 288 381 289 387 c 0
 290 393 259 438 218 486 c 2
 145 574 l 1
 151 600 l 2
 158 634 193 659 233 659 c 2
 266 659 l 1
 337 573 l 1
 408 487 l 1
 521 578 l 1
 635 669 l 1
 664 669 l 1
 694 669 l 1
 706 651 l 2
 713 641 718 620 715 606 c 2
 709 580 l 1
 595 486 l 1
 479 392 l 1
 517 351 l 2
 538 328 574 291 599 268 c 0
 637 233 650 211 644 183 c 0
 643 177 640 170 637 163 c 0
 630 147 584 117 569 117 c 0
 568 117 568 117 567 117 c 0
 566 117 555 123 543 128 c 0
EndSplineSet
EndChar

StartChar: Oslash
Encoding: 216 216 138
Width: 1075
Flags: HW
LayerCount: 2
Fore
SplineSet
-9 -239 m 2
 -29 -220 l 1
 -25 -200 l 2
 -23 -189 -2 -162 17 -143 c 0
 36 -124 68 -93 84 -77 c 2
 116 -46 l 1
 101 -8 l 1
 88 31 l 1
 91 98 l 1
 94 165 l 1
 127 243 l 1
 158 321 l 1
 209 393 l 1
 259 465 l 1
 310 508 l 2
 378 565 428 594 532 635 c 0
 650 682 734 703 803 703 c 0
 838 703 868 698 897 687 c 2
 942 671 l 1
 984 703 l 2
 1007 721 1052 755 1085 778 c 2
 1143 819 l 1
 1170 819 l 1
 1198 819 l 1
 1208 798 l 1
 1218 775 l 1
 1208 754 l 1
 1197 733 l 1
 1108 669 l 1
 1018 604 l 1
 1019 578 l 2
 1019 563 1017 537 1017 523 c 0
 1017 509 1023 472 1031 442 c 0
 1039 412 1046 371 1043 348 c 0
 1042 340 1041 332 1039 324 c 0
 1019 232 946 112 860 40 c 0
 760 -45 619 -117 510 -142 c 2
 459 -154 l 1
 379 -148 l 2
 335 -145 274 -137 246 -129 c 2
 195 -115 l 1
 186 -122 l 2
 181 -126 153 -153 121 -182 c 0
 70 -229 32 -256 16 -257 c 0
 13 -257 1 -249 -9 -239 c 2
616 7 m 1
 701 45 l 1
 772 103 l 1
 843 162 l 1
 872 204 l 2
 888 228 909 269 917 297 c 2
 932 348 l 1
 922 383 l 2
 916 402 901 429 890 443 c 2
 868 468 l 1
 682 311 l 2
 580 224 452 115 400 68 c 2
 304 -18 l 1
 324 -23 l 2
 335 -25 351 -29 360 -31 c 0
 366 -32 390 -34 419 -34 c 0
 431 -34 443 -34 456 -33 c 2
 535 -30 l 1
 616 7 l 1
620 391 m 2
 837 575 l 1
 829 583 l 2
 823 587 807 589 786 589 c 0
 758 589 721 585 692 578 c 0
 633 563 502 513 457 488 c 0
 402 457 332 391 290 330 c 2
 252 273 l 1
 230 213 l 2
 223 192 217 171 213 151 c 0
 204 111 202 76 209 56 c 2
 215 40 l 1
 308 123 l 2
 360 169 501 290 620 391 c 2
EndSplineSet
EndChar

StartChar: Ugrave
Encoding: 217 217 139
Width: 648
VWidth: 1071
Flags: HW
LayerCount: 2
Fore
SplineSet
556 944 m 0
 475 960 411 985 387 1012 c 2
 369 1032 l 1
 375 1059 l 2
 382 1090 416 1119 445 1119 c 0
 456 1119 483 1111 505 1100 c 0
 527 1089 590 1074 646 1065 c 2
 748 1049 l 1
 757 1032 l 2
 762 1023 763 1003 760 988 c 2
 754 960 l 1
 729 945 l 1
 703 929 l 1
 663 930 l 2
 641 931 593 937 556 944 c 0
184 75 m 0
 124 109 93 161 86 233 c 2
 81 289 l 1
 110 397 l 2
 156 571 260 800 314 850 c 0
 327 862 343 868 359 868 c 0
 376 868 392 861 400 849 c 0
 408 837 410 821 406 801 c 0
 401 778 390 750 368 714 c 0
 321 634 279 527 244 398 c 2
 214 286 l 1
 220 254 l 2
 223 237 237 213 251 202 c 2
 276 182 l 1
 317 192 l 2
 374 206 453 267 498 328 c 0
 552 402 588 498 623 654 c 2
 655 790 l 1
 678 808 l 2
 693 820 708 826 723 826 c 0
 756 826 783 798 780 756 c 0
 779 753 779 746 777 738 c 0
 771 708 756 650 740 591 c 2
 704 454 l 1
 666 377 l 2
 616 276 558 204 481 146 c 0
 406 89 378 76 304 61 c 0
 272 55 256 51 243 51 c 0
 226 51 214 58 184 75 c 0
EndSplineSet
EndChar

StartChar: Uacute
Encoding: 218 218 140
Width: 648
VWidth: 1071
Flags: HW
LayerCount: 2
Fore
SplineSet
461 930 m 2
 450 935 438 951 435 966 c 2
 431 993 l 1
 454 1017 l 1
 477 1041 l 1
 613 1095 l 1
 748 1149 l 1
 780 1149 l 1
 812 1149 l 1
 824 1131 l 2
 832 1119 835 1105 832 1091 c 0
 829 1079 822 1067 812 1056 c 0
 803 1047 755 1024 704 1004 c 0
 653 984 599 962 584 955 c 0
 569 948 539 936 519 931 c 2
 482 922 l 1
 461 930 l 2
184 75 m 0
 124 109 93 161 86 233 c 2
 81 289 l 1
 110 397 l 2
 156 571 260 800 314 850 c 0
 327 862 343 868 359 868 c 0
 376 868 392 861 400 849 c 0
 408 837 410 821 406 801 c 0
 401 778 390 750 368 714 c 0
 321 634 279 527 244 398 c 2
 214 286 l 1
 220 254 l 2
 223 237 237 213 251 202 c 2
 276 182 l 1
 317 192 l 2
 374 206 453 267 498 328 c 0
 552 402 588 498 623 654 c 2
 655 790 l 1
 678 808 l 2
 693 820 708 826 723 826 c 0
 756 826 783 798 780 756 c 0
 779 753 779 746 777 738 c 0
 771 708 756 650 740 591 c 2
 704 454 l 1
 666 377 l 2
 616 276 558 204 481 146 c 0
 406 89 378 76 304 61 c 0
 272 55 256 51 243 51 c 0
 226 51 214 58 184 75 c 0
EndSplineSet
EndChar

StartChar: Ucircumflex
Encoding: 219 219 141
Width: 648
VWidth: 1071
Flags: HW
LayerCount: 2
Fore
SplineSet
430 967 m 0
 399 978 386 1000 392 1029 c 0
 396 1047 407 1067 424 1088 c 0
 461 1132 695 1318 731 1330 c 2
 758 1339 l 1
 784 1327 l 2
 799 1321 818 1301 826 1284 c 0
 838 1259 865 1129 873 1050 c 2
 875 1034 l 1
 844 1005 l 1
 814 977 l 1
 788 984 l 2
 749 994 733 1025 725 1104 c 2
 717 1174 l 1
 698 1165 l 2
 677 1155 537 1037 507 1004 c 0
 487 981 458 966 438 966 c 0
 435 966 433 966 430 967 c 0
184 75 m 0
 124 109 93 161 86 233 c 2
 81 289 l 1
 110 397 l 2
 156 571 260 800 314 850 c 0
 327 862 343 868 359 868 c 0
 376 868 392 861 400 849 c 0
 408 837 410 821 406 801 c 0
 401 778 390 750 368 714 c 0
 321 634 279 527 244 398 c 2
 214 286 l 1
 220 254 l 2
 223 237 237 213 251 202 c 2
 276 182 l 1
 317 192 l 2
 374 206 453 267 498 328 c 0
 552 402 588 498 623 654 c 2
 655 790 l 1
 678 808 l 2
 693 820 708 826 723 826 c 0
 756 826 783 798 780 756 c 0
 779 753 779 746 777 738 c 0
 771 708 756 650 740 591 c 2
 704 454 l 1
 666 377 l 2
 616 276 558 204 481 146 c 0
 406 89 378 76 304 61 c 0
 272 55 256 51 243 51 c 0
 226 51 214 58 184 75 c 0
EndSplineSet
EndChar

StartChar: Udieresis
Encoding: 220 220 142
Width: 648
VWidth: 1071
Flags: HW
LayerCount: 2
Fore
SplineSet
184 75 m 0
 124 109 93 161 86 233 c 2
 81 289 l 1
 110 397 l 2
 156 571 260 800 314 850 c 0
 327 862 343 868 359 868 c 0
 376 868 392 861 400 849 c 0
 408 837 410 821 406 801 c 0
 401 778 390 750 368 714 c 0
 321 634 279 527 244 398 c 2
 214 286 l 1
 220 254 l 2
 223 237 237 213 251 202 c 2
 276 182 l 1
 317 192 l 2
 374 206 453 267 498 328 c 0
 552 402 588 498 623 654 c 2
 655 790 l 1
 678 808 l 2
 693 820 708 826 723 826 c 0
 756 826 783 798 780 756 c 0
 779 753 779 746 777 738 c 0
 771 708 756 650 740 591 c 2
 704 454 l 1
 666 377 l 2
 616 276 558 204 481 146 c 0
 406 89 378 76 304 61 c 0
 272 55 256 51 243 51 c 0
 226 51 214 58 184 75 c 0
EndSplineSet
EndChar

StartChar: Yacute
Encoding: 221 221 143
Width: 639
VWidth: 1214
Flags: HW
LayerCount: 2
Fore
SplineSet
376 860 m 2
 365 865 353 881 350 896 c 2
 346 923 l 1
 369 947 l 1
 392 971 l 1
 528 1025 l 1
 663 1079 l 1
 695 1079 l 1
 727 1079 l 1
 740 1061 l 2
 748 1049 750 1035 747 1021 c 0
 744 1009 738 997 728 986 c 0
 719 977 671 954 620 934 c 0
 569 914 514 892 499 885 c 0
 484 878 454 866 434 861 c 2
 397 852 l 1
 376 860 l 2
295 38 m 2
 271 68 l 1
 285 132 l 2
 293 168 305 246 312 304 c 2
 325 410 l 1
 314 427 l 2
 305 441 225 641 193 728 c 2
 181 762 l 1
 194 790 l 2
 201 805 219 825 235 834 c 2
 265 851 l 1
 287 840 l 2
 299 834 315 811 323 788 c 0
 384 625 405 582 408 582 c 0
 410 582 435 603 465 630 c 0
 591 744 696 817 733 817 c 0
 763 817 783 787 776 754 c 2
 771 727 l 1
 620 603 l 1
 469 478 l 1
 459 400 l 2
 454 357 439 261 427 187 c 2
 404 52 l 1
 372 31 l 2
 351 17 339 10 329 10 c 0
 318 10 310 19 295 38 c 2
EndSplineSet
EndChar

StartChar: Thorn
Encoding: 222 222 144
Width: 441
Flags: HW
LayerCount: 2
Fore
SplineSet
77 152 m 1
 64 174 l 1
 116 421 l 1
 169 668 l 1
 183 686 l 2
 190 696 202 710 208 713 c 0
 215 717 224 719 234 719 c 0
 251 719 269 713 276 703 c 2
 287 687 l 1
 278 646 l 1
 270 606 l 1
 306 620 l 1
 342 633 l 1
 383 628 l 2
 435 622 483 591 498 555 c 0
 504 540 510 507 509 481 c 2
 507 432 l 1
 488 390 l 1
 467 347 l 1
 431 313 l 2
 411 294 378 272 363 265 c 0
 343 256 317 251 293 251 c 0
 270 251 249 255 233 264 c 0
 219 272 205 278 203 278 c 0
 201 278 195 253 188 221 c 2
 176 164 l 1
 155 146 l 2
 144 137 124 128 112 128 c 2
 91 128 l 1
 77 152 l 1
363 390 m 1
 383 414 l 1
 389 449 l 1
 397 485 l 1
 379 500 l 2
 370 509 353 516 341 516 c 2
 318 516 l 1
 283 489 l 1
 249 460 l 1
 243 434 l 1
 237 406 l 1
 265 387 l 2
 281 377 306 369 319 368 c 2
 342 367 l 1
 363 390 l 1
EndSplineSet
EndChar

StartChar: germandbls
Encoding: 223 223 145
Width: 628
Flags: HW
LayerCount: 2
Fore
SplineSet
30 -92 m 2
 13 -69 l 1
 39 57 l 2
 46 92 57 147 70 207 c 0
 83 267 98 333 110 390 c 2
 157 598 l 1
 187 662 l 2
 218 730 258 789 289 817 c 0
 299 826 328 844 356 856 c 2
 405 878 l 1
 488 878 l 1
 572 879 l 1
 612 856 l 2
 682 815 718 742 713 647 c 2
 709 592 l 1
 684 542 l 2
 671 514 642 469 620 440 c 2
 579 389 l 1
 598 368 l 2
 609 357 627 322 637 292 c 2
 654 237 l 1
 645 192 l 1
 635 147 l 1
 614 117 l 2
 603 101 577 75 559 61 c 0
 520 29 434 -7 398 -7 c 0
 341 -7 264 40 243 87 c 0
 237 101 236 115 239 129 c 0
 246 160 272 187 304 187 c 2
 326 187 l 1
 346 157 l 2
 358 141 377 123 387 117 c 2
 406 106 l 1
 436 111 l 1
 466 117 l 1
 501 149 l 1
 535 181 l 1
 535 203 l 2
 534 233 506 290 490 297 c 0
 488 298 485 298 481 298 c 0
 471 298 458 296 445 292 c 2
 413 282 l 1
 385 288 l 1
 356 293 l 1
 343 317 l 2
 334 332 332 348 335 362 c 0
 338 375 346 387 359 398 c 2
 379 414 l 1
 425 420 l 1
 473 428 l 1
 515 475 l 2
 538 502 565 541 576 564 c 2
 595 605 l 1
 596 645 l 2
 597 694 576 736 537 756 c 2
 507 772 l 1
 449 766 l 2
 416 763 380 755 370 750 c 0
 349 740 309 680 283 621 c 2
 265 581 l 1
 195 254 l 2
 157 74 121 -78 117 -83 c 0
 108 -94 70 -113 57 -113 c 0
 52 -113 39 -104 30 -92 c 2
EndSplineSet
EndChar

StartChar: agrave
Encoding: 224 224 146
Width: 644
VWidth: 737
Flags: HW
LayerCount: 2
Fore
SplineSet
466 614 m 0
 385 630 321 655 297 682 c 2
 279 702 l 1
 285 729 l 2
 292 760 326 789 355 789 c 0
 366 789 393 781 415 770 c 0
 437 759 500 744 556 735 c 2
 658 719 l 1
 667 702 l 2
 672 693 673 673 670 658 c 2
 664 630 l 1
 639 615 l 1
 613 599 l 1
 573 600 l 2
 551 601 503 607 466 614 c 0
157 15 m 0
 121 37 87 78 69 121 c 2
 54 156 l 1
 69 228 l 1
 85 300 l 1
 116 348 l 2
 179 442 320 527 432 538 c 2
 487 544 l 1
 550 519 l 1
 614 495 l 1
 624 473 l 1
 635 451 l 1
 594 337 l 2
 572 275 551 209 548 193 c 2
 542 163 l 1
 579 169 l 1
 616 175 l 1
 632 157 l 1
 649 138 l 1
 644 111 l 1
 637 82 l 1
 595 51 l 2
 572 34 539 17 521 13 c 2
 488 7 l 1
 461 24 l 2
 446 33 429 51 423 65 c 2
 410 90 l 1
 361 54 l 2
 310 18 261 -1 218 -1 c 0
 195 -1 175 4 157 15 c 0
304 158 m 0
 349 190 443 321 455 368 c 2
 464 402 l 1
 435 406 l 2
 432 406 430 407 426 407 c 0
 382 407 317 379 268 338 c 2
 222 299 l 1
 205 248 l 1
 187 197 l 1
 208 164 l 2
 222 143 233 133 249 133 c 0
 263 133 280 141 304 158 c 0
EndSplineSet
EndChar

StartChar: aacute
Encoding: 225 225 147
Width: 644
VWidth: 737
Flags: HW
LayerCount: 2
Fore
SplineSet
296 580 m 2
 285 585 274 601 271 616 c 2
 267 643 l 1
 290 667 l 1
 313 691 l 1
 448 745 l 1
 584 799 l 1
 616 799 l 1
 648 799 l 1
 660 781 l 2
 668 769 671 755 668 741 c 0
 665 729 658 717 648 706 c 0
 639 697 591 674 540 654 c 0
 489 634 435 612 420 605 c 0
 405 598 374 586 354 581 c 2
 318 572 l 1
 296 580 l 2
157 15 m 0
 121 37 87 78 69 121 c 2
 54 156 l 1
 69 228 l 1
 85 300 l 1
 116 348 l 2
 179 442 320 527 432 538 c 2
 487 544 l 1
 550 519 l 1
 614 495 l 1
 624 473 l 1
 635 451 l 1
 594 337 l 2
 572 275 551 209 548 193 c 2
 542 163 l 1
 579 169 l 1
 616 175 l 1
 632 157 l 1
 649 138 l 1
 644 111 l 1
 637 82 l 1
 595 51 l 2
 572 34 539 17 521 13 c 2
 488 7 l 1
 461 24 l 2
 446 33 429 51 423 65 c 2
 410 90 l 1
 361 54 l 2
 310 18 261 -1 218 -1 c 0
 195 -1 175 4 157 15 c 0
304 158 m 0
 349 190 443 321 455 368 c 2
 464 402 l 1
 435 406 l 2
 432 406 430 407 426 407 c 0
 382 407 317 379 268 338 c 2
 222 299 l 1
 205 248 l 1
 187 197 l 1
 208 164 l 2
 222 143 233 133 249 133 c 0
 263 133 280 141 304 158 c 0
EndSplineSet
EndChar

StartChar: acircumflex
Encoding: 226 226 148
Width: 644
VWidth: 737
Flags: HW
LayerCount: 2
Fore
SplineSet
291 597 m 0
 260 608 247 630 253 659 c 0
 257 677 269 697 286 718 c 0
 323 762 556 948 592 960 c 2
 619 969 l 1
 645 957 l 2
 660 951 679 931 687 914 c 0
 699 889 727 759 735 680 c 2
 736 664 l 1
 705 635 l 1
 675 607 l 1
 650 614 l 2
 611 624 594 655 586 734 c 2
 578 804 l 1
 559 795 l 2
 538 785 399 667 369 634 c 0
 349 611 320 596 300 596 c 0
 297 596 294 596 291 597 c 0
157 15 m 0
 121 37 87 78 69 121 c 2
 54 156 l 1
 69 228 l 1
 85 300 l 1
 116 348 l 2
 179 442 320 527 432 538 c 2
 487 544 l 1
 550 519 l 1
 614 495 l 1
 624 473 l 1
 635 451 l 1
 594 337 l 2
 572 275 551 209 548 193 c 2
 542 163 l 1
 579 169 l 1
 616 175 l 1
 632 157 l 1
 649 138 l 1
 644 111 l 1
 637 82 l 1
 595 51 l 2
 572 34 539 17 521 13 c 2
 488 7 l 1
 461 24 l 2
 446 33 429 51 423 65 c 2
 410 90 l 1
 361 54 l 2
 310 18 261 -1 218 -1 c 0
 195 -1 175 4 157 15 c 0
304 158 m 0
 349 190 443 321 455 368 c 2
 464 402 l 1
 435 406 l 2
 432 406 430 407 426 407 c 0
 382 407 317 379 268 338 c 2
 222 299 l 1
 205 248 l 1
 187 197 l 1
 208 164 l 2
 222 143 233 133 249 133 c 0
 263 133 280 141 304 158 c 0
EndSplineSet
EndChar

StartChar: atilde
Encoding: 227 227 149
Width: 644
VWidth: 737
Flags: HW
LayerCount: 2
Fore
SplineSet
465 597 m 0
 455 603 429 633 407 664 c 2
 368 720 l 1
 296 697 l 2
 257 685 210 663 191 650 c 0
 169 634 151 627 136 627 c 0
 122 627 111 633 101 646 c 0
 90 660 88 674 91 690 c 0
 99 728 145 769 220 800 c 0
 257 815 313 833 343 839 c 2
 398 850 l 1
 432 840 l 1
 466 831 l 1
 507 774 l 1
 548 718 l 1
 577 724 l 2
 626 735 740 784 804 823 c 0
 845 847 867 859 882 859 c 0
 895 859 903 851 915 836 c 0
 928 820 933 808 930 795 c 0
 926 778 909 760 873 732 c 2
 818 688 l 1
 731 650 l 2
 634 608 560 587 511 587 c 0
 491 587 477 590 465 597 c 0
157 15 m 0
 121 37 87 78 69 121 c 2
 54 156 l 1
 69 228 l 1
 85 300 l 1
 116 348 l 2
 179 442 320 527 432 538 c 2
 487 544 l 1
 550 519 l 1
 614 495 l 1
 624 473 l 1
 635 451 l 1
 594 337 l 2
 572 275 551 209 548 193 c 2
 542 163 l 1
 579 169 l 1
 616 175 l 1
 632 157 l 1
 649 138 l 1
 644 111 l 1
 637 82 l 1
 595 51 l 2
 572 34 539 17 521 13 c 2
 488 7 l 1
 461 24 l 2
 446 33 429 51 423 65 c 2
 410 90 l 1
 361 54 l 2
 310 18 261 -1 218 -1 c 0
 195 -1 175 4 157 15 c 0
304 158 m 0
 349 190 443 321 455 368 c 2
 464 402 l 1
 435 406 l 2
 432 406 430 407 426 407 c 0
 382 407 317 379 268 338 c 2
 222 299 l 1
 205 248 l 1
 187 197 l 1
 208 164 l 2
 222 143 233 133 249 133 c 0
 263 133 280 141 304 158 c 0
EndSplineSet
EndChar

StartChar: adieresis
Encoding: 228 228 150
Width: 644
VWidth: 737
Flags: HW
LayerCount: 2
Fore
SplineSet
517 569 m 0
 491 579 472 617 478 646 c 0
 481 658 498 683 516 700 c 2
 550 732 l 1
 584 732 l 1
 618 732 l 1
 629 709 l 2
 635 697 636 670 632 650 c 2
 624 612 l 1
 598 592 l 2
 573 573 555 564 539 564 c 0
 532 564 524 566 517 569 c 0
307 576 m 0
 291 583 275 600 272 614 c 2
 266 640 l 1
 278 667 l 2
 285 682 305 706 321 719 c 2
 350 743 l 1
 385 743 l 1
 420 743 l 1
 436 720 l 2
 447 705 452 690 448 673 c 0
 444 656 432 636 411 611 c 0
 385 580 366 567 344 567 c 0
 333 567 321 570 307 576 c 0
157 15 m 0
 121 37 87 78 69 121 c 2
 54 156 l 1
 69 228 l 1
 85 300 l 1
 116 348 l 2
 179 442 320 527 432 538 c 2
 487 544 l 1
 550 519 l 1
 614 495 l 1
 624 473 l 1
 635 451 l 1
 594 337 l 2
 572 275 551 209 548 193 c 2
 542 163 l 1
 579 169 l 1
 616 175 l 1
 632 157 l 1
 649 138 l 1
 644 111 l 1
 637 82 l 1
 595 51 l 2
 572 34 539 17 521 13 c 2
 488 7 l 1
 461 24 l 2
 446 33 429 51 423 65 c 2
 410 90 l 1
 361 54 l 2
 310 18 261 -1 218 -1 c 0
 195 -1 175 4 157 15 c 0
304 158 m 0
 349 190 443 321 455 368 c 2
 464 402 l 1
 435 406 l 2
 432 406 430 407 426 407 c 0
 382 407 317 379 268 338 c 2
 222 299 l 1
 205 248 l 1
 187 197 l 1
 208 164 l 2
 222 143 233 133 249 133 c 0
 263 133 280 141 304 158 c 0
EndSplineSet
EndChar

StartChar: aring
Encoding: 229 229 151
Width: 644
VWidth: 737
Flags: HW
LayerCount: 2
Fore
SplineSet
372 591 m 0
 324 609 295 641 285 686 c 2
 275 730 l 1
 297 782 l 2
 309 810 335 853 354 877 c 2
 389 921 l 1
 441 950 l 1
 493 979 l 1
 542 979 l 2
 650 979 713 942 712 878 c 2
 711 848 l 1
 691 820 l 1
 670 792 l 1
 672 770 l 1
 673 748 l 1
 647 705 l 2
 602 629 513 580 433 580 c 0
 411 580 392 584 372 591 c 0
513 725 m 0
 529 735 539 744 541 753 c 0
 543 762 536 770 523 778 c 0
 511 785 499 802 496 815 c 0
 492 830 488 837 481 837 c 0
 472 837 458 823 439 793 c 2
 409 747 l 1
 422 728 l 1
 436 709 l 1
 462 709 l 2
 476 709 499 716 513 725 c 0
157 15 m 0
 121 37 87 78 69 121 c 2
 54 156 l 1
 69 228 l 1
 85 300 l 1
 116 348 l 2
 179 442 320 527 432 538 c 2
 487 544 l 1
 550 519 l 1
 614 495 l 1
 624 473 l 1
 635 451 l 1
 594 337 l 2
 572 275 551 209 548 193 c 2
 542 163 l 1
 579 169 l 1
 616 175 l 1
 632 157 l 1
 649 138 l 1
 644 111 l 1
 637 82 l 1
 595 51 l 2
 572 34 539 17 521 13 c 2
 488 7 l 1
 461 24 l 2
 446 33 429 51 423 65 c 2
 410 90 l 1
 361 54 l 2
 310 18 261 -1 218 -1 c 0
 195 -1 175 4 157 15 c 0
304 158 m 0
 349 190 443 321 455 368 c 2
 464 402 l 1
 435 406 l 2
 432 406 430 407 426 407 c 0
 382 407 317 379 268 338 c 2
 222 299 l 1
 205 248 l 1
 187 197 l 1
 208 164 l 2
 222 143 233 133 249 133 c 0
 263 133 280 141 304 158 c 0
EndSplineSet
EndChar

StartChar: ae
Encoding: 230 230 152
Width: 644
VWidth: 737
Flags: HW
LayerCount: 2
Fore
SplineSet
157 15 m 0
 121 37 87 78 69 121 c 2
 54 156 l 1
 69 228 l 1
 85 300 l 1
 116 348 l 2
 179 442 320 527 432 538 c 2
 487 544 l 1
 550 519 l 1
 614 495 l 1
 624 473 l 1
 635 451 l 1
 594 337 l 2
 572 275 551 209 548 193 c 2
 542 163 l 1
 579 169 l 1
 616 175 l 1
 632 157 l 1
 649 138 l 1
 644 111 l 1
 637 82 l 1
 595 51 l 2
 572 34 539 17 521 13 c 2
 488 7 l 1
 461 24 l 2
 446 33 429 51 423 65 c 2
 410 90 l 1
 361 54 l 2
 310 18 261 -1 218 -1 c 0
 195 -1 175 4 157 15 c 0
304 158 m 0
 349 190 443 321 455 368 c 2
 464 402 l 1
 435 406 l 2
 432 406 430 407 426 407 c 0
 382 407 317 379 268 338 c 2
 222 299 l 1
 205 248 l 1
 187 197 l 1
 208 164 l 2
 222 143 233 133 249 133 c 0
 263 133 280 141 304 158 c 0
EndSplineSet
EndChar

StartChar: ccedilla
Encoding: 231 231 153
Width: 610
VWidth: 785
Flags: HW
LayerCount: 2
Fore
SplineSet
195 17 m 2
 158 28 l 1
 122 73 l 2
 101 98 79 137 73 161 c 2
 64 205 l 1
 76 261 l 2
 93 335 114 370 189 450 c 2
 251 515 l 1
 313 543 l 1
 374 569 l 1
 436 575 l 1
 498 581 l 1
 566 559 l 1
 632 538 l 1
 656 501 l 1
 682 465 l 1
 674 429 l 1
 667 393 l 1
 635 368 l 2
 614 351 597 343 582 343 c 0
 560 343 545 360 534 393 c 2
 522 432 l 1
 484 438 l 2
 460 442 441 444 423 444 c 0
 396 444 374 439 350 429 c 2
 312 413 l 1
 264 357 l 1
 217 303 l 1
 209 264 l 1
 201 225 l 1
 213 197 l 2
 232 156 253 139 311 139 c 0
 339 139 376 143 424 150 c 0
 454 154 486 156 507 156 c 0
 517 156 524 156 528 155 c 2
 550 148 l 1
 553 127 l 2
 553 119 554 112 552 104 c 0
 547 79 529 55 507 44 c 0
 459 21 367 7 289 7 c 0
 252 7 220 10 195 17 c 2
EndSplineSet
EndChar

StartChar: egrave
Encoding: 232 232 154
Width: 660
VWidth: 806
Flags: HW
LayerCount: 2
Fore
SplineSet
483 694 m 0
 402 710 338 735 314 762 c 2
 296 782 l 1
 302 809 l 2
 309 840 343 869 372 869 c 0
 383 869 410 861 432 850 c 0
 454 839 517 824 573 815 c 2
 675 799 l 1
 684 782 l 2
 689 773 690 753 687 738 c 2
 681 710 l 1
 656 695 l 1
 630 679 l 1
 590 680 l 2
 568 681 520 687 483 694 c 0
240 18 m 0
 156 42 102 112 88 215 c 2
 79 275 l 1
 98 342 l 1
 116 409 l 1
 150 458 l 2
 191 514 257 565 334 600 c 2
 386 624 l 1
 493 624 l 1
 601 624 l 1
 632 602 l 2
 649 591 668 565 674 546 c 2
 686 511 l 1
 668 456 l 1
 651 401 l 1
 617 366 l 2
 551 298 487 274 319 256 c 2
 217 245 l 1
 232 209 l 2
 241 190 265 165 285 154 c 2
 319 133 l 1
 390 146 l 2
 428 153 492 173 530 189 c 0
 575 208 606 218 627 218 c 0
 644 218 655 212 663 200 c 0
 671 187 673 173 670 159 c 0
 667 147 661 134 649 121 c 0
 619 89 496 37 403 19 c 0
 354 10 329 5 307 5 c 0
 286 5 269 10 240 18 c 0
457 406 m 0
 477 412 505 423 517 432 c 2
 538 449 l 1
 540 469 l 1
 541 490 l 1
 481 494 l 2
 476 494 471 494 465 494 c 0
 434 494 398 490 380 485 c 0
 337 473 255 415 250 393 c 2
 247 381 l 1
 332 387 l 2
 379 391 437 400 457 406 c 0
EndSplineSet
EndChar

StartChar: eacute
Encoding: 233 233 155
Width: 660
VWidth: 806
Flags: HW
LayerCount: 2
Fore
SplineSet
315 670 m 2
 304 675 293 691 290 706 c 2
 286 733 l 1
 309 757 l 1
 332 781 l 1
 467 835 l 1
 603 889 l 1
 635 889 l 1
 667 889 l 1
 679 871 l 2
 687 859 690 845 687 831 c 0
 684 819 677 807 667 796 c 0
 658 787 610 764 559 744 c 0
 508 724 454 702 439 695 c 0
 424 688 394 676 374 671 c 2
 337 662 l 1
 315 670 l 2
240 18 m 0
 156 42 102 112 88 215 c 2
 79 275 l 1
 98 342 l 1
 116 409 l 1
 150 458 l 2
 191 514 257 565 334 600 c 2
 386 624 l 1
 493 624 l 1
 601 624 l 1
 632 602 l 2
 649 591 668 565 674 546 c 2
 686 511 l 1
 668 456 l 1
 651 401 l 1
 617 366 l 2
 551 298 487 274 319 256 c 2
 217 245 l 1
 232 209 l 2
 241 190 265 165 285 154 c 2
 319 133 l 1
 390 146 l 2
 428 153 492 173 530 189 c 0
 575 208 606 218 627 218 c 0
 644 218 655 212 663 200 c 0
 671 187 673 173 670 159 c 0
 667 147 661 134 649 121 c 0
 619 89 496 37 403 19 c 0
 354 10 329 5 307 5 c 0
 286 5 269 10 240 18 c 0
457 406 m 0
 477 412 505 423 517 432 c 2
 538 449 l 1
 540 469 l 1
 541 490 l 1
 481 494 l 2
 476 494 471 494 465 494 c 0
 434 494 398 490 380 485 c 0
 337 473 255 415 250 393 c 2
 247 381 l 1
 332 387 l 2
 379 391 437 400 457 406 c 0
EndSplineSet
EndChar

StartChar: ecircumflex
Encoding: 234 234 156
Width: 660
VWidth: 806
Flags: HW
LayerCount: 2
Fore
SplineSet
299 637 m 0
 268 648 256 670 262 699 c 0
 266 717 277 737 294 758 c 0
 331 802 565 988 601 1000 c 2
 627 1009 l 1
 654 997 l 2
 669 991 688 971 696 954 c 0
 708 929 735 799 743 720 c 2
 745 704 l 1
 713 675 l 1
 684 647 l 1
 658 654 l 2
 619 664 603 695 595 774 c 2
 586 844 l 1
 567 835 l 2
 546 825 407 707 377 674 c 0
 357 651 328 636 308 636 c 0
 305 636 302 636 299 637 c 0
240 18 m 0
 156 42 102 112 88 215 c 2
 79 275 l 1
 98 342 l 1
 116 409 l 1
 150 458 l 2
 191 514 257 565 334 600 c 2
 386 624 l 1
 493 624 l 1
 601 624 l 1
 632 602 l 2
 649 591 668 565 674 546 c 2
 686 511 l 1
 668 456 l 1
 651 401 l 1
 617 366 l 2
 551 298 487 274 319 256 c 2
 217 245 l 1
 232 209 l 2
 241 190 265 165 285 154 c 2
 319 133 l 1
 390 146 l 2
 428 153 492 173 530 189 c 0
 575 208 606 218 627 218 c 0
 644 218 655 212 663 200 c 0
 671 187 673 173 670 159 c 0
 667 147 661 134 649 121 c 0
 619 89 496 37 403 19 c 0
 354 10 329 5 307 5 c 0
 286 5 269 10 240 18 c 0
457 406 m 0
 477 412 505 423 517 432 c 2
 538 449 l 1
 540 469 l 1
 541 490 l 1
 481 494 l 2
 476 494 471 494 465 494 c 0
 434 494 398 490 380 485 c 0
 337 473 255 415 250 393 c 2
 247 381 l 1
 332 387 l 2
 379 391 437 400 457 406 c 0
EndSplineSet
EndChar

StartChar: edieresis
Encoding: 235 235 157
Width: 660
VWidth: 806
Flags: HW
LayerCount: 2
Fore
SplineSet
536 659 m 0
 510 669 491 707 497 736 c 0
 500 748 517 773 535 790 c 2
 569 822 l 1
 603 822 l 1
 637 822 l 1
 648 799 l 2
 654 787 655 760 651 740 c 2
 643 702 l 1
 617 682 l 2
 592 663 574 654 558 654 c 0
 551 654 543 656 536 659 c 0
327 666 m 0
 311 673 294 690 291 704 c 2
 285 730 l 1
 297 757 l 2
 304 772 324 796 340 809 c 2
 369 833 l 1
 404 833 l 1
 439 833 l 1
 455 810 l 2
 466 795 471 780 467 763 c 0
 463 746 451 726 430 701 c 0
 404 670 385 657 363 657 c 0
 352 657 341 660 327 666 c 0
240 18 m 0
 156 42 102 112 88 215 c 2
 79 275 l 1
 98 342 l 1
 116 409 l 1
 150 458 l 2
 191 514 257 565 334 600 c 2
 386 624 l 1
 493 624 l 1
 601 624 l 1
 632 602 l 2
 649 591 668 565 674 546 c 2
 686 511 l 1
 668 456 l 1
 651 401 l 1
 617 366 l 2
 551 298 487 274 319 256 c 2
 217 245 l 1
 232 209 l 2
 241 190 265 165 285 154 c 2
 319 133 l 1
 390 146 l 2
 428 153 492 173 530 189 c 0
 575 208 606 218 627 218 c 0
 644 218 655 212 663 200 c 0
 671 187 673 173 670 159 c 0
 667 147 661 134 649 121 c 0
 619 89 496 37 403 19 c 0
 354 10 329 5 307 5 c 0
 286 5 269 10 240 18 c 0
457 406 m 0
 477 412 505 423 517 432 c 2
 538 449 l 1
 540 469 l 1
 541 490 l 1
 481 494 l 2
 476 494 471 494 465 494 c 0
 434 494 398 490 380 485 c 0
 337 473 255 415 250 393 c 2
 247 381 l 1
 332 387 l 2
 379 391 437 400 457 406 c 0
EndSplineSet
EndChar

StartChar: igrave
Encoding: 236 236 158
Width: 444
VWidth: 846
Flags: HW
LayerCount: 2
Fore
SplineSet
282 504 m 0
 201 520 138 545 114 572 c 2
 96 592 l 1
 102 619 l 2
 109 650 142 679 171 679 c 0
 182 679 209 671 231 660 c 0
 253 649 317 634 373 625 c 2
 474 609 l 1
 484 592 l 2
 489 583 489 563 486 548 c 2
 481 520 l 1
 455 505 l 1
 430 489 l 1
 389 490 l 2
 367 491 319 497 282 504 c 0
111 24 m 0
 77 42 63 69 58 126 c 2
 54 167 l 1
 81 242 l 2
 110 321 186 444 219 466 c 0
 232 474 245 478 257 478 c 0
 288 478 311 452 303 415 c 0
 300 401 281 362 260 327 c 0
 239 292 213 240 202 209 c 2
 185 154 l 1
 195 145 l 2
 199 142 206 140 214 140 c 0
 242 140 287 159 332 191 c 2
 389 232 l 1
 413 232 l 2
 444 232 463 202 455 165 c 2
 448 134 l 1
 403 97 l 2
 377 77 330 48 297 34 c 2
 238 7 l 1
 188 7 l 2
 161 7 127 15 111 24 c 0
EndSplineSet
EndChar

StartChar: iacute
Encoding: 237 237 159
Width: 444
VWidth: 846
Flags: HW
LayerCount: 2
Fore
SplineSet
136 530 m 2
 125 535 113 551 110 566 c 2
 106 593 l 1
 129 617 l 1
 152 641 l 1
 288 695 l 1
 423 749 l 1
 455 749 l 1
 487 749 l 1
 499 731 l 2
 507 719 510 705 507 691 c 0
 504 679 497 667 487 656 c 0
 478 647 430 624 379 604 c 0
 328 584 274 562 259 555 c 0
 244 548 214 536 194 531 c 2
 157 522 l 1
 136 530 l 2
111 24 m 0
 77 42 63 69 58 126 c 2
 54 167 l 1
 81 242 l 2
 110 321 186 444 219 466 c 0
 232 474 245 478 257 478 c 0
 288 478 311 452 303 415 c 0
 300 401 281 362 260 327 c 0
 239 292 213 240 202 209 c 2
 185 154 l 1
 195 145 l 2
 199 142 206 140 214 140 c 0
 242 140 287 159 332 191 c 2
 389 232 l 1
 413 232 l 2
 444 232 463 202 455 165 c 2
 448 134 l 1
 403 97 l 2
 377 77 330 48 297 34 c 2
 238 7 l 1
 188 7 l 2
 161 7 127 15 111 24 c 0
EndSplineSet
EndChar

StartChar: icircumflex
Encoding: 238 238 160
Width: 444
VWidth: 846
Flags: HW
LayerCount: 2
Fore
SplineSet
92 507 m 0
 61 518 48 540 54 569 c 0
 58 587 69 607 86 628 c 0
 123 672 357 858 393 870 c 2
 420 879 l 1
 446 867 l 2
 461 861 480 841 488 824 c 0
 500 799 527 669 535 590 c 2
 537 574 l 1
 506 545 l 1
 476 517 l 1
 450 524 l 2
 411 534 395 565 387 644 c 2
 379 714 l 1
 360 705 l 2
 339 695 200 577 170 544 c 0
 150 521 121 506 101 506 c 0
 98 506 95 506 92 507 c 0
111 24 m 0
 77 42 63 69 58 126 c 2
 54 167 l 1
 81 242 l 2
 110 321 186 444 219 466 c 0
 232 474 245 478 257 478 c 0
 288 478 311 452 303 415 c 0
 300 401 281 362 260 327 c 0
 239 292 213 240 202 209 c 2
 185 154 l 1
 195 145 l 2
 199 142 206 140 214 140 c 0
 242 140 287 159 332 191 c 2
 389 232 l 1
 413 232 l 2
 444 232 463 202 455 165 c 2
 448 134 l 1
 403 97 l 2
 377 77 330 48 297 34 c 2
 238 7 l 1
 188 7 l 2
 161 7 127 15 111 24 c 0
EndSplineSet
EndChar

StartChar: idieresis
Encoding: 239 239 161
Width: 444
VWidth: 846
Flags: HW
LayerCount: 2
Fore
SplineSet
358 529 m 0
 332 539 314 577 320 606 c 0
 323 618 339 643 357 660 c 2
 391 692 l 1
 425 692 l 1
 459 692 l 1
 470 669 l 2
 476 657 478 630 474 610 c 2
 466 572 l 1
 439 552 l 2
 414 533 396 524 380 524 c 0
 373 524 365 526 358 529 c 0
149 536 m 0
 133 543 116 560 113 574 c 2
 108 600 l 1
 119 627 l 2
 126 642 146 666 162 679 c 2
 191 703 l 1
 226 703 l 1
 261 703 l 1
 278 680 l 2
 289 665 294 650 290 633 c 0
 286 616 273 596 252 571 c 0
 226 540 207 527 185 527 c 0
 174 527 163 530 149 536 c 0
111 24 m 0
 77 42 63 69 58 126 c 2
 54 167 l 1
 81 242 l 2
 110 321 186 444 219 466 c 0
 232 474 245 478 257 478 c 0
 288 478 311 452 303 415 c 0
 300 401 281 362 260 327 c 0
 239 292 213 240 202 209 c 2
 185 154 l 1
 195 145 l 2
 199 142 206 140 214 140 c 0
 242 140 287 159 332 191 c 2
 389 232 l 1
 413 232 l 2
 444 232 463 202 455 165 c 2
 448 134 l 1
 403 97 l 2
 377 77 330 48 297 34 c 2
 238 7 l 1
 188 7 l 2
 161 7 127 15 111 24 c 0
EndSplineSet
EndChar

StartChar: ntilde
Encoding: 241 241 162
Width: 521
VWidth: 789
Flags: HW
LayerCount: 2
Fore
SplineSet
415 597 m 0
 405 603 379 633 357 664 c 2
 318 720 l 1
 246 697 l 2
 207 685 160 663 141 650 c 0
 119 634 101 627 86 627 c 0
 72 627 61 633 51 646 c 0
 40 660 38 674 41 690 c 0
 49 728 95 769 170 800 c 0
 207 815 263 833 293 839 c 2
 348 850 l 1
 382 840 l 1
 416 831 l 1
 457 774 l 1
 498 718 l 1
 527 724 l 2
 576 735 690 784 754 823 c 0
 795 847 817 859 832 859 c 0
 845 859 853 851 865 836 c 0
 878 820 883 808 880 795 c 0
 876 778 859 760 823 732 c 2
 768 688 l 1
 681 650 l 2
 584 608 510 587 461 587 c 0
 441 587 427 590 415 597 c 0
57 22 m 0
 48 33 43 60 43 80 c 0
 43 91 47 114 54 145 c 0
 71 224 105 355 139 469 c 2
 164 552 l 1
 181 568 l 1
 200 586 l 1
 234 586 l 1
 267 586 l 1
 278 562 l 1
 290 540 l 1
 280 495 l 1
 271 450 l 1
 290 458 l 2
 354 483 392 493 424 493 c 2
 459 494 l 1
 500 470 l 1
 542 447 l 1
 556 399 l 1
 571 352 l 1
 532 249 l 2
 511 193 482 130 470 110 c 2
 448 73 l 1
 423 65 l 1
 397 55 l 1
 371 70 l 2
 353 80 346 91 352 121 c 0
 357 146 371 183 397 245 c 2
 433 329 l 1
 422 344 l 2
 417 352 404 360 393 360 c 0
 359 360 288 322 246 282 c 2
 207 243 l 1
 184 138 l 1
 162 34 l 1
 135 17 l 2
 119 7 104 2 92 2 c 0
 78 2 67 9 57 22 c 0
EndSplineSet
EndChar

StartChar: ograve
Encoding: 242 242 163
Width: 638
VWidth: 796
Flags: HW
LayerCount: 2
Fore
SplineSet
466 614 m 0
 385 630 321 655 297 682 c 2
 279 702 l 1
 285 729 l 2
 292 760 326 789 355 789 c 0
 366 789 393 781 415 770 c 0
 437 759 500 744 556 735 c 2
 658 719 l 1
 667 702 l 2
 672 693 673 673 670 658 c 2
 664 630 l 1
 639 615 l 1
 613 599 l 1
 573 600 l 2
 551 601 503 607 466 614 c 0
215 11 m 2
 112 52 72 114 77 230 c 0
 78 256 80 279 85 301 c 0
 95 346 113 385 147 434 c 2
 186 489 l 1
 252 527 l 1
 319 565 l 1
 380 579 l 1
 440 593 l 1
 499 575 l 2
 568 555 645 502 665 460 c 0
 673 444 682 413 684 391 c 2
 688 351 l 1
 673 312 l 2
 649 244 595 162 544 111 c 2
 495 62 l 1
 437 34 l 1
 379 5 l 1
 319 0 l 1
 257 -5 l 1
 215 11 l 2
398 152 m 2
 449 175 l 1
 499 243 l 1
 547 311 l 1
 548 347 l 1
 548 383 l 1
 527 390 l 2
 516 394 493 409 480 421 c 0
 456 443 437 452 412 452 c 0
 399 452 385 449 368 445 c 2
 322 434 l 1
 279 400 l 1
 234 366 l 1
 221 297 l 2
 214 259 210 216 214 200 c 2
 219 171 l 1
 258 150 l 2
 282 137 301 130 322 130 c 0
 344 130 366 137 398 152 c 2
EndSplineSet
EndChar

StartChar: oacute
Encoding: 243 243 164
Width: 638
VWidth: 796
Flags: HW
LayerCount: 2
Fore
SplineSet
307 630 m 2
 296 635 285 651 282 666 c 2
 277 693 l 1
 300 717 l 1
 324 741 l 1
 459 795 l 1
 594 849 l 1
 626 849 l 1
 658 849 l 1
 671 831 l 2
 679 819 681 805 678 791 c 0
 675 779 669 767 659 756 c 0
 650 747 602 724 551 704 c 0
 500 684 445 662 430 655 c 0
 415 648 385 636 365 631 c 2
 328 622 l 1
 307 630 l 2
215 11 m 2
 112 52 72 114 77 230 c 0
 78 256 80 279 85 301 c 0
 95 346 113 385 147 434 c 2
 186 489 l 1
 252 527 l 1
 319 565 l 1
 380 579 l 1
 440 593 l 1
 499 575 l 2
 568 555 645 502 665 460 c 0
 673 444 682 413 684 391 c 2
 688 351 l 1
 673 312 l 2
 649 244 595 162 544 111 c 2
 495 62 l 1
 437 34 l 1
 379 5 l 1
 319 0 l 1
 257 -5 l 1
 215 11 l 2
398 152 m 2
 449 175 l 1
 499 243 l 1
 547 311 l 1
 548 347 l 1
 548 383 l 1
 527 390 l 2
 516 394 493 409 480 421 c 0
 456 443 437 452 412 452 c 0
 399 452 385 449 368 445 c 2
 322 434 l 1
 279 400 l 1
 234 366 l 1
 221 297 l 2
 214 259 210 216 214 200 c 2
 219 171 l 1
 258 150 l 2
 282 137 301 130 322 130 c 0
 344 130 366 137 398 152 c 2
EndSplineSet
EndChar

StartChar: ocircumflex
Encoding: 244 244 165
Width: 638
VWidth: 796
Flags: HW
LayerCount: 2
Fore
SplineSet
299 637 m 0
 268 648 256 670 262 699 c 0
 266 717 277 737 294 758 c 0
 331 802 565 988 601 1000 c 2
 627 1009 l 1
 654 997 l 2
 669 991 688 971 696 954 c 0
 708 929 735 799 743 720 c 2
 745 704 l 1
 713 675 l 1
 684 647 l 1
 658 654 l 2
 619 664 603 695 595 774 c 2
 586 844 l 1
 567 835 l 2
 546 825 407 707 377 674 c 0
 357 651 328 636 308 636 c 0
 305 636 302 636 299 637 c 0
215 11 m 2
 112 52 72 114 77 230 c 0
 78 256 80 279 85 301 c 0
 95 346 113 385 147 434 c 2
 186 489 l 1
 252 527 l 1
 319 565 l 1
 380 579 l 1
 440 593 l 1
 499 575 l 2
 568 555 645 502 665 460 c 0
 673 444 682 413 684 391 c 2
 688 351 l 1
 673 312 l 2
 649 244 595 162 544 111 c 2
 495 62 l 1
 437 34 l 1
 379 5 l 1
 319 0 l 1
 257 -5 l 1
 215 11 l 2
398 152 m 2
 449 175 l 1
 499 243 l 1
 547 311 l 1
 548 347 l 1
 548 383 l 1
 527 390 l 2
 516 394 493 409 480 421 c 0
 456 443 437 452 412 452 c 0
 399 452 385 449 368 445 c 2
 322 434 l 1
 279 400 l 1
 234 366 l 1
 221 297 l 2
 214 259 210 216 214 200 c 2
 219 171 l 1
 258 150 l 2
 282 137 301 130 322 130 c 0
 344 130 366 137 398 152 c 2
EndSplineSet
EndChar

StartChar: otilde
Encoding: 245 245 166
Width: 638
VWidth: 796
Flags: HW
LayerCount: 2
Fore
SplineSet
469 617 m 0
 459 623 433 653 411 684 c 2
 372 740 l 1
 300 717 l 2
 261 705 214 683 195 670 c 0
 173 654 156 647 141 647 c 0
 127 647 116 653 106 666 c 0
 95 680 92 694 95 710 c 0
 103 748 149 789 224 820 c 0
 261 835 318 853 348 859 c 2
 402 870 l 1
 436 860 l 1
 470 851 l 1
 511 794 l 1
 552 738 l 1
 581 744 l 2
 630 755 744 804 808 843 c 0
 849 867 871 879 886 879 c 0
 899 879 907 871 919 856 c 0
 932 840 937 828 934 815 c 0
 930 798 913 780 877 752 c 2
 822 708 l 1
 735 670 l 2
 638 628 564 607 515 607 c 0
 495 607 481 610 469 617 c 0
215 11 m 2
 112 52 72 114 77 230 c 0
 78 256 80 279 85 301 c 0
 95 346 113 385 147 434 c 2
 186 489 l 1
 252 527 l 1
 319 565 l 1
 380 579 l 1
 440 593 l 1
 499 575 l 2
 568 555 645 502 665 460 c 0
 673 444 682 413 684 391 c 2
 688 351 l 1
 673 312 l 2
 649 244 595 162 544 111 c 2
 495 62 l 1
 437 34 l 1
 379 5 l 1
 319 0 l 1
 257 -5 l 1
 215 11 l 2
398 152 m 2
 449 175 l 1
 499 243 l 1
 547 311 l 1
 548 347 l 1
 548 383 l 1
 527 390 l 2
 516 394 493 409 480 421 c 0
 456 443 437 452 412 452 c 0
 399 452 385 449 368 445 c 2
 322 434 l 1
 279 400 l 1
 234 366 l 1
 221 297 l 2
 214 259 210 216 214 200 c 2
 219 171 l 1
 258 150 l 2
 282 137 301 130 322 130 c 0
 344 130 366 137 398 152 c 2
EndSplineSet
EndChar

StartChar: odieresis
Encoding: 246 246 167
Width: 638
VWidth: 796
Flags: HW
LayerCount: 2
Fore
SplineSet
525 609 m 0
 499 619 481 657 487 686 c 0
 490 698 506 723 524 740 c 2
 558 772 l 1
 592 772 l 1
 626 772 l 1
 637 749 l 2
 643 737 645 710 641 690 c 2
 633 652 l 1
 606 632 l 2
 581 613 563 604 547 604 c 0
 540 604 532 606 525 609 c 0
316 616 m 0
 300 623 283 640 280 654 c 2
 275 680 l 1
 286 707 l 2
 293 722 313 746 329 759 c 2
 358 783 l 1
 393 783 l 1
 428 783 l 1
 445 760 l 2
 456 745 461 730 457 713 c 0
 453 696 440 676 419 651 c 0
 393 620 374 607 352 607 c 0
 341 607 330 610 316 616 c 0
215 11 m 2
 112 52 72 114 77 230 c 0
 78 256 80 279 85 301 c 0
 95 346 113 385 147 434 c 2
 186 489 l 1
 252 527 l 1
 319 565 l 1
 380 579 l 1
 440 593 l 1
 499 575 l 2
 568 555 645 502 665 460 c 0
 673 444 682 413 684 391 c 2
 688 351 l 1
 673 312 l 2
 649 244 595 162 544 111 c 2
 495 62 l 1
 437 34 l 1
 379 5 l 1
 319 0 l 1
 257 -5 l 1
 215 11 l 2
398 152 m 2
 449 175 l 1
 499 243 l 1
 547 311 l 1
 548 347 l 1
 548 383 l 1
 527 390 l 2
 516 394 493 409 480 421 c 0
 456 443 437 452 412 452 c 0
 399 452 385 449 368 445 c 2
 322 434 l 1
 279 400 l 1
 234 366 l 1
 221 297 l 2
 214 259 210 216 214 200 c 2
 219 171 l 1
 258 150 l 2
 282 137 301 130 322 130 c 0
 344 130 366 137 398 152 c 2
EndSplineSet
EndChar

StartChar: divide
Encoding: 247 247 168
Width: 671
Flags: HW
LayerCount: 2
Fore
SplineSet
392 533 m 0
 364 545 349 575 355 604 c 0
 357 615 363 625 371 634 c 0
 387 652 427 669 456 669 c 2
 483 669 l 1
 503 644 l 1
 523 619 l 1
 517 593 l 1
 512 568 l 1
 481 547 l 2
 460 534 441 527 422 527 c 0
 412 527 402 529 392 533 c 0
125 381 m 2
 114 395 110 408 113 422 c 0
 116 435 125 450 141 466 c 2
 167 492 l 1
 255 504 l 1
 346 516 l 1
 531 509 l 1
 716 502 l 1
 732 483 l 2
 740 473 744 453 741 440 c 2
 735 414 l 1
 702 393 l 1
 670 370 l 1
 470 374 l 2
 446 374 423 375 400 375 c 0
 314 375 236 372 207 368 c 2
 143 360 l 1
 125 381 l 2
281 204 m 1
 256 231 l 1
 262 261 l 1
 269 290 l 1
 293 311 l 1
 318 331 l 1
 362 331 l 1
 407 331 l 1
 420 313 l 2
 427 303 431 282 428 268 c 2
 422 242 l 1
 395 221 l 2
 380 209 353 195 337 189 c 2
 307 179 l 1
 281 204 l 1
EndSplineSet
EndChar

StartChar: oslash
Encoding: 248 248 169
Width: 732
Flags: HW
LayerCount: 2
Fore
SplineSet
41 -122 m 2
 33 -117 20 -105 14 -96 c 2
 1 -80 l 1
 21 -45 l 2
 30 -28 40 -15 44 -15 c 2
 45 -15 l 2
 47 -18 50 -17 51 -12 c 0
 52 -7 67 9 82 23 c 0
 125 62 130 69 132 77 c 0
 133 81 147 99 163 117 c 2
 193 150 l 1
 181 184 l 1
 172 219 l 1
 184 276 l 2
 219 443 343 542 514 542 c 0
 520 542 526 542 532 542 c 2
 581 540 l 1
 609 561 l 2
 624 572 635 582 632 582 c 0
 629 582 651 603 683 630 c 0
 714 656 740 677 744 677 c 0
 752 677 757 677 772 682 c 2
 793 689 l 1
 814 665 l 2
 824 653 830 641 829 637 c 0
 827 626 827 626 831 620 c 2
 839 608 l 1
 787 562 l 2
 757 536 715 500 693 482 c 0
 671 464 651 444 650 438 c 0
 649 432 655 413 661 396 c 2
 673 366 l 1
 660 299 l 1
 646 234 l 1
 617 189 l 1
 587 145 l 1
 543 112 l 2
 472 58 465 53 428 39 c 0
 406 31 384 27 363 27 c 0
 338 27 314 32 294 43 c 2
 265 60 l 1
 200 -10 l 2
 164 -49 133 -86 132 -93 c 0
 129 -107 119 -115 83 -124 c 2
 56 -131 l 1
 41 -122 l 2
421 171 m 0
 433 176 445 178 452 178 c 0
 455 178 458 178 459 177 c 0
 462 174 463 176 461 182 c 0
 459 188 461 195 467 198 c 0
 492 211 528 275 535 309 c 0
 537 320 536 327 532 330 c 2
 531 330 l 2
 526 330 504 311 481 285 c 0
 457 258 418 221 399 203 c 0
 380 186 370 173 369 166 c 0
 368 161 371 159 378 159 c 0
 386 159 400 163 421 171 c 0
344 306 m 0
 359 324 387 353 406 370 c 0
 428 390 440 402 441 408 c 0
 442 411 440 412 436 412 c 0
 433 412 427 412 422 410 c 0
 399 404 355 372 341 352 c 0
 331 338 313 296 309 279 c 0
 308 275 309 272 310 272 c 0
 313 272 329 288 344 306 c 0
EndSplineSet
EndChar

StartChar: ugrave
Encoding: 249 249 170
Width: 526
VWidth: 783
Flags: HW
LayerCount: 2
Fore
SplineSet
365 564 m 0
 284 580 220 605 196 632 c 2
 179 652 l 1
 184 679 l 2
 191 710 225 739 254 739 c 0
 265 739 292 731 314 720 c 0
 336 709 400 694 456 685 c 2
 557 669 l 1
 567 652 l 2
 572 643 572 623 569 608 c 2
 563 580 l 1
 538 565 l 1
 513 549 l 1
 472 550 l 2
 450 551 402 557 365 564 c 0
361 -104 m 0
 328 -89 312 -52 313 6 c 2
 314 44 l 1
 281 28 l 2
 255 16 231 11 208 11 c 0
 143 11 90 56 71 136 c 2
 61 182 l 1
 79 269 l 1
 98 356 l 1
 127 408 l 1
 155 459 l 1
 184 473 l 1
 214 487 l 1
 239 480 l 1
 266 474 l 1
 270 447 l 1
 274 422 l 1
 252 385 l 1
 229 349 l 1
 212 270 l 1
 196 193 l 1
 207 169 l 1
 218 145 l 1
 240 148 l 1
 263 152 l 1
 302 208 l 2
 340 262 388 348 432 441 c 2
 452 484 l 1
 481 501 l 1
 509 517 l 1
 535 511 l 1
 559 505 l 1
 568 470 l 1
 576 435 l 1
 534 314 l 2
 511 247 479 153 466 105 c 2
 443 18 l 1
 471 1 l 1
 500 -16 l 1
 493 -47 l 1
 487 -77 l 1
 454 -98 l 2
 434 -111 421 -118 406 -118 c 0
 393 -118 380 -113 361 -104 c 0
EndSplineSet
EndChar

StartChar: uacute
Encoding: 250 250 171
Width: 526
VWidth: 783
Flags: HW
LayerCount: 2
Fore
SplineSet
226 530 m 2
 215 535 203 551 200 566 c 2
 196 593 l 1
 219 617 l 1
 242 641 l 1
 378 695 l 1
 513 749 l 1
 545 749 l 1
 577 749 l 1
 589 731 l 2
 597 719 600 705 597 691 c 0
 594 679 587 667 577 656 c 0
 568 647 520 624 469 604 c 0
 418 584 364 562 349 555 c 0
 334 548 304 536 284 531 c 2
 247 522 l 1
 226 530 l 2
361 -104 m 0
 328 -89 312 -52 313 6 c 2
 314 44 l 1
 281 28 l 2
 255 16 231 11 208 11 c 0
 143 11 90 56 71 136 c 2
 61 182 l 1
 79 269 l 1
 98 356 l 1
 127 408 l 1
 155 459 l 1
 184 473 l 1
 214 487 l 1
 239 480 l 1
 266 474 l 1
 270 447 l 1
 274 422 l 1
 252 385 l 1
 229 349 l 1
 212 270 l 1
 196 193 l 1
 207 169 l 1
 218 145 l 1
 240 148 l 1
 263 152 l 1
 302 208 l 2
 340 262 388 348 432 441 c 2
 452 484 l 1
 481 501 l 1
 509 517 l 1
 535 511 l 1
 559 505 l 1
 568 470 l 1
 576 435 l 1
 534 314 l 2
 511 247 479 153 466 105 c 2
 443 18 l 1
 471 1 l 1
 500 -16 l 1
 493 -47 l 1
 487 -77 l 1
 454 -98 l 2
 434 -111 421 -118 406 -118 c 0
 393 -118 380 -113 361 -104 c 0
EndSplineSet
EndChar

StartChar: ucircumflex
Encoding: 251 251 172
Width: 526
VWidth: 783
Flags: HW
LayerCount: 2
Fore
SplineSet
221 597 m 0
 190 608 177 630 183 659 c 0
 187 677 199 697 216 718 c 0
 253 762 486 948 522 960 c 2
 549 969 l 1
 575 957 l 2
 590 951 609 931 617 914 c 0
 629 889 657 759 665 680 c 2
 666 664 l 1
 635 635 l 1
 605 607 l 1
 580 614 l 2
 541 624 524 655 516 734 c 2
 508 804 l 1
 489 795 l 2
 468 785 329 667 299 634 c 0
 279 611 250 596 230 596 c 0
 227 596 224 596 221 597 c 0
361 -104 m 0
 328 -89 312 -52 313 6 c 2
 314 44 l 1
 281 28 l 2
 255 16 231 11 208 11 c 0
 143 11 90 56 71 136 c 2
 61 182 l 1
 79 269 l 1
 98 356 l 1
 127 408 l 1
 155 459 l 1
 184 473 l 1
 214 487 l 1
 239 480 l 1
 266 474 l 1
 270 447 l 1
 274 422 l 1
 252 385 l 1
 229 349 l 1
 212 270 l 1
 196 193 l 1
 207 169 l 1
 218 145 l 1
 240 148 l 1
 263 152 l 1
 302 208 l 2
 340 262 388 348 432 441 c 2
 452 484 l 1
 481 501 l 1
 509 517 l 1
 535 511 l 1
 559 505 l 1
 568 470 l 1
 576 435 l 1
 534 314 l 2
 511 247 479 153 466 105 c 2
 443 18 l 1
 471 1 l 1
 500 -16 l 1
 493 -47 l 1
 487 -77 l 1
 454 -98 l 2
 434 -111 421 -118 406 -118 c 0
 393 -118 380 -113 361 -104 c 0
EndSplineSet
EndChar

StartChar: udieresis
Encoding: 252 252 173
Width: 526
VWidth: 783
Flags: HW
LayerCount: 2
Fore
SplineSet
453 549 m 0
 427 559 408 597 414 626 c 0
 417 638 434 663 452 680 c 2
 485 712 l 1
 519 712 l 1
 553 712 l 1
 564 689 l 2
 570 677 572 650 568 630 c 2
 560 592 l 1
 534 572 l 2
 509 553 491 544 475 544 c 0
 468 544 460 546 453 549 c 0
243 556 m 0
 227 563 210 580 207 594 c 2
 202 620 l 1
 214 647 l 2
 221 662 241 686 257 699 c 2
 286 723 l 1
 321 723 l 1
 356 723 l 1
 372 700 l 2
 383 685 388 670 384 653 c 0
 380 636 368 616 347 591 c 0
 321 560 301 547 279 547 c 0
 268 547 257 550 243 556 c 0
361 -104 m 0
 328 -89 312 -52 313 6 c 2
 314 44 l 1
 281 28 l 2
 255 16 231 11 208 11 c 0
 143 11 90 56 71 136 c 2
 61 182 l 1
 79 269 l 1
 98 356 l 1
 127 408 l 1
 155 459 l 1
 184 473 l 1
 214 487 l 1
 239 480 l 1
 266 474 l 1
 270 447 l 1
 274 422 l 1
 252 385 l 1
 229 349 l 1
 212 270 l 1
 196 193 l 1
 207 169 l 1
 218 145 l 1
 240 148 l 1
 263 152 l 1
 302 208 l 2
 340 262 388 348 432 441 c 2
 452 484 l 1
 481 501 l 1
 509 517 l 1
 535 511 l 1
 559 505 l 1
 568 470 l 1
 576 435 l 1
 534 314 l 2
 511 247 479 153 466 105 c 2
 443 18 l 1
 471 1 l 1
 500 -16 l 1
 493 -47 l 1
 487 -77 l 1
 454 -98 l 2
 434 -111 421 -118 406 -118 c 0
 393 -118 380 -113 361 -104 c 0
EndSplineSet
EndChar

StartChar: yacute
Encoding: 253 253 174
Width: 511
VWidth: 922
Flags: HW
LayerCount: 2
Fore
SplineSet
206 530 m 2
 195 535 183 551 180 566 c 2
 176 593 l 1
 199 617 l 1
 222 641 l 1
 358 695 l 1
 493 749 l 1
 525 749 l 1
 557 749 l 1
 569 731 l 2
 577 719 580 705 577 691 c 0
 574 679 567 667 557 656 c 0
 548 647 500 624 449 604 c 0
 398 584 344 562 329 555 c 0
 314 548 284 536 264 531 c 2
 227 522 l 1
 206 530 l 2
104 -381 m 0
 95 -370 90 -352 92 -344 c 0
 98 -317 157 -175 198 -92 c 2
 237 -14 l 1
 171 198 l 2
 136 315 109 421 112 434 c 0
 115 447 124 466 133 474 c 2
 149 489 l 1
 182 489 l 1
 215 489 l 1
 230 469 l 2
 238 458 261 393 281 324 c 2
 319 199 l 1
 338 240 l 2
 349 263 367 303 380 331 c 0
 393 359 415 401 430 427 c 2
 455 472 l 1
 488 494 l 1
 520 514 l 1
 543 502 l 2
 556 496 570 478 573 464 c 2
 579 438 l 1
 515 292 l 2
 480 212 407 55 353 -58 c 0
 299 -171 248 -282 239 -306 c 0
 230 -330 211 -361 197 -375 c 2
 171 -401 l 1
 146 -401 l 2
 133 -401 113 -392 104 -381 c 0
EndSplineSet
EndChar

StartChar: thorn
Encoding: 254 254 175
Width: 609
Flags: HW
LayerCount: 2
Fore
SplineSet
71 -106 m 2
 65 -89 77 15 102 159 c 0
 114 230 123 309 125 336 c 0
 128 382 147 543 164 660 c 2
 172 715 l 1
 180 715 l 2
 185 715 189 717 189 721 c 0
 189 725 191 736 194 744 c 2
 198 759 l 1
 242 759 l 1
 286 759 l 1
 284 750 l 2
 283 745 287 743 292 746 c 0
 293 747 295 747 296 747 c 0
 303 747 303 733 297 705 c 0
 296 699 294 693 293 686 c 0
 292 682 291 678 290 674 c 0
 286 656 285 641 288 639 c 0
 289 639 289 638 290 638 c 0
 296 638 314 647 330 657 c 0
 349 669 368 679 373 679 c 0
 378 679 385 684 386 688 c 0
 388 697 472 722 496 722 c 0
 498 722 500 721 501 721 c 0
 507 719 518 720 527 724 c 2
 543 732 l 1
 589 707 l 2
 624 688 662 656 660 647 c 0
 660 646 658 645 655 645 c 0
 652 645 658 636 668 625 c 2
 687 605 l 1
 690 563 l 1
 694 521 l 1
 676 450 l 2
 666 411 648 366 639 349 c 0
 617 306 567 243 557 243 c 2
 556 243 l 2
 552 245 549 240 548 232 c 0
 547 224 542 218 537 219 c 0
 532 220 526 213 525 205 c 2
 522 190 l 1
 510 193 l 2
 503 195 500 194 503 190 c 0
 504 189 504 189 504 188 c 0
 501 175 442 124 427 124 c 0
 421 124 414 120 413 114 c 0
 412 108 409 106 407 109 c 0
 405 112 397 111 390 106 c 0
 383 101 356 95 328 92 c 2
 278 86 l 1
 254 101 l 2
 241 109 228 115 226 115 c 0
 225 115 223 108 220 96 c 0
 213 63 204 -4 204 -23 c 0
 204 -26 204 -29 203 -32 c 0
 198 -55 177 -89 162 -98 c 0
 155 -102 137 -105 122 -105 c 2
 94 -105 l 1
 96 -94 l 2
 97 -88 94 -91 88 -100 c 2
 76 -117 l 1
 71 -106 l 2
403 249 m 2
 474 301 531 387 552 472 c 0
 553 476 554 480 555 484 c 0
 565 533 558 560 529 581 c 2
 503 599 l 1
 452 587 l 2
 424 581 388 570 374 562 c 2
 349 546 l 1
 320 501 l 1
 293 455 l 1
 283 403 l 2
 277 374 265 346 259 341 c 0
 253 336 245 315 241 295 c 2
 233 258 l 1
 248 253 l 2
 255 250 276 242 294 235 c 0
 312 228 336 222 346 222 c 2
 366 222 l 1
 403 249 l 2
EndSplineSet
EndChar

StartChar: ydieresis
Encoding: 255 255 176
Width: 511
VWidth: 922
Flags: HW
LayerCount: 2
Fore
SplineSet
104 -381 m 0
 95 -370 90 -352 92 -344 c 0
 98 -317 157 -175 198 -92 c 2
 237 -14 l 1
 171 198 l 2
 136 315 109 421 112 434 c 0
 115 447 124 466 133 474 c 2
 149 489 l 1
 182 489 l 1
 215 489 l 1
 230 469 l 2
 238 458 261 393 281 324 c 2
 319 199 l 1
 338 240 l 2
 349 263 367 303 380 331 c 0
 393 359 415 401 430 427 c 2
 455 472 l 1
 488 494 l 1
 520 514 l 1
 543 502 l 2
 556 496 570 478 573 464 c 2
 579 438 l 1
 515 292 l 2
 480 212 407 55 353 -58 c 0
 299 -171 248 -282 239 -306 c 0
 230 -330 211 -361 197 -375 c 2
 171 -401 l 1
 146 -401 l 2
 133 -401 113 -392 104 -381 c 0
EndSplineSet
EndChar

StartChar: eth
Encoding: 240 240 177
Width: 865
Flags: HW
LayerCount: 2
Fore
SplineSet
161 11 m 0
 125 23 90 62 73 106 c 2
 58 146 l 1
 67 209 l 1
 77 273 l 1
 103 329 l 2
 158 445 231 519 334 565 c 2
 388 590 l 1
 476 590 l 1
 565 590 l 1
 606 565 l 1
 647 542 l 1
 663 616 l 2
 680 697 683 779 668 779 c 0
 651 779 515 721 475 697 c 2
 436 674 l 1
 416 684 l 2
 397 693 390 712 395 734 c 0
 399 752 410 771 428 787 c 0
 449 806 526 842 605 872 c 2
 642 885 l 1
 625 920 l 2
 616 939 599 960 590 965 c 0
 581 970 569 986 566 998 c 2
 560 1019 l 1
 578 1043 l 1
 597 1066 l 1
 621 1069 l 2
 623 1069 626 1070 629 1070 c 0
 643 1070 661 1066 672 1061 c 2
 694 1050 l 1
 724 996 l 2
 741 966 756 940 758 936 c 2
 761 928 l 1
 829 946 l 2
 866 956 921 967 951 970 c 2
 1003 976 l 1
 1022 961 l 1
 1042 946 l 1
 1037 921 l 2
 1031 892 1007 868 977 863 c 0
 967 861 922 854 880 847 c 0
 852 842 800 834 799 827 c 0
 797 818 795 788 795 756 c 2
 794 686 l 1
 776 602 l 2
 755 505 729 433 676 334 c 2
 639 263 l 1
 587 204 l 2
 525 133 480 99 379 48 c 2
 304 9 l 1
 244 6 l 2
 237 6 229 5 222 5 c 0
 196 5 170 8 161 11 c 0
377 163 m 2
 447 203 480 231 532 298 c 2
 560 333 l 1
 547 340 l 2
 540 344 532 359 531 371 c 2
 526 392 l 1
 546 418 l 1
 566 445 l 1
 539 462 l 1
 515 480 l 1
 442 477 l 1
 370 475 l 1
 330 448 l 2
 253 396 203 321 185 234 c 2
 175 188 l 1
 183 162 l 2
 187 148 197 132 204 127 c 2
 218 117 l 1
 263 120 l 1
 307 123 l 1
 377 163 l 2
EndSplineSet
EndChar

StartChar: Ccedilla
Encoding: 199 199 178
Width: 763
VWidth: 1135
Flags: HW
LayerCount: 2
Fore
SplineSet
476 -11 m 0
 252 23 150 131 121 360 c 2
 112 425 l 1
 126 489 l 2
 151 612 206 694 318 780 c 2
 386 833 l 1
 479 873 l 1
 570 913 l 1
 637 924 l 2
 664 929 690 931 714 931 c 0
 814 931 885 892 900 825 c 2
 907 792 l 1
 892 766 l 2
 879 742 848 725 824 725 c 0
 820 725 816 726 812 727 c 0
 805 730 787 746 777 763 c 2
 758 794 l 1
 692 795 l 1
 627 796 l 1
 578 782 l 2
 456 745 331 657 289 581 c 2
 269 543 l 1
 260 474 l 1
 249 404 l 1
 267 334 l 2
 277 295 294 250 303 232 c 2
 321 199 l 1
 378 167 l 2
 409 150 463 131 497 125 c 2
 558 113 l 1
 593 129 l 2
 613 138 644 146 660 146 c 2
 688 146 l 1
 701 120 l 1
 712 94 l 1
 696 66 l 1
 681 38 l 1
 630 16 l 2
 587 -4 544 -13 506 -13 c 0
 495 -13 486 -13 476 -11 c 0
EndSplineSet
EndChar

StartChar: AE
Encoding: 198 198 179
Width: 688
VWidth: 1036
Flags: HW
LayerCount: 2
Fore
SplineSet
69 25 m 0
 48 36 35 74 41 102 c 0
 43 111 59 132 77 149 c 0
 116 186 227 343 248 388 c 0
 255 404 270 425 280 434 c 0
 305 457 411 621 488 756 c 2
 552 869 l 1
 576 886 l 1
 602 905 l 1
 636 905 l 1
 671 905 l 1
 679 871 l 2
 688 829 703 346 697 224 c 2
 693 133 l 1
 668 106 l 1
 643 80 l 1
 616 77 l 1
 590 74 l 1
 574 100 l 1
 560 126 l 1
 564 229 l 1
 567 331 l 1
 489 329 l 2
 446 328 397 325 381 322 c 2
 352 316 l 1
 293 234 l 2
 259 189 213 126 190 93 c 2
 146 32 l 1
 119 23 l 2
 104 18 91 14 90 14 c 0
 89 14 80 19 69 25 c 0
559 471 m 0
 560 475 558 512 556 551 c 2
 553 623 l 1
 537 597 l 2
 528 583 507 550 489 522 c 0
 471 494 455 470 455 468 c 0
 455 466 478 464 507 464 c 0
 536 464 558 467 559 471 c 0
EndSplineSet
EndChar

StartChar: oe
Encoding: 189 339 180
Width: 637
Flags: HW
LayerCount: 2
Fore
SplineSet
263 239 m 2
 160 280 119 342 124 458 c 0
 125 484 128 508 132 529 c 0
 141 573 160 611 194 660 c 2
 233 716 l 1
 299 754 l 1
 366 792 l 1
 427 805 l 1
 487 819 l 1
 546 802 l 2
 615 782 692 728 712 686 c 0
 720 670 729 639 731 617 c 2
 735 579 l 1
 721 539 l 2
 697 471 642 388 591 337 c 2
 542 289 l 1
 484 260 l 1
 426 232 l 1
 366 227 l 1
 304 222 l 1
 263 239 l 2
445 378 m 2
 496 401 l 1
 546 469 l 1
 594 538 l 1
 595 573 l 1
 596 610 l 1
 574 617 l 2
 563 621 541 635 528 647 c 0
 503 669 483 679 457 679 c 0
 445 679 431 677 415 673 c 2
 370 662 l 1
 326 627 l 1
 281 592 l 1
 268 524 l 2
 261 486 257 443 261 427 c 2
 266 397 l 1
 305 376 l 2
 329 363 348 356 369 356 c 0
 391 356 413 363 445 378 c 2
EndSplineSet
EndChar

StartChar: ordmasculine
Encoding: 186 186 182
Width: 418
Flags: HW
LayerCount: 2
Fore
SplineSet
193 460 m 2
 179 471 163 493 155 509 c 2
 141 538 l 1
 153 591 l 2
 168 660 201 726 241 763 c 2
 274 793 l 1
 316 806 l 2
 343 815 364 819 383 819 c 0
 404 819 423 814 450 803 c 0
 519 775 545 724 530 652 c 2
 520 608 l 1
 499 578 l 2
 488 562 462 532 444 511 c 2
 410 474 l 1
 371 457 l 1
 332 441 l 1
 275 441 l 1
 218 441 l 1
 193 460 l 2
333 583 m 2
 317 607 310 642 316 668 c 0
 317 675 320 682 323 687 c 2
 331 701 l 1
 319 697 l 2
 299 691 278 654 268 608 c 0
 263 584 262 562 264 559 c 0
 266 556 288 553 311 553 c 2
 354 553 l 1
 333 583 l 2
EndSplineSet
EndChar

StartChar: periodcentered
Encoding: 183 183 184
Width: 214
Flags: HW
LayerCount: 2
Fore
SplineSet
158 339 m 0
 132 349 113 387 119 416 c 0
 122 428 139 453 157 470 c 2
 191 502 l 1
 225 502 l 1
 259 502 l 1
 270 479 l 2
 276 467 277 440 273 420 c 2
 265 382 l 1
 239 362 l 2
 214 343 196 334 180 334 c 0
 173 334 165 336 158 339 c 0
EndSplineSet
EndChar

StartChar: uni00AD
Encoding: 173 173 185
Width: 539
Flags: HW
LayerCount: 2
Fore
SplineSet
207 366 m 0
 161 376 134 394 127 420 c 2
 119 446 l 1
 133 467 l 2
 141 478 156 493 166 500 c 0
 178 508 200 512 220 512 c 0
 239 512 254 508 257 501 c 2
 262 489 l 1
 421 498 l 1
 580 505 l 1
 597 486 l 1
 612 468 l 1
 607 440 l 1
 601 413 l 1
 578 395 l 1
 554 378 l 1
 457 369 l 2
 400 364 338 361 288 361 c 0
 251 361 221 363 207 366 c 0
EndSplineSet
EndChar

StartChar: logicalnot
Encoding: 172 172 186
Width: 967
Flags: HW
LayerCount: 2
Fore
SplineSet
156 415 m 0
 148 418 137 433 133 446 c 2
 125 470 l 1
 145 498 l 2
 156 513 174 529 185 534 c 0
 196 539 381 544 596 546 c 2
 979 549 l 2
 980 549 980 549 981 549 c 2
 988 549 l 1
 1008 549 l 1
 1026 527 l 1
 1044 517 l 1
 1045 503 l 1
 1049 497 l 1
 1044 486 l 2
 1044 483 1044 480 1043 477 c 0
 1041 468 1038 459 1032 451 c 0
 1024 427 1012 381 1004 342 c 2
 987 262 l 1
 961 242 l 2
 945 229 930 222 917 222 c 0
 902 222 889 231 876 247 c 2
 856 272 l 1
 881 390 l 1
 886 416 l 1
 760 413 548 411 384 411 c 0
 258 411 162 412 156 415 c 0
EndSplineSet
EndChar

StartChar: macron
Encoding: 175 175 187
Width: 967
Flags: HW
LayerCount: 2
Fore
SplineSet
211 675 m 0
 203 678 192 693 188 706 c 2
 180 730 l 1
 200 758 l 2
 211 773 229 789 240 794 c 0
 251 799 436 804 651 806 c 2
 1043 809 l 1
 1071 793 l 1
 1099 777 l 1
 1100 753 l 2
 1100 748 1100 743 1099 738 c 0
 1093 711 1070 685 1045 680 c 0
 1023 675 674 672 435 672 c 0
 312 672 217 673 211 675 c 0
EndSplineSet
EndChar

StartChar: plusminus
Encoding: 177 177 188
Width: 690
Flags: HW
LayerCount: 2
Fore
SplineSet
325 167 m 2
 306 193 l 1
 320 259 l 1
 334 326 l 1
 305 321 l 2
 289 318 245 314 208 312 c 2
 142 308 l 1
 120 337 l 1
 99 365 l 1
 108 386 l 2
 113 397 129 415 141 424 c 2
 164 441 l 1
 239 446 l 2
 280 448 326 453 339 456 c 2
 363 460 l 1
 384 562 l 1
 407 666 l 1
 438 691 l 1
 468 717 l 1
 491 711 l 2
 502 707 517 694 525 683 c 2
 539 663 l 1
 519 570 l 1
 500 478 l 1
 560 485 l 2
 594 488 641 497 667 503 c 2
 713 514 l 1
 737 502 l 2
 759 490 767 467 762 444 c 0
 758 425 746 405 724 393 c 0
 699 380 617 362 521 351 c 2
 472 346 l 1
 454 264 l 1
 437 183 l 1
 413 163 l 2
 411 161 407 159 405 157 c 1
 419 158 l 1
 578 165 l 1
 595 146 l 1
 610 128 l 1
 604 100 l 1
 599 73 l 1
 576 55 l 1
 552 38 l 1
 455 29 l 2
 398 24 335 21 285 21 c 0
 248 21 219 23 205 26 c 0
 159 36 132 54 125 80 c 2
 117 106 l 1
 131 127 l 2
 139 138 154 153 164 160 c 0
 176 168 198 172 218 172 c 0
 237 172 252 168 255 161 c 2
 260 149 l 1
 339 153 l 1
 335 157 329 162 325 167 c 2
EndSplineSet
EndChar

StartChar: questiondown
Encoding: 191 191 189
Width: 567
Flags: HW
LayerCount: 2
Fore
SplineSet
194 -113 m 2
 241 -137 255 -156 261 -211 c 2
 267 -261 l 1
 248 -295 l 2
 238 -314 192 -372 148 -424 c 2
 69 -518 l 1
 47 -570 l 2
 35 -598 22 -630 20 -640 c 2
 16 -660 l 1
 46 -686 l 1
 76 -714 l 1
 126 -707 l 1
 176 -700 l 1
 214 -666 l 2
 254 -631 290 -572 301 -521 c 2
 308 -490 l 1
 331 -472 l 2
 345 -461 360 -455 374 -455 c 0
 401 -455 422 -476 426 -511 c 2
 430 -546 l 1
 408 -595 l 2
 341 -742 239 -822 94 -840 c 2
 40 -847 l 1
 -9 -823 l 2
 -69 -792 -109 -744 -115 -695 c 2
 -119 -658 l 1
 -91 -582 l 2
 -56 -486 -35 -453 59 -347 c 2
 135 -261 l 1
 125 -246 l 2
 120 -238 102 -231 87 -231 c 0
 50 -231 30 -206 38 -168 c 2
 44 -139 l 1
 72 -123 l 2
 87 -115 113 -106 130 -103 c 2
 161 -98 l 1
 194 -113 l 2
255 80 m 0
 262 77 278 64 288 53 c 2
 307 32 l 1
 301 3 l 1
 294 -27 l 1
 264 -52 l 2
 245 -68 227 -76 212 -76 c 0
 199 -76 187 -70 175 -59 c 2
 157 -40 l 1
 159 1 l 1
 163 43 l 1
 196 65 l 2
 218 80 226 86 235 86 c 0
 240 86 247 83 255 80 c 0
EndSplineSet
EndChar

StartChar: exclamdown
Encoding: 161 161 190
Width: 227
Flags: HW
LayerCount: 2
Fore
SplineSet
113 -136 m 0
 124 -141 136 -157 139 -171 c 2
 144 -199 l 1
 84 -470 l 1
 23 -742 l 1
 31 -762 l 1
 38 -784 l 1
 21 -807 l 2
 11 -820 -6 -836 -16 -842 c 2
 -35 -853 l 1
 -61 -843 l 2
 -75 -838 -93 -821 -102 -805 c 2
 -117 -776 l 1
 -52 -475 l 1
 13 -173 l 1
 34 -154 l 2
 53 -137 69 -130 86 -130 c 0
 95 -130 104 -132 113 -136 c 0
164 90 m 2
 197 77 l 1
 205 50 l 1
 212 22 l 1
 201 -2 l 2
 195 -15 173 -40 155 -55 c 2
 121 -82 l 1
 87 -83 l 1
 54 -84 l 1
 38 -64 l 1
 23 -44 l 1
 28 8 l 1
 33 59 l 1
 66 82 l 2
 87 96 100 102 116 102 c 0
 129 102 143 98 164 90 c 2
EndSplineSet
EndChar
